<svg width="30" height="31" viewBox="0 0 30 31" fill="none" xmlns="http://www.w3.org/2000/svg">
<path id="Vector" d="M13.9875 16.358V21.458C13.9875 21.7768 14.096 22.0439 14.313 22.2594C14.5297 22.4751 14.7985 22.583 15.1193 22.583C15.4398 22.583 15.7063 22.4751 15.9188 22.2594C16.1313 22.0439 16.2375 21.7768 16.2375 21.458V16.358H21.375C21.6938 16.358 21.961 16.2495 22.1768 16.0325C22.3923 15.8158 22.5 15.547 22.5 15.2263C22.5 14.9058 22.3923 14.6393 22.1768 14.4268C21.961 14.2143 21.6938 14.108 21.375 14.108H16.2375V8.70801C16.2375 8.38926 16.129 8.12201 15.912 7.90626C15.6953 7.69076 15.4265 7.58301 15.1058 7.58301C14.7853 7.58301 14.5188 7.69076 14.3063 7.90626C14.0938 8.12201 13.9875 8.38926 13.9875 8.70801V14.108H8.625C8.30625 14.108 8.03913 14.2165 7.82363 14.4335C7.60788 14.6503 7.5 14.919 7.5 15.2398C7.5 15.5603 7.60788 15.8268 7.82363 16.0393C8.03913 16.2518 8.30625 16.358 8.625 16.358H13.9875ZM15.0101 30.083C12.9416 30.083 10.9979 29.6893 9.17887 28.9018C7.35962 28.1143 5.76875 27.0393 4.40625 25.6768C3.04375 24.3143 1.96875 22.7225 1.18125 20.9015C0.39375 19.0805 0 17.1348 0 15.0643C0 12.9938 0.39375 11.048 1.18125 9.22701C1.96875 7.40601 3.04375 5.82051 4.40625 4.47051C5.76875 3.12051 7.3605 2.05176 9.1815 1.26426C11.0025 0.476758 12.9483 0.0830078 15.0188 0.0830078C17.0893 0.0830078 19.035 0.476758 20.856 1.26426C22.677 2.05176 24.2625 3.12051 25.6125 4.47051C26.9625 5.82051 28.0313 7.40801 28.8188 9.23301C29.6063 11.058 30 13.0046 30 15.0729C30 17.1414 29.6063 19.0851 28.8188 20.9041C28.0313 22.7234 26.9625 24.312 25.6125 25.67C24.2625 27.0278 22.675 28.1028 20.85 28.895C19.025 29.687 17.0784 30.083 15.0101 30.083ZM15.0188 27.833C18.5563 27.833 21.5625 26.5893 24.0375 24.1018C26.5125 21.6143 27.75 18.6018 27.75 15.0643C27.75 11.5268 26.5149 8.52051 24.0446 6.04551C21.5744 3.57051 18.5595 2.33301 15 2.33301C11.475 2.33301 8.46875 3.56813 5.98125 6.03838C3.49375 8.50863 2.25 11.5235 2.25 15.083C2.25 18.608 3.49375 21.6143 5.98125 24.1018C8.46875 26.5893 11.4813 27.833 15.0188 27.833Z" fill="white"/>
</svg>
