<svg width="12" height="13" viewBox="0 0 12 13" fill="none" xmlns="http://www.w3.org/2000/svg">
<path id="Vector" d="M5.20833 7.20833H0.625C0.447917 7.20833 0.299514 7.14806 0.179792 7.0275C0.0599307 6.90708 0 6.75778 0 6.57958C0 6.40153 0.0599307 6.25347 0.179792 6.13542C0.299514 6.01736 0.447917 5.95833 0.625 5.95833H5.20833V1.375C5.20833 1.19792 5.26861 1.04944 5.38917 0.929583C5.50958 0.809861 5.65889 0.75 5.83708 0.75C6.01514 0.75 6.16319 0.809861 6.28125 0.929583C6.39931 1.04944 6.45833 1.19792 6.45833 1.375V5.95833H11.0417C11.2188 5.95833 11.3672 6.01861 11.4871 6.13917C11.6068 6.25958 11.6667 6.40889 11.6667 6.58708C11.6667 6.76514 11.6068 6.91319 11.4871 7.03125C11.3672 7.14931 11.2188 7.20833 11.0417 7.20833H6.45833V11.7917C6.45833 11.9688 6.39806 12.1172 6.2775 12.2369C6.15708 12.3567 6.00778 12.4167 5.82958 12.4167C5.65153 12.4167 5.50347 12.3567 5.38542 12.2369C5.26736 12.1172 5.20833 11.9688 5.20833 11.7917V7.20833Z" fill="#016CCD"/>
</svg>
