<svg width="25" height="30" viewBox="0 0 25 30" fill="none" xmlns="http://www.w3.org/2000/svg">
<g id="Isolation_Mode" clip-path="url(#clip0_1602_2361)">
<path id="Vector" d="M16.6361 8.96197H24.497C24.3506 8.72332 24.1557 8.48468 23.9114 8.24704L16.1475 0.663741C15.9516 0.472422 15.7083 0.282109 15.4155 0.0917969V7.72242C15.4155 8.43735 15.9526 8.96197 16.6361 8.96197Z" fill="white"/>
<rect id="Rectangle 11347" x="2.59131" y="13.7324" width="19.4595" height="15.4667" fill="white"/>
<path id="Vector_2" d="M16.632 11.0112C14.7763 11.0112 13.3165 9.57331 13.3165 7.72456V0.0878906H3.28351C2.54124 0.0878906 1.84845 0.365807 1.31649 0.885391C0.784536 1.40497 0.5 2.08164 0.5 2.80664V26.3691C0.5 27.8675 1.74948 29.0879 3.28351 29.0879H21.7165C23.2505 29.0879 24.5 27.8675 24.5 26.3691V11.0112H16.632ZM15.4515 16.8626C15.4515 16.6028 15.667 16.3933 15.932 16.3933H17.8567C18.1216 16.3933 18.3371 16.6038 18.3371 16.8626V22.9405C18.3371 23.1993 18.1216 23.4097 17.8567 23.4097H15.932C15.666 23.4097 15.4515 23.1993 15.4515 22.9405V16.8626ZM11.0567 14.8054C11.0567 14.5456 11.2722 14.3362 11.5371 14.3362H13.4619C13.7268 14.3362 13.9423 14.5466 13.9423 14.8054V22.9415C13.9423 23.2003 13.7268 23.4107 13.4619 23.4107H11.5371C11.2722 23.4107 11.0567 23.2003 11.0567 22.9415V14.8054ZM6.66186 18.3357C6.66186 18.077 6.87732 17.8665 7.14227 17.8665H9.06701C9.33299 17.8665 9.54742 18.077 9.54742 18.3357V22.9405C9.54742 23.1993 9.33196 23.4097 9.06701 23.4097H7.14227C6.87732 23.4097 6.66186 23.1993 6.66186 22.9405V18.3357ZM19.3021 25.329C19.3021 25.5424 19.1247 25.7166 18.9052 25.7166H6.09485C5.87629 25.7166 5.69794 25.5424 5.69794 25.329V24.7963C5.69794 24.5818 5.87629 24.4086 6.09485 24.4086H18.9052C19.1247 24.4086 19.3021 24.5818 19.3021 24.7963V25.329Z" fill="#203A72"/>
</g>
<defs>
<clipPath id="clip0_1602_2361">
<rect width="24" height="29" fill="white" transform="translate(0.5 0.0878906)"/>
</clipPath>
</defs>
</svg>
