<svg width="20" height="20" viewBox="0 0 20 20" fill="none" xmlns="http://www.w3.org/2000/svg">
<path id="Vector" d="M19.7066 17.7216C19.0638 17.1485 18.501 16.4915 18.0333 15.7682C17.5228 14.7699 17.2168 13.6797 17.1333 12.5616V9.26823C17.1377 7.51197 16.5007 5.81455 15.3418 4.49488C14.183 3.17521 12.5821 2.32414 10.84 2.10156V1.24156C10.84 1.00552 10.7462 0.779145 10.5793 0.612238C10.4124 0.44533 10.186 0.351562 9.94998 0.351562C9.71394 0.351562 9.48757 0.44533 9.32066 0.612238C9.15375 0.779145 9.05998 1.00552 9.05998 1.24156V2.1149C7.33349 2.35351 5.75196 3.20973 4.60834 4.52497C3.46471 5.8402 2.83647 7.52533 2.83998 9.26823V12.5616C2.75649 13.6797 2.4505 14.7699 1.93998 15.7682C1.48057 16.4898 0.92678 17.1467 0.293317 17.7216C0.222205 17.784 0.165211 17.8609 0.126129 17.9471C0.0870461 18.0334 0.0667703 18.1269 0.0666504 18.2216V19.1282C0.0666504 19.305 0.136888 19.4746 0.261913 19.5996C0.386937 19.7247 0.556506 19.7949 0.733317 19.7949H19.2667C19.4435 19.7949 19.613 19.7247 19.7381 19.5996C19.8631 19.4746 19.9333 19.305 19.9333 19.1282V18.2216C19.9332 18.1269 19.9129 18.0334 19.8738 17.9471C19.8348 17.8609 19.7778 17.784 19.7066 17.7216ZM1.45332 18.4616C2.07359 17.8624 2.61972 17.1909 3.07998 16.4616C3.72306 15.2559 4.09827 13.9256 4.17998 12.5616V9.26823C4.15354 8.48692 4.2846 7.70828 4.56535 6.97867C4.84609 6.24907 5.27079 5.58342 5.81415 5.02136C6.35751 4.45931 7.00841 4.01234 7.7281 3.70708C8.4478 3.40182 9.22156 3.2445 10.0033 3.2445C10.7851 3.2445 11.5588 3.40182 12.2785 3.70708C12.9982 4.01234 13.6491 4.45931 14.1925 5.02136C14.7358 5.58342 15.1605 6.24907 15.4413 6.97867C15.722 7.70828 15.8531 8.48692 15.8267 9.26823V12.5616C15.9084 13.9256 16.2836 15.2559 16.9267 16.4616C17.3869 17.1909 17.933 17.8624 18.5533 18.4616H1.45332Z" fill="#FFA412"/>
</svg>
