<svg width="74" height="74" viewBox="0 0 74 74" fill="none" xmlns="http://www.w3.org/2000/svg">
<g id="Group 9233">
<circle id="Ellipse 153" cx="2.3125" cy="2.3125" r="2.3125" transform="matrix(-1 0 0 1 18.5 41.625)" fill="#E8E8E8"/>
<circle id="Ellipse 173" cx="2.3125" cy="2.3125" r="2.3125" transform="matrix(-1 0 0 1 18.5 69.375)" fill="#E8E8E8"/>
<circle id="Ellipse 160" cx="2.3125" cy="2.3125" r="2.3125" transform="matrix(-1 0 0 1 18.5 55.5)" fill="#E8E8E8"/>
<circle id="Ellipse 152" cx="2.3125" cy="2.3125" r="2.3125" transform="matrix(-1 0 0 1 32.375 41.625)" fill="#E8E8E8"/>
<circle id="Ellipse 175" cx="2.3125" cy="2.3125" r="2.3125" transform="matrix(-1 0 0 1 32.375 69.375)" fill="#E8E8E8"/>
<circle id="Ellipse 156" cx="2.3125" cy="2.3125" r="2.3125" transform="matrix(-1 0 0 1 32.375 55.5)" fill="#E8E8E8"/>
<circle id="Ellipse 155" cx="2.3125" cy="2.3125" r="2.3125" transform="matrix(-1 0 0 1 60.125 41.625)" fill="#E8E8E8"/>
<circle id="Ellipse 176" cx="2.3125" cy="2.3125" r="2.3125" transform="matrix(-1 0 0 1 60.125 69.375)" fill="#E8E8E8"/>
<circle id="Ellipse 157" cx="2.3125" cy="2.3125" r="2.3125" transform="matrix(-1 0 0 1 60.125 55.5)" fill="#E8E8E8"/>
<circle id="Ellipse 150" cx="2.3125" cy="2.3125" r="2.3125" transform="matrix(-1 0 0 1 4.625 41.625)" fill="#E8E8E8"/>
<circle id="Ellipse 177" cx="2.3125" cy="2.3125" r="2.3125" transform="matrix(-1 0 0 1 4.625 69.375)" fill="#E8E8E8"/>
<circle id="Ellipse 161" cx="2.3125" cy="2.3125" r="2.3125" transform="matrix(-1 0 0 1 4.625 55.5)" fill="#E8E8E8"/>
<circle id="Ellipse 151" cx="2.3125" cy="2.3125" r="2.3125" transform="matrix(-1 0 0 1 46.25 41.625)" fill="#E8E8E8"/>
<circle id="Ellipse 178" cx="2.3125" cy="2.3125" r="2.3125" transform="matrix(-1 0 0 1 46.25 69.375)" fill="#E8E8E8"/>
<circle id="Ellipse 158" cx="2.3125" cy="2.3125" r="2.3125" transform="matrix(-1 0 0 1 46.25 55.5)" fill="#E8E8E8"/>
<circle id="Ellipse 154" cx="2.3125" cy="2.3125" r="2.3125" transform="matrix(-1 0 0 1 74 41.625)" fill="#E8E8E8"/>
<circle id="Ellipse 179" cx="2.3125" cy="2.3125" r="2.3125" transform="matrix(-1 0 0 1 74 69.375)" fill="#E8E8E8"/>
<circle id="Ellipse 159" cx="2.3125" cy="2.3125" r="2.3125" transform="matrix(-1 0 0 1 74 55.5)" fill="#E8E8E8"/>
<circle id="Ellipse 198" cx="2.3125" cy="2.3125" r="2.3125" transform="matrix(-1 0 0 1 46.25 27.75)" fill="#E8E8E8"/>
<circle id="Ellipse 171" cx="2.3125" cy="2.3125" r="2.3125" transform="matrix(-1 0 0 1 46.25 0)" fill="#E8E8E8"/>
<circle id="Ellipse 199" cx="2.3125" cy="2.3125" r="2.3125" transform="matrix(-1 0 0 1 46.25 55.5)" fill="#E8E8E8"/>
<circle id="Ellipse 200" cx="2.3125" cy="2.3125" r="2.3125" transform="matrix(-1 0 0 1 46.25 41.625)" fill="#E8E8E8"/>
<circle id="Ellipse 172" cx="2.3125" cy="2.3125" r="2.3125" transform="matrix(-1 0 0 1 46.25 13.875)" fill="#E8E8E8"/>
<circle id="Ellipse 201" cx="2.3125" cy="2.3125" r="2.3125" transform="matrix(-1 0 0 1 46.25 69.375)" fill="#E8E8E8"/>
<circle id="Ellipse 203" cx="2.3125" cy="2.3125" r="2.3125" transform="matrix(-1 0 0 1 60.125 27.75)" fill="#E8E8E8"/>
<circle id="Ellipse 174" cx="2.3125" cy="2.3125" r="2.3125" transform="matrix(-1 0 0 1 60.125 0)" fill="#E8E8E8"/>
<circle id="Ellipse 204" cx="2.3125" cy="2.3125" r="2.3125" transform="matrix(-1 0 0 1 60.125 55.5)" fill="#E8E8E8"/>
<circle id="Ellipse 205" cx="2.3125" cy="2.3125" r="2.3125" transform="matrix(-1 0 0 1 60.125 41.625)" fill="#E8E8E8"/>
<circle id="Ellipse 170" cx="2.3125" cy="2.3125" r="2.3125" transform="matrix(-1 0 0 1 60.125 13.875)" fill="#E8E8E8"/>
<circle id="Ellipse 206" cx="2.3125" cy="2.3125" r="2.3125" transform="matrix(-1 0 0 1 60.125 69.375)" fill="#E8E8E8"/>
<circle id="Ellipse 209" cx="2.3125" cy="2.3125" r="2.3125" transform="matrix(-1 0 0 1 74 27.75)" fill="#E8E8E8"/>
<circle id="Ellipse 177_2" cx="2.3125" cy="2.3125" r="2.3125" transform="matrix(-1 0 0 1 74 0)" fill="#E8E8E8"/>
<circle id="Ellipse 193" cx="2.3125" cy="2.3125" r="2.3125" transform="matrix(-1 0 0 1 74 55.5)" fill="#E8E8E8"/>
<circle id="Ellipse 194" cx="2.3125" cy="2.3125" r="2.3125" transform="matrix(-1 0 0 1 74 41.625)" fill="#E8E8E8"/>
<circle id="Ellipse 169" cx="2.3125" cy="2.3125" r="2.3125" transform="matrix(-1 0 0 1 74 13.875)" fill="#E8E8E8"/>
<circle id="Ellipse 195" cx="2.3125" cy="2.3125" r="2.3125" transform="matrix(-1 0 0 1 74 69.375)" fill="#E8E8E8"/>
</g>
</svg>
