<svg width="32" height="33" viewBox="0 0 32 33" fill="none" xmlns="http://www.w3.org/2000/svg">
<g id="emergency-call_7895899" clip-path="url(#clip0_1_1448)">
<g id="Group 2129">
<path id="Vector" d="M13.2754 13.3435C13.2754 9.20488 13.2754 5.06574 13.2754 0.926036C13.2754 0.518414 13.3998 0.224393 13.7766 0.0556641H30.3989C30.7706 0.222722 30.9076 0.501707 30.9067 0.920188C30.8961 7.20715 30.8936 13.4941 30.8992 19.7811C30.8992 20.4326 30.6486 20.6773 29.9887 20.6782H26.0862C26.0812 20.5637 26.0729 20.4501 26.0721 20.3357C26.0721 18.7445 26.0411 17.1524 26.0812 15.562C26.1146 14.1913 25.1257 13.3243 23.8819 13.341C20.575 13.3852 17.2672 13.356 13.9603 13.3552C13.7323 13.356 13.5043 13.3485 13.2754 13.3435ZM21.9315 5.40821C20.4439 5.40821 18.9554 5.40821 17.4669 5.40821C17.0258 5.40821 16.7552 5.64627 16.746 6.01463C16.7368 6.38299 17.0175 6.64611 17.4686 6.66114C17.5203 6.66114 17.5721 6.66114 17.6239 6.66114C20.4968 6.66114 23.3693 6.66114 26.2416 6.66114C26.3662 6.66403 26.4907 6.65423 26.6133 6.63191C26.7581 6.60509 26.8879 6.5255 26.9774 6.40853C27.0668 6.29156 27.1098 6.14555 27.0978 5.99876C27.0828 5.62873 26.8196 5.41406 26.3652 5.40904C24.8873 5.40515 23.4091 5.40431 21.9307 5.40654L21.9315 5.40821ZM21.9315 9.0459H17.6231C17.5187 9.0459 17.4143 9.0459 17.3115 9.05258C17.1703 9.06299 17.0373 9.12305 16.9361 9.22211C16.8349 9.32118 16.772 9.45287 16.7586 9.59385C16.7393 9.7343 16.7699 9.87705 16.845 9.99729C16.9201 10.1175 17.0349 10.2077 17.1695 10.2521C17.2995 10.2904 17.4352 10.3054 17.5705 10.2963H26.2742C26.4093 10.3056 26.545 10.2912 26.6751 10.2537C26.8104 10.211 26.9263 10.1221 27.0027 10.0025C27.079 9.88298 27.1109 9.74039 27.0928 9.5997C27.081 9.45866 27.0197 9.32633 26.9197 9.22618C26.8197 9.12603 26.6875 9.06453 26.5465 9.05258C26.4429 9.04256 26.3385 9.0459 26.2341 9.0459H21.9315Z" fill="#069AEE"/>
<path id="Vector_2" d="M13.2756 13.3437C13.5045 13.3487 13.7325 13.3562 13.9614 13.3562C17.2683 13.3562 20.5761 13.3863 23.883 13.342C25.1267 13.3253 26.1157 14.1924 26.0823 15.5631C26.0422 17.1501 26.0723 18.7455 26.0731 20.3368C26.0731 20.4512 26.0823 20.5648 26.0873 20.6792C26.0923 20.7937 26.0731 20.9073 26.0731 21.0209C26.0731 23.9678 26.0731 26.9147 26.0731 29.8616C26.0731 31.2565 25.2779 32.0559 23.8913 32.0559H3.96128C2.56885 32.0559 1.77783 31.2632 1.77783 29.8683C1.77783 25.047 1.77783 20.2257 1.77783 15.4044C1.77783 14.3912 2.3734 13.6127 3.31561 13.3997C3.50977 13.3641 3.70723 13.3498 3.90448 13.3571C6.91153 13.3571 9.92081 13.3571 12.9323 13.3571C13.0476 13.3562 13.1603 13.3479 13.2756 13.3437ZM13.9497 14.6075H3.92119C3.77583 14.5935 3.62914 14.6066 3.48851 14.6459C3.08507 14.7988 3.0291 15.041 3.33565 15.3292C6.09712 17.9253 8.8586 20.5216 11.6201 23.1183C13.0016 24.418 14.8359 24.4255 16.2142 23.1316L20.2236 19.3653C21.6803 17.9963 23.1337 16.6231 24.598 15.2615C24.765 15.1053 24.7876 14.9942 24.6372 14.833C24.4485 14.6301 24.2104 14.6042 23.9523 14.6042C20.6162 14.6081 17.2819 14.6092 13.9497 14.6075ZM13.9121 30.8055C17.2533 30.8055 20.5958 30.8055 23.9398 30.8055C24.1636 30.8055 24.375 30.7879 24.5554 30.6384C24.7358 30.4889 24.7826 30.3686 24.5454 30.1899C22.0283 28.2904 19.518 26.3829 17.0144 24.4673C16.8273 24.3253 16.7229 24.347 16.5466 24.479C15.7838 25.0409 14.8606 25.3428 13.9131 25.3403C12.9656 25.3377 12.0441 25.0308 11.2843 24.4648C11.1172 24.3353 11.0103 24.3303 10.8391 24.4648C9.65296 25.3836 8.45682 26.2824 7.26402 27.1887C5.93842 28.196 4.61699 29.2092 3.28386 30.2057C3.06001 30.3728 3.10177 30.4814 3.27384 30.6309C3.46178 30.7929 3.68313 30.8096 3.91785 30.8096C7.2501 30.8057 10.5815 30.8044 13.9121 30.8055ZM24.8051 16.8377C24.7133 16.8143 24.6823 16.882 24.6381 16.9213C22.3917 19.0329 20.145 21.1434 17.8981 23.2528C17.7143 23.4248 17.7745 23.4933 17.9357 23.6153C20.1626 25.2998 22.3853 26.9851 24.6038 28.6713C24.664 28.7164 24.7141 28.8058 24.8051 28.764V16.8377ZM3.04497 16.7768V28.815C3.1544 28.7314 3.23792 28.6763 3.31894 28.6145C5.50574 26.9523 7.69392 25.2923 9.8835 23.6345C10.1157 23.4591 10.0823 23.3839 9.89603 23.211C8.00994 21.4485 6.12831 19.6808 4.25113 17.9077C3.86272 17.5385 3.47097 17.1718 3.04748 16.7768H3.04497Z" fill="white"/>
<path id="Vector_3" d="M21.9308 5.40644C23.4093 5.40644 24.8872 5.40644 26.3645 5.40644C26.8189 5.40644 27.082 5.62612 27.0971 5.99615C27.109 6.14295 27.0661 6.28896 26.9766 6.40593C26.8871 6.52289 26.7574 6.60249 26.6126 6.6293C26.49 6.65163 26.3655 6.66142 26.2409 6.65854C23.3686 6.65854 20.496 6.65854 17.6232 6.65854C17.5714 6.65854 17.5196 6.65854 17.4678 6.65854C17.0168 6.6435 16.7369 6.39292 16.7453 6.01203C16.7537 5.63113 17.0251 5.40644 17.4662 5.4056C18.9555 5.40393 20.444 5.40644 21.9308 5.40644Z" fill="white"/>
<path id="Vector_4" d="M21.9311 9.04399H26.2395C26.3439 9.04399 26.4483 9.04399 26.5519 9.05067C26.6929 9.06262 26.8252 9.12412 26.9252 9.22427C27.0252 9.32442 27.0864 9.45675 27.0982 9.59779C27.1163 9.73848 27.0844 9.88107 27.0081 10.0006C26.9318 10.1202 26.8158 10.2091 26.6805 10.2518C26.5504 10.2893 26.4147 10.3037 26.2796 10.2944H17.5675C17.4323 10.3035 17.2965 10.2885 17.1666 10.2502C17.0319 10.2058 16.9171 10.1156 16.842 9.99538C16.767 9.87514 16.7364 9.73239 16.7556 9.59194C16.769 9.45096 16.8319 9.31927 16.9331 9.2202C17.0343 9.12114 17.1673 9.06108 17.3086 9.05067C17.4113 9.04065 17.5157 9.04399 17.6201 9.04399H21.9311Z" fill="white"/>
</g>
</g>
<defs>
<clipPath id="clip0_1_1448">
<rect width="32" height="32" fill="white" transform="translate(0 0.5)"/>
</clipPath>
</defs>
</svg>
