<svg width="45" height="49" viewBox="0 0 45 49" fill="none" xmlns="http://www.w3.org/2000/svg">
<g id="Layer_1" clip-path="url(#clip0_1_1510)">
<path id="Vector" d="M23.9999 0.499557C24.476 0.693752 24.9897 0.677464 25.4845 0.765165C32.6597 2.03182 38.23 7.98045 39.0156 15.2321C39.4139 18.9411 38.5436 22.6756 36.5468 25.8264C34.55 28.9773 31.5444 31.3586 28.0204 32.5818C27.8249 32.6495 27.5117 32.642 27.4716 32.8587C27.4277 33.2144 27.4277 33.5742 27.4716 33.9299C27.4816 34.079 27.6432 34.0289 27.7435 34.0314C28.1031 34.0389 28.4626 34.0226 28.821 34.0427C29.0499 34.0479 29.2685 34.1391 29.4333 34.2981C29.5981 34.4571 29.697 34.6723 29.7105 34.9009C29.7289 35.1296 29.6599 35.3567 29.5173 35.5365C29.3748 35.7162 29.1693 35.8352 28.9425 35.8694C28.5549 35.9128 28.1644 35.925 27.7748 35.9057C27.5505 35.9057 27.4353 35.9383 27.4415 36.2051C27.4591 36.8917 27.4553 37.5833 27.4415 38.2674C27.4415 38.4841 27.4967 38.5505 27.7247 38.5668C28.3511 38.6106 28.6894 38.9514 28.6969 39.4839C28.6969 40.0364 28.3611 40.3772 27.7046 40.4248C27.4992 40.4411 27.439 40.4962 27.4428 40.6967C27.4528 41.2743 27.4503 41.8518 27.4428 42.4306C27.4339 42.5061 27.4507 42.5824 27.4905 42.6472C27.5303 42.712 27.5907 42.7615 27.6621 42.7877C28.0818 42.9995 28.2784 43.3553 28.1732 43.8301C28.068 44.3049 27.7084 44.5518 27.1709 44.5593C26.7953 44.5782 26.4189 44.5782 26.0433 44.5593C25.6975 44.5305 25.6311 44.6683 25.6399 44.9815C25.6612 45.7783 25.6537 46.5751 25.6399 47.372C25.6261 48.1688 25.2891 48.4996 24.4848 48.4996C23.1567 48.4996 21.8291 48.4996 20.5019 48.4996C19.7 48.4996 19.3618 48.1663 19.353 47.3645C19.3442 46.5626 19.3405 45.7357 19.353 44.9289C19.353 44.6457 19.2879 44.5405 18.9909 44.5593C18.5863 44.5856 18.1791 44.5731 17.7731 44.5593C17.272 44.548 16.9149 44.2774 16.8159 43.8263C16.7589 43.6277 16.776 43.4152 16.8641 43.2283C16.9521 43.0414 17.1051 42.8928 17.2945 42.8103C17.5338 42.6925 17.5551 42.5459 17.5451 42.3329C17.5363 41.9884 17.5451 41.6451 17.5451 41.3018C17.5389 40.857 17.708 40.3559 16.9187 40.3496C16.4915 40.3496 16.2546 39.8397 16.3022 39.3862C16.3461 38.9589 16.6781 38.5743 17.1342 38.5818C17.5614 38.5893 17.5602 38.3839 17.5526 38.0807C17.5389 37.4542 17.5401 36.8278 17.5526 36.2014C17.5526 35.9809 17.4937 35.8932 17.2632 35.9057C16.9525 35.922 16.6368 35.9182 16.3273 35.9057C15.7009 35.8844 15.2699 35.486 15.2824 34.9422C15.295 34.3985 15.6971 34.0489 16.3186 34.0314C16.4276 34.0314 16.5365 34.0314 16.6468 34.0314C17.6077 34.0314 17.6979 33.9061 17.5551 32.9414C17.5175 32.6908 17.3384 32.7046 17.1918 32.6545C13.7602 31.4843 10.9826 29.4309 8.884 26.4766C2.91908 18.0824 6.18407 6.18759 15.5969 1.98546C17.1489 1.28815 18.7954 0.82376 20.4831 0.607306C20.5933 0.593524 20.7437 0.648649 20.8051 0.488281L23.9999 0.499557ZM22.4539 34.0377C23.3597 34.0377 24.2655 34.0264 25.1713 34.0377C25.4683 34.0377 25.5986 33.9763 25.5747 33.6518C25.5472 33.2759 25.5747 32.9001 25.5747 32.5242C25.5747 31.4643 25.6662 31.3402 26.6685 31.0433C35.0766 28.5501 39.4478 19.4943 36.1427 11.4371C32.4029 2.33501 20.676 -0.562878 13.0899 5.74157C6.46722 11.2542 5.9285 21.0066 11.9147 27.1794C13.7109 29.0462 15.9777 30.3932 18.476 31.0784C19.2478 31.2939 19.4294 31.5369 19.4319 32.3425C19.4319 32.7648 19.4583 33.1882 19.4244 33.6079C19.3944 33.9763 19.5372 34.0502 19.8754 34.0414C20.7349 34.0214 21.5944 34.0377 22.4539 34.0377ZM22.4977 38.5605C23.4186 38.5605 24.3382 38.553 25.254 38.5605C25.5046 38.5605 25.576 38.4891 25.5698 38.2436C25.5547 37.5733 25.5572 36.903 25.5698 36.2327C25.5698 35.9972 25.5121 35.9032 25.2591 35.9044C23.4215 35.9136 21.5819 35.9136 19.7401 35.9044C19.4896 35.9044 19.4194 35.9871 19.4244 36.2277C19.437 36.898 19.4432 37.5695 19.4244 38.2385C19.4157 38.5317 19.5497 38.563 19.784 38.5605C20.6898 38.5543 21.5944 38.5605 22.4977 38.5605ZM22.4564 40.4398C21.5668 40.4398 20.6773 40.4524 19.7877 40.4336C19.4933 40.4336 19.4119 40.5175 19.4257 40.8094C19.4482 41.3381 19.4407 41.8706 19.4257 42.4006C19.4257 42.6136 19.4745 42.7038 19.7088 42.7038C21.5664 42.6946 23.424 42.6946 25.2816 42.7038C25.5109 42.7038 25.576 42.6261 25.5698 42.4056C25.5572 41.9044 25.5447 41.4033 25.5698 40.9021C25.5898 40.5501 25.5071 40.416 25.1187 40.4298C24.2367 40.4586 23.3459 40.4361 22.4564 40.4361V40.4398ZM22.6355 44.568C22.2208 44.568 21.8838 44.5781 21.5355 44.568C21.325 44.5593 21.221 44.6069 21.2285 44.8462C21.2419 45.3473 21.2419 45.8485 21.2285 46.3496C21.221 46.5777 21.3012 46.6453 21.523 46.639C21.9916 46.624 22.4601 46.639 22.9274 46.639C23.7681 46.639 23.7769 46.639 23.7644 45.7808C23.7644 45.3949 23.9348 44.8925 23.6917 44.6532C23.4487 44.4139 22.95 44.5981 22.6355 44.5643V44.568Z" fill="#292929"/>
<path id="Vector_2" d="M6.29437 26.7374C6.75418 26.7374 7.03984 26.9002 7.21399 27.231C7.38814 27.5617 7.39064 27.9138 7.14257 28.1957C6.80694 28.5842 6.44259 28.9469 6.05258 29.2807C5.88658 29.4152 5.67656 29.4834 5.46319 29.4721C5.24981 29.4608 5.04824 29.3707 4.89744 29.2193C4.58547 28.9361 4.46769 28.4676 4.69696 28.1155C5.04222 27.6155 5.47467 27.1818 5.97363 26.8351C6.0678 26.77 6.17991 26.7358 6.29437 26.7374Z" fill="#292929"/>
<path id="Vector_3" d="M38.6748 26.7361C38.8416 26.7281 39.0048 26.7856 39.1296 26.8964C39.5141 27.2371 39.8789 27.5993 40.2221 27.9814C40.3664 28.1593 40.4362 28.3862 40.4168 28.6144C40.3974 28.8427 40.2904 29.0545 40.1181 29.2055C39.9639 29.3645 39.7551 29.4592 39.5339 29.4706C39.3126 29.482 39.0952 29.4092 38.9254 29.2669C38.548 28.9411 38.1947 28.5885 37.868 28.212C37.6174 27.9326 37.6112 27.5855 37.779 27.2485C37.9469 26.9115 38.2263 26.7424 38.6748 26.7361Z" fill="#292929"/>
<path id="Vector_4" d="M42.664 17.8546C42.461 17.8546 42.258 17.8659 42.0563 17.8546C41.8198 17.852 41.5935 17.7577 41.4252 17.5915C41.2569 17.4253 41.1598 17.2003 41.1543 16.9638C41.141 16.7267 41.2206 16.4938 41.3761 16.3145C41.5316 16.1351 41.7509 16.0233 41.9874 16.0028C42.454 15.9665 42.9228 15.9665 43.3894 16.0028C43.6262 16.0195 43.8475 16.1266 44.0075 16.302C44.1675 16.4774 44.2539 16.7076 44.2488 16.945C44.2426 17.4549 43.8655 17.8308 43.3192 17.8596C43.1012 17.8721 42.882 17.8596 42.664 17.8596V17.8546Z" fill="#292929"/>
<path id="Vector_5" d="M2.26238 17.8545C2.05941 17.8545 1.85644 17.8658 1.65472 17.8545C1.41834 17.8498 1.19279 17.7545 1.02468 17.5883C0.856568 17.422 0.758749 17.1976 0.751408 16.9612C0.7386 16.7318 0.813563 16.5062 0.961086 16.33C1.10861 16.1539 1.31765 16.0405 1.54574 16.0128C2.05764 15.9656 2.57291 15.9686 3.08424 16.0216C3.31209 16.0529 3.51886 16.1715 3.66078 16.3525C3.80271 16.5335 3.86867 16.7626 3.84474 16.9913C3.83379 17.2188 3.73742 17.4339 3.57483 17.5934C3.41225 17.753 3.19543 17.8453 2.96773 17.852C2.73094 17.8671 2.49666 17.8533 2.26238 17.8545Z" fill="#292929"/>
<path id="Vector_6" d="M5.54992 4.40031C5.73812 4.39146 5.92278 4.45362 6.06734 4.57446C6.44966 4.9171 6.81154 5.28189 7.15109 5.66697C7.44426 6.01652 7.36657 6.53771 7.04207 6.85594C6.89607 7.01154 6.69834 7.10858 6.48593 7.12887C6.27352 7.14917 6.06101 7.09133 5.88818 6.96619C5.4536 6.636 5.06512 6.24919 4.73304 5.81605C4.63453 5.6824 4.57881 5.52204 4.57322 5.3561C4.56763 5.19016 4.61243 5.02641 4.70172 4.88643C4.78251 4.73336 4.90511 4.60639 5.05528 4.52033C5.20545 4.43427 5.377 4.39264 5.54992 4.40031Z" fill="#292929"/>
<path id="Vector_7" d="M38.6346 7.13753C38.2186 7.08867 37.9305 6.92955 37.7701 6.58752C37.6861 6.43574 37.6514 6.26162 37.6707 6.08925C37.69 5.91687 37.7624 5.75476 37.8779 5.62531C38.1978 5.26385 38.5396 4.92243 38.9015 4.60297C39.0647 4.46702 39.2704 4.39258 39.4828 4.39258C39.6952 4.39258 39.9009 4.46702 40.0641 4.60297C40.3961 4.87359 40.5377 5.32587 40.3222 5.69171C39.994 6.24548 39.5103 6.66895 38.9879 7.03855C38.8775 7.0937 38.7576 7.12729 38.6346 7.13753Z" fill="#292929"/>
<path id="Vector_8" d="M22.5314 6.30371C28.4036 6.20849 33.3324 11.1448 33.3061 17.0346C33.302 18.449 33.0188 19.8487 32.4727 21.1534C31.9266 22.4582 31.1285 23.6424 30.1239 24.6381C29.1193 25.6338 27.9282 26.4215 26.6186 26.956C25.3091 27.4905 23.9069 27.7613 22.4925 27.7529C21.0705 27.757 19.6618 27.4795 18.3477 26.9362C17.0335 26.393 15.84 25.5948 14.836 24.5878C13.832 23.5808 13.0374 22.3849 12.4982 21.0691C11.9589 19.7533 11.6856 18.3438 11.694 16.9218C11.7254 11.0859 16.6692 6.16339 22.5314 6.30371ZM26.5406 19.6067C26.5379 19.4264 26.4825 19.2508 26.3812 19.1017C26.2799 18.9525 26.1371 18.8362 25.9705 18.7673C25.7995 18.6851 25.6064 18.6605 25.4203 18.6973C25.2341 18.7341 25.065 18.8303 24.9381 18.9715C24.224 19.6718 23.5111 20.3735 22.8183 21.0951C22.5865 21.3382 22.4524 21.3795 22.1918 21.1089C21.5291 20.4035 20.835 19.7307 20.1434 19.0492C19.6786 18.5931 19.1286 18.5681 18.7339 18.9615C18.3393 19.3549 18.358 19.9124 18.8153 20.3722C19.7926 21.3603 20.7761 22.343 21.7659 23.3202C22.2407 23.7888 22.7393 23.7976 23.2104 23.3352C24.2252 22.3392 25.225 21.3306 26.2273 20.3208C26.3273 20.2309 26.4068 20.1207 26.4606 19.9975C26.5144 19.8744 26.5413 19.7411 26.5393 19.6067H26.5406Z" fill="#069AEE"/>
<path id="Vector_9" d="M26.5393 19.6067C26.5419 19.7407 26.5159 19.8738 26.4629 19.9969C26.41 20.1201 26.3314 20.2305 26.2324 20.3208C25.2301 21.3231 24.2278 22.3392 23.2155 23.3352C22.7444 23.7976 22.2457 23.7888 21.7709 23.3202C20.7795 22.3455 19.7959 21.3628 18.8204 20.3722C18.3656 19.9124 18.3443 19.3536 18.739 18.9615C19.1336 18.5693 19.6836 18.5931 20.1484 19.0492C20.84 19.727 21.5341 20.4035 22.1969 21.1089C22.4474 21.3795 22.5853 21.3382 22.8233 21.0951C23.5161 20.3735 24.229 19.6719 24.9432 18.9715C25.07 18.8304 25.2392 18.7342 25.4253 18.6973C25.6114 18.6605 25.8045 18.6851 25.9755 18.7673C26.141 18.8372 26.2824 18.9539 26.3825 19.103C26.4827 19.2521 26.5372 19.4271 26.5393 19.6067Z" fill="white"/>
</g>
<defs>
<clipPath id="clip0_1_1510">
<rect width="43.4972" height="48" fill="white" transform="translate(0.751465 0.5)"/>
</clipPath>
</defs>
</svg>
