<svg width="49" height="49" viewBox="0 0 49 49" fill="none" xmlns="http://www.w3.org/2000/svg">
<g id="Layer_1" clip-path="url(#clip0_1_1537)">
<path id="Vector" d="M3.49818 0.499852C3.98679 0.75042 4.26241 1.21898 4.60694 1.61363C4.95147 2.00827 5.29599 2.42296 5.63176 2.83264C6.03893 3.33377 6.06149 3.84493 5.70192 4.22078C5.31479 4.6242 4.84999 4.60415 4.29373 4.15939C4.25344 4.14402 4.21133 4.13392 4.16845 4.12932V4.58536C4.16845 17.8195 4.16468 31.0532 4.15716 44.2866C4.15716 44.7388 4.26116 44.8629 4.71594 44.8453C5.68313 44.8065 6.65407 44.814 7.62126 44.8453C7.99711 44.8566 8.07981 44.7363 8.07981 44.3768C8.06728 39.19 8.06436 34.0028 8.07104 28.8153C8.07104 28.6586 8.07104 28.502 8.07104 28.3467C8.09861 27.7917 8.45942 27.4171 8.97183 27.4046C9.48424 27.392 9.87388 27.7528 9.93401 28.2966C9.94571 28.4521 9.94863 28.6081 9.94278 28.7639C9.94278 33.9523 9.94028 39.1395 9.93527 44.3254C9.93527 44.7138 9.9929 44.8766 10.4364 44.8478C11.1073 44.8084 11.78 44.8084 12.451 44.8478C12.8143 44.8654 12.8807 44.7476 12.8807 44.4068C12.8698 39.1892 12.8669 33.969 12.8719 28.7463C12.8719 28.5897 12.8644 28.4331 12.8719 28.2778C12.8853 28.0411 12.9886 27.8185 13.1607 27.6555C13.3328 27.4925 13.5607 27.4014 13.7978 27.4008C14.0344 27.3973 14.2633 27.4846 14.4376 27.6447C14.6119 27.8047 14.7183 28.0254 14.7349 28.2615C14.7499 28.4156 14.7411 28.5735 14.7411 28.7301C14.7411 33.9331 14.7412 39.1286 14.7299 44.3379C14.7299 44.7589 14.8376 44.8629 15.2435 44.8391C15.9126 44.8027 16.5866 44.8127 17.2581 44.8391C17.5813 44.8516 17.6803 44.7651 17.6765 44.4306C17.6565 42.9786 17.6678 41.5253 17.6678 40.072C17.6678 35.3538 17.6678 30.6348 17.6678 25.9149C17.6519 25.6969 17.6688 25.4777 17.7179 25.2647C17.7778 25.0517 17.9115 24.8669 18.0951 24.7434C18.2787 24.6199 18.5003 24.5658 18.7202 24.5907C18.9317 24.6117 19.1292 24.7065 19.278 24.8583C19.4269 25.0101 19.5176 25.2094 19.5345 25.4213C19.5508 25.5917 19.5458 25.7646 19.5458 25.9362C19.5458 32.0601 19.5424 38.1844 19.5358 44.3091C19.5358 44.7463 19.6535 44.8629 20.0757 44.8403C20.761 44.8052 21.4539 44.8153 22.1379 44.8403C22.4348 44.8503 22.525 44.7489 22.4987 44.4645C22.4774 44.2314 22.4987 43.9959 22.4987 43.7616V21.307C22.4987 21.1504 22.4987 20.995 22.4987 20.8384C22.5301 20.2822 22.8909 19.9088 23.4008 19.8975C23.9107 19.8863 24.2991 20.2433 24.3592 20.7908C24.373 20.9621 24.3767 21.134 24.3705 21.3057C24.3705 28.9773 24.3675 36.6488 24.3617 44.3204C24.3617 44.7138 24.4281 44.8679 24.8628 44.8403C25.5338 44.8021 26.2064 44.8021 26.8774 44.8403C27.2407 44.8578 27.3084 44.7388 27.3084 44.3981C27.2975 39.2581 27.295 34.1177 27.3009 28.9769C27.3009 26.3041 27.3009 23.6314 27.3009 20.9587C27.3009 20.2458 27.802 19.7773 28.4146 19.9126C28.6169 19.9495 28.801 20.0534 28.9373 20.2074C29.0736 20.3614 29.1542 20.5567 29.1663 20.762C29.1789 20.9175 29.1814 21.0735 29.1738 21.2293C29.1738 28.9318 29.1705 36.6346 29.1638 44.3379C29.1638 44.7639 29.2778 44.8591 29.6787 44.8391C30.334 44.8059 30.9905 44.8059 31.6457 44.8391C32.0215 44.8578 32.108 44.7451 32.1067 44.3793C32.093 40.3952 32.098 36.4112 32.098 32.4259C32.0807 32.2078 32.1032 31.9883 32.1644 31.7782C32.2329 31.5772 32.368 31.4056 32.5473 31.2917C32.7265 31.1778 32.9393 31.1285 33.1504 31.1518C33.3617 31.1742 33.5587 31.2697 33.7071 31.4218C33.8556 31.5739 33.9462 31.7731 33.9634 31.9849C33.9797 32.1553 33.9735 32.3282 33.9735 32.4999C33.9735 36.4538 33.9735 40.4065 33.9647 44.3592C33.9647 44.7576 34.0762 44.8604 34.4583 44.8378C35.1134 44.7996 35.7702 44.7996 36.4253 44.8378C36.8675 44.8679 36.9264 44.7 36.9264 44.3116C36.9114 41.3123 36.9176 38.313 36.9189 35.3125C36.9139 35.1251 36.9214 34.9376 36.9414 34.7512C36.9691 34.5335 37.075 34.3333 37.2393 34.1878C37.4037 34.0424 37.6153 33.9616 37.8347 33.9607C38.0553 33.9531 38.2709 34.0265 38.441 34.1671C38.6111 34.3077 38.7239 34.5056 38.7581 34.7236C38.7857 34.9085 38.797 35.0955 38.7919 35.2824C38.7919 38.3143 38.8007 41.3449 38.7919 44.3755C38.7919 44.7451 38.8859 44.8553 39.2554 44.8378C39.9265 44.8033 40.5989 44.8033 41.27 44.8378C41.6809 44.8604 41.7461 44.7125 41.7436 44.3367C41.7285 41.291 41.7348 38.2441 41.7361 35.1972C41.7234 35.0257 41.7309 34.8533 41.7586 34.6835C41.7959 34.4896 41.8964 34.3134 42.0444 34.1826C42.1924 34.0518 42.3796 33.9737 42.5767 33.9607C42.7801 33.9386 42.9851 33.9852 43.159 34.093C43.3329 34.2008 43.4657 34.3637 43.5364 34.5558C43.6039 34.7642 43.629 34.984 43.6103 35.2022C43.6103 38.2491 43.6178 41.2948 43.6015 44.3479C43.6015 44.7238 43.6704 44.8929 44.0776 44.8378C44.3607 44.8173 44.6449 44.8148 44.9283 44.8303C44.803 44.6787 44.7141 44.5935 44.6464 44.497C44.5215 44.3245 44.4612 44.1135 44.4761 43.9009C44.491 43.6884 44.5801 43.4879 44.7278 43.3344C45.0198 43.0187 45.5372 42.9047 45.8779 43.1728C46.6885 43.808 47.4866 44.4632 48.2433 45.161C48.653 45.5369 48.564 46.1119 48.0992 46.5166C47.431 47.1013 46.7499 47.6746 46.0558 48.2368C45.6123 48.5988 45.1112 48.575 44.7479 48.2079C44.3846 47.8409 44.3795 47.3548 44.7479 46.9062C44.783 46.8649 44.8669 46.8636 44.9596 46.8336C44.8898 46.7783 44.809 46.7385 44.7226 46.7169C44.6362 46.6953 44.5461 46.6923 44.4585 46.7083C31.1951 46.7083 17.9313 46.7037 4.66708 46.6945C4.25113 46.6945 4.09202 46.796 4.16594 47.2057C4.17221 47.2682 4.17221 47.3311 4.16594 47.3936C4.15717 48.0814 3.80011 48.4973 3.22506 48.4911C2.65 48.4848 2.30047 48.0501 2.29044 47.3735C2.28607 47.3269 2.28607 47.2799 2.29044 47.2332C2.35685 46.8261 2.22529 46.6306 1.77802 46.702C1.20422 46.7922 0.789534 46.5367 0.495117 46.0556V45.493C0.76573 44.9844 1.18043 44.7413 1.75799 44.8315C2.16767 44.8917 2.30046 44.7614 2.30046 44.3166C2.28626 31.0691 2.28251 17.822 2.28919 4.57534V4.09299C1.4999 4.70814 1.08395 4.64299 0.495117 3.86999V3.30746C1.2606 2.329 1.98601 1.3167 2.93315 0.496094L3.49818 0.499852Z" fill="#292929"/>
<path id="Vector_2" d="M25.7659 16.44C23.1663 16.4562 20.9413 14.3001 20.9375 11.5263C20.9375 8.89536 23.2064 6.66656 25.8674 6.69162C28.5648 6.71793 30.7334 8.97805 30.7046 11.6554C30.6771 14.2061 28.4583 16.5652 25.7659 16.44Z" fill="#069AEE"/>
<path id="Vector_3" d="M39.368 30.5018C36.7972 30.5895 34.4819 28.283 34.5145 25.6258C34.5533 22.9434 36.7145 20.751 39.4006 20.751C40.0443 20.7534 40.6812 20.8828 41.2748 21.1317C41.8685 21.3806 42.4072 21.7441 42.8603 22.2014C43.3133 22.6587 43.6716 23.2009 43.9149 23.7969C44.1582 24.3928 44.2815 25.0309 44.2779 25.6746C44.2603 28.3231 42.0215 30.6096 39.368 30.5018Z" fill="#069AEE"/>
<path id="Vector_4" d="M7.42841 18.9655C7.30313 16.3621 9.61085 14.0481 12.307 14.0794C14.879 14.1107 17.1642 16.1103 17.1592 18.9755C17.1587 19.6161 17.0318 20.2502 16.7859 20.8417C16.5399 21.4332 16.1797 21.9703 15.7258 22.4223C15.2719 22.8743 14.7333 23.2324 14.1408 23.4759C13.5484 23.7194 12.9137 23.8437 12.2731 23.8415C9.54069 23.8653 7.28434 21.4574 7.42841 18.9655Z" fill="#069AEE"/>
</g>
<defs>
<clipPath id="clip0_1_1537">
<rect width="48.005" height="48" fill="white" transform="translate(0.497559 0.5)"/>
</clipPath>
</defs>
</svg>
