<svg width="47" height="49" viewBox="0 0 47 49" fill="none" xmlns="http://www.w3.org/2000/svg">
<g id="Layer_1" clip-path="url(#clip0_1_1522)">
<path id="Vector" d="M27.6263 0.5C27.6263 1.65497 27.6363 2.81118 27.6263 3.9674C27.6263 4.26554 27.709 4.39457 28.0259 4.46847C30.588 5.0422 33.015 6.10559 35.1736 7.60016C36.3903 8.44408 37.5096 9.42047 38.5108 10.5114C38.7613 10.7857 38.958 10.8033 39.2624 10.6166C40.0854 10.1155 40.9259 9.63451 41.754 9.13594C42.0446 8.96182 42.2212 8.9017 42.4392 9.28877C43.6555 11.4471 44.9069 13.5867 46.1559 15.7263C46.3225 16.0131 46.2623 16.1635 45.9855 16.3188C45.0748 16.8311 44.1804 17.3698 43.2697 17.8809C43.048 18.0061 43.0066 18.1189 43.0843 18.3606C43.8269 20.6788 44.141 23.1128 44.0113 25.5435C43.9364 27.2385 43.6343 28.9158 43.1131 30.5304C43.0154 30.8273 43.0279 30.9851 43.3398 31.1567C44.2443 31.6453 45.1174 32.1889 46.0131 32.6937C46.2849 32.8466 46.3087 33.0019 46.1609 33.2562C44.9082 35.412 43.6555 37.5667 42.4204 39.735C42.2337 40.0645 42.0834 40.0532 41.8078 39.8853C40.981 39.3843 40.138 38.912 39.3137 38.4085C38.9931 38.2118 38.7764 38.1917 38.487 38.5062C36.7301 40.4166 34.6186 41.9674 32.27 43.0722C30.9167 43.7119 29.4961 44.198 28.0347 44.5215C27.6939 44.5979 27.6175 44.7482 27.6225 45.0614C27.6376 46.0635 27.6225 47.0657 27.6338 48.0603C27.6338 48.3672 27.5724 48.5038 27.2254 48.5025C24.741 48.4891 22.2573 48.4891 19.7745 48.5025C19.4288 48.5025 19.3611 48.3685 19.3649 48.0616C19.3799 47.1083 19.3411 46.1537 19.3837 45.203C19.405 44.7244 19.2258 44.5616 18.7862 44.4651C16.3322 43.9115 14.0068 42.8935 11.9353 41.4662C10.6704 40.6069 9.50974 39.6035 8.47664 38.4761C8.2499 38.2256 8.08454 38.1817 7.77387 38.3746C6.91579 38.9108 6.02014 39.3931 5.15078 39.9079C4.90776 40.0507 4.76748 40.0632 4.60338 39.7751C3.36072 37.5955 2.10595 35.4242 0.839081 33.2612C0.690012 33.0107 0.713805 32.8528 0.986888 32.7C1.88255 32.1989 2.75943 31.6565 3.65885 31.1592C3.92693 31.0114 3.99832 30.8824 3.90187 30.5805C3.45585 29.1403 3.17018 27.6552 3.05004 26.1523C2.82495 23.5415 3.11524 20.912 3.90437 18.4133C3.98955 18.1377 3.94822 18.0074 3.69017 17.8633C2.77822 17.356 1.88755 16.8098 0.978111 16.2962C0.727576 16.1559 0.681228 16.0194 0.82278 15.7764C2.098 13.5775 3.36782 11.377 4.63218 9.17477C4.80756 8.86787 4.9679 8.99313 5.15956 9.10337C6.03643 9.60444 6.92332 10.1055 7.79017 10.6329C8.07203 10.8058 8.23238 10.7932 8.45786 10.5515C9.71609 9.18547 11.1554 7.99819 12.7357 7.02268C14.5903 5.86601 16.6258 5.02847 18.7573 4.54488C19.2434 4.43715 19.4112 4.25051 19.3837 3.73942C19.3386 2.66337 19.3724 1.58482 19.3749 0.507516L27.6263 0.5ZM23.5075 9.50297C15.1897 9.59317 8.57183 16.1422 8.52924 24.4098C8.50933 26.3836 8.88162 28.3417 9.6245 30.1705C10.3674 31.9992 11.4661 33.6623 12.8568 35.063C14.2476 36.4638 15.9026 37.5744 17.726 38.3304C19.5494 39.0864 21.5048 39.4727 23.4787 39.467C25.4486 39.4796 27.4015 39.1016 29.2244 38.3548C31.0474 37.6081 32.7042 36.5075 34.0993 35.1166C35.4943 33.7256 36.5997 32.072 37.3518 30.2512C38.1038 28.4305 38.4875 26.4787 38.4807 24.5088C38.4807 16.176 31.8328 9.5869 23.5075 9.50297Z" fill="#069AEE"/>
<path id="Vector_2" d="M15.2575 22.1091C15.82 20.3629 16.7444 18.9699 18.0898 17.8563C21.9731 14.6394 27.9221 15.5526 30.6692 19.7929C31.0287 20.3479 30.9686 20.8702 30.5076 21.1972C30.0466 21.5241 29.4979 21.3913 29.1108 20.8339C27.5788 18.6355 25.4693 17.5769 22.8074 17.8575C20.2043 18.1256 18.388 19.5662 17.3194 21.95C17.2919 22.0114 17.2305 22.0828 17.2956 22.1743C17.4998 22.1743 17.6075 22.0039 17.7541 21.9087C18.2439 21.5905 18.7637 21.6507 19.0882 22.0741C19.4126 22.4975 19.3462 23.0436 18.8915 23.3969C18.0898 24.0165 17.2785 24.6241 16.4576 25.2195C15.9678 25.574 15.468 25.5039 15.0972 25.0254C14.4767 24.2236 13.87 23.4119 13.277 22.5902C13.1984 22.4923 13.1406 22.3795 13.1072 22.2586C13.0737 22.1376 13.0652 22.0111 13.0823 21.8868C13.0995 21.7625 13.1418 21.643 13.2067 21.5356C13.2717 21.4282 13.3578 21.3352 13.4599 21.2623C13.8708 20.9604 14.427 21.0531 14.7853 21.4916C14.9331 21.6707 15.0684 21.8611 15.2575 22.1091Z" fill="#292929"/>
<path id="Vector_3" d="M29.6784 26.7872C29.4993 26.9125 29.3276 27.0377 29.1397 27.1492C28.9389 27.2747 28.6973 27.3175 28.4657 27.2687C28.234 27.2199 28.0302 27.0832 27.8971 26.8874C27.7557 26.7055 27.6915 26.4753 27.7185 26.2466C27.7455 26.0178 27.8614 25.8088 28.0411 25.6648C28.8988 24.9883 29.7728 24.3328 30.663 23.6981C31.0626 23.415 31.5562 23.5177 31.8731 23.9261C32.5144 24.7512 33.1408 25.5888 33.7521 26.4389C33.8244 26.5366 33.8765 26.6477 33.9054 26.7657C33.9344 26.8837 33.9394 27.0063 33.9204 27.1263C33.9014 27.2463 33.8587 27.3613 33.7947 27.4646C33.7308 27.5679 33.6469 27.6574 33.5479 27.7279C33.3482 27.8689 33.1019 27.9276 32.8601 27.8919C32.6182 27.8562 32.3994 27.7289 32.2489 27.5363C32.0885 27.3484 31.947 27.1429 31.7917 26.9388C31.6213 27.064 31.6301 27.2532 31.5687 27.4048C30.2872 30.6016 27.9597 32.5708 24.5437 32.9842C21.1276 33.3976 18.3517 32.0785 16.3574 29.2261C16.1933 28.9906 16.0593 28.7439 16.1069 28.4445C16.1272 28.2647 16.2006 28.0951 16.3178 27.9572C16.4349 27.8193 16.5904 27.7194 16.7646 27.6703C16.9431 27.6075 17.1373 27.6042 17.3179 27.6609C17.4986 27.7176 17.656 27.8312 17.7667 27.9847C18.0335 28.3104 18.259 28.67 18.5384 28.9869C21.7565 32.6009 27.7555 31.6062 29.6446 27.1505C29.6859 27.054 29.716 26.9538 29.751 26.8548L29.6784 26.7872Z" fill="#292929"/>
</g>
<defs>
<clipPath id="clip0_1_1522">
<rect width="45.5072" height="48" fill="white" transform="translate(0.746582 0.5)"/>
</clipPath>
</defs>
</svg>
