<svg width="50" height="53" viewBox="0 0 50 53" fill="none" xmlns="http://www.w3.org/2000/svg">
<g id="Layer_1" clip-path="url(#clip0_1649_976)">
<g id="Group">
<g id="Vector">
<path d="M45.8777 20.1765V15.941C45.8777 14.8481 44.9759 13.9639 43.8658 13.9639H43.2912C42.8238 13.9639 42.4031 13.673 42.259 13.2347C42.0117 12.4806 41.702 11.7533 41.3378 11.0586C41.1275 10.6567 41.2131 10.1667 41.5384 9.84709L41.9571 9.4356C42.742 8.66238 42.742 7.41068 41.9571 6.63938L39.4136 4.13981C38.6287 3.36659 37.353 3.36659 36.5681 4.13981L36.1493 4.5513C35.8241 4.87092 35.3255 4.95514 34.9165 4.74843C34.2095 4.39053 33.4694 4.08813 32.7021 3.84315C32.2561 3.70152 31.96 3.28812 31.96 2.82878V2.26418C31.96 1.17134 31.0583 0.287109 29.9482 0.287109H26.349C25.2369 0.287109 24.3371 1.17325 24.3371 2.26418V2.82878C24.3371 3.28812 24.041 3.70152 23.595 3.84315C22.8277 4.08622 22.0876 4.39053 21.3806 4.74843C20.9716 4.95514 20.473 4.87092 20.1478 4.5513L19.729 4.13981C18.9422 3.3685 17.6685 3.3685 16.8836 4.13981L14.34 6.63938C13.5551 7.41068 13.5551 8.66429 14.34 9.4356L14.7587 9.84709C15.084 10.1667 15.1697 10.6567 14.9593 11.0586C14.5951 11.7533 14.2874 12.4806 14.0381 13.2347C13.894 13.673 13.4733 13.9639 13.0059 13.9639H12.4313C11.3192 13.9639 10.4194 14.8501 10.4194 15.941V20.1765" fill="#069AEE"/>
<path d="M45.8777 20.1765V15.941C45.8777 14.8481 44.9759 13.9639 43.8658 13.9639H43.2912C42.8238 13.9639 42.4031 13.673 42.259 13.2347C42.0117 12.4806 41.702 11.7533 41.3378 11.0586C41.1275 10.6567 41.2131 10.1667 41.5384 9.84709L41.9571 9.4356C42.742 8.66238 42.742 7.41068 41.9571 6.63938L39.4136 4.13981C38.6287 3.36659 37.353 3.36659 36.5681 4.13981L36.1493 4.5513C35.8241 4.87092 35.3255 4.95514 34.9165 4.74843C34.2095 4.39053 33.4694 4.08813 32.7021 3.84315C32.2561 3.70152 31.96 3.28812 31.96 2.82878V2.26418C31.96 1.17134 31.0583 0.287109 29.9482 0.287109H26.349C25.2369 0.287109 24.3371 1.17325 24.3371 2.26418V2.82878C24.3371 3.28812 24.041 3.70152 23.595 3.84315C22.8277 4.08622 22.0876 4.39053 21.3806 4.74843C20.9716 4.95514 20.473 4.87092 20.1478 4.5513L19.729 4.13981C18.9422 3.3685 17.6685 3.3685 16.8836 4.13981L14.34 6.63938C13.5551 7.41068 13.5551 8.66429 14.34 9.4356L14.7587 9.84709C15.084 10.1667 15.1697 10.6567 14.9593 11.0586C14.5951 11.7533 14.2874 12.4806 14.0381 13.2347C13.894 13.673 13.4733 13.9639 13.0059 13.9639H12.4313C11.3192 13.9639 10.4194 14.8501 10.4194 15.941V20.1765" stroke="#447CBF" stroke-width="0.5534" stroke-linecap="round" stroke-linejoin="round"/>
</g>
<g id="Vector_2">
<path d="M21.4585 16.6875C21.4585 13.0568 24.4539 10.1113 28.1505 10.1113C31.8471 10.1113 34.8425 13.0549 34.8425 16.6875" fill="#069AEE"/>
<path d="M21.4585 16.6875C21.4585 13.0568 24.4539 10.1113 28.1505 10.1113C31.8471 10.1113 34.8425 13.0549 34.8425 16.6875" stroke="#447CBF" stroke-width="0.5534" stroke-linecap="round" stroke-linejoin="round"/>
</g>
</g>
<g id="Group_2">
<path id="Vector_3" d="M41.6766 52.5218C41.9571 37.8919 50.7953 36.9349 48.688 20.1748H5.54449C5.54449 20.1748 4.27854 21.1432 6.08787 22.6418C7.67712 23.9567 2.52374 29.7501 1.24416 31.1415C1.01434 31.3903 0.920854 31.7444 1.03771 32.0602C1.21494 32.5367 1.72327 33.2219 3.1275 33.8593C5.62434 34.9923 4.68559 39.2488 4.68559 39.2488C4.68559 39.2488 7.05194 41.1072 6.47545 43.6355C5.89895 46.1657 5.10433 50.4816 12.8305 49.7868C12.8305 49.7868 18.8856 49.3677 24.9622 46.9045" stroke="black" stroke-width="0.922334" stroke-linecap="round" stroke-linejoin="round"/>
<path id="Vector_4" d="M18.2645 52.5219L17.8789 49.2529" stroke="black" stroke-width="0.922334" stroke-linecap="round" stroke-linejoin="round"/>
</g>
<path id="Ellipse 223" d="M34.329 16.5C34.329 20.5 34.5643 19.446 27.8293 19.5C21.065 19.5542 21.8293 20.5 21.829 16.5C21.8287 13.3356 24.9099 10.1855 28.0937 10.1855C31.2774 10.1855 34.329 13.3356 34.329 16.5Z" fill="#FBFBFB"/>
</g>
<defs>
<clipPath id="clip0_1649_976">
<rect width="49" height="53" fill="white" transform="translate(0.5)"/>
</clipPath>
</defs>
</svg>
