<svg width="57" height="49" viewBox="0 0 57 49" fill="none" xmlns="http://www.w3.org/2000/svg">
<g id="Layer_1" clip-path="url(#clip0_1_1544)">
<path id="Vector" d="M56.1456 28.7315C55.8569 29.3088 55.3979 29.5542 54.7484 29.5036C54.2837 29.4676 53.8132 29.4964 53.3455 29.4964C52.6239 29.4964 52.6109 29.4964 52.6239 30.195C52.6624 31.264 52.3491 32.3161 51.7319 33.1899C50.7418 34.5725 49.3736 35.2725 47.6907 35.2942C45.6758 35.3202 43.6605 35.3202 41.6447 35.2942C38.8692 35.2567 36.7576 33.1105 36.7216 30.335C36.7122 30.1552 36.7122 29.975 36.7216 29.7952C36.7418 29.5556 36.6451 29.4907 36.4127 29.4921C35.1354 29.5008 33.8595 29.4921 32.5244 29.4921C32.8232 30.8964 33.1104 32.2618 33.4034 33.6272C33.8595 35.7517 34.3329 37.8719 34.7688 40.0008C34.8539 40.4208 35.0185 40.5262 35.4356 40.5247C36.5123 40.5247 37.6005 40.428 38.6686 40.594C40.5348 40.8827 42.0777 42.5223 42.235 44.3986C42.2667 44.7926 42.2696 45.1895 42.2725 45.585C42.2725 46.3297 42.2725 46.3297 42.9942 46.334C43.1203 46.3299 43.2466 46.3338 43.3723 46.3456C43.6434 46.3756 43.8937 46.5051 44.0747 46.7091C44.2558 46.9131 44.3547 47.177 44.3523 47.4497C44.3403 47.7218 44.2268 47.9796 44.0342 48.1722C43.8416 48.3648 43.5838 48.4783 43.3117 48.4903C43.1674 48.5004 43.023 48.4903 42.8787 48.4903H14.0501C13.1841 48.4903 12.6617 48.0905 12.6588 47.4165C12.6559 46.7425 13.1841 46.334 14.0472 46.3297C14.7386 46.3297 14.7386 46.3297 14.7386 45.608C14.7386 44.8864 14.727 44.2052 14.9536 43.5254C15.2398 42.6569 15.7903 41.8997 16.5281 41.3596C17.266 40.8195 18.1542 40.5235 19.0685 40.5132C19.9691 40.4944 20.8683 40.4987 21.7689 40.5132C22.0316 40.5132 22.1413 40.4367 22.2019 40.1769C22.9351 36.7351 23.676 33.2947 24.4246 29.8558C24.5025 29.5022 24.3712 29.4791 24.0869 29.482C22.9885 29.495 21.8902 29.508 20.7932 29.482C20.3906 29.4705 20.2722 29.5729 20.291 29.9828C20.3617 31.4088 19.9446 32.6789 18.9545 33.7354C18.4885 34.2388 17.9214 34.638 17.2904 34.9068C16.6593 35.1757 15.9786 35.3082 15.2928 35.2956C13.3482 35.3072 11.4045 35.3072 9.46185 35.2956C6.54204 35.2826 4.43915 33.1927 4.39296 30.27C4.38142 29.4935 4.38141 29.4936 3.58038 29.4936C3.04058 29.4936 2.50079 29.5037 1.961 29.4936C1.33171 29.4762 0.887166 29.0461 0.866959 28.4601C0.86081 28.1783 0.963871 27.9049 1.15458 27.6973C1.34529 27.4896 1.6089 27.3637 1.89028 27.3459C2.05214 27.3343 2.2145 27.3315 2.37667 27.3373C19.7926 27.3373 37.2118 27.3339 54.6344 27.3271C55.3027 27.3271 55.8237 27.4845 56.1585 28.0849L56.1456 28.7315ZM28.499 46.3398H38.9183C40.1104 46.3398 40.1104 46.3398 40.1018 45.1375C40.0902 43.5499 39.2156 42.6839 37.6207 42.6839H27.2564C24.5939 42.6839 21.9306 42.6839 19.2662 42.6839C17.8229 42.6839 16.9209 43.5802 16.8963 45.0351C16.9084 45.2866 16.9059 45.5386 16.8891 45.7899C16.8314 46.2229 16.9699 46.3586 17.4332 46.3557C21.1223 46.3283 24.81 46.3384 28.499 46.3384V46.3398ZM28.5077 40.5175C29.7316 40.5175 30.9541 40.4915 32.1766 40.5305C32.65 40.5449 32.6688 40.3703 32.5749 40.008C32.4624 39.575 32.3758 39.1334 32.2863 38.6946C31.6584 35.7835 31.0263 32.8723 30.41 29.9568C30.332 29.5845 30.1906 29.469 29.811 29.4878C29.0894 29.5224 28.3677 29.4979 27.6547 29.4979C26.7137 29.4979 26.7065 29.4979 26.5102 30.3999C25.8116 33.6084 25.1246 36.8198 24.4159 40.0268C24.3221 40.4468 24.426 40.5377 24.8417 40.5276C26.0627 40.4987 27.2852 40.5161 28.5077 40.5161V40.5175ZM12.3571 29.4979C10.5588 29.4979 8.76041 29.4979 6.96205 29.4979C6.78886 29.4979 6.58246 29.4084 6.52906 29.7389C6.25772 31.6152 7.53937 33.1278 9.44453 33.1365C11.279 33.1437 13.112 33.1365 14.9464 33.1365C17.0349 33.1365 18.1361 32.015 18.1318 29.9395C18.1318 29.534 17.9875 29.482 17.6367 29.4863C15.8802 29.5051 14.118 29.4964 12.3571 29.4964V29.4979ZM44.6872 29.4979C42.8888 29.4979 41.0904 29.4979 39.2921 29.4979C39.1275 29.4979 38.9082 29.3867 38.8591 29.7259C38.5834 31.5835 39.8853 33.1249 41.7731 33.135C43.6249 33.1437 45.4781 33.135 47.3298 33.135C49.3606 33.135 50.4474 32.0294 50.4633 30.003C50.4633 29.5614 50.3189 29.4777 49.9206 29.482C48.18 29.508 46.4364 29.4964 44.6929 29.4964L44.6872 29.4979Z" fill="#292929"/>
<path id="Vector_2" d="M47.9896 15.3037C48.3273 15.6169 48.7762 15.7237 49.1644 15.9445C51.9313 17.5163 53.5478 19.853 53.8826 23.0369C53.9793 23.9635 53.9605 23.9664 53.0051 23.9664C47.5018 23.9664 41.997 23.9664 36.4937 23.9765C35.9928 23.9765 35.7908 23.8798 35.8312 23.3343C36.0174 20.7608 37.1201 18.6666 39.0454 16.9765C39.8667 16.2549 40.851 15.8219 41.8021 15.3297C43.8675 16.1351 45.9242 16.1524 47.9896 15.3037Z" fill="#069AEE"/>
<path id="Vector_3" d="M15.1946 15.3296C15.8903 15.7323 16.6552 16.0022 17.3105 16.4843C19.6386 18.2047 20.9678 20.4736 21.1641 23.3847C21.1944 23.8177 21.0804 23.975 20.6128 23.9736C14.9464 23.9577 9.28139 23.9635 3.61498 23.9621C3.01456 23.9621 3.01457 23.9043 3.06509 23.2996C3.1671 21.8071 3.63825 20.3634 4.43623 19.0981C5.38374 17.5986 6.74874 16.4087 8.36345 15.6746C8.58716 15.5707 8.84551 15.5158 9.00716 15.3008C11.0653 16.1523 13.1278 16.135 15.1946 15.3296Z" fill="#069AEE"/>
<path id="Vector_4" d="M15.1945 15.3296C13.1277 16.1349 11.0652 16.1523 9.00705 15.3036C6.69776 14.1692 5.17075 12.3997 4.59198 9.86234C3.65095 5.74026 6.34271 1.60086 10.5586 0.687246C14.6157 -0.19317 18.8042 2.5289 19.6428 6.59036C20.3745 10.1351 18.7104 13.5543 15.4687 15.1694C15.3749 15.217 15.2854 15.2762 15.1945 15.3296ZM12.1246 13.7766C13.589 13.7698 14.9918 13.1862 16.029 12.1523C17.0661 11.1184 17.6541 9.71746 17.6654 8.25305C17.6639 6.77993 17.0776 5.36767 16.0354 4.32656C14.9933 3.28545 13.5804 2.70066 12.1073 2.70066C10.6439 2.70483 9.24158 3.28708 8.20564 4.32059C7.1697 5.3541 6.58414 6.75511 6.57653 8.21841C6.57577 8.94768 6.71867 9.66996 6.9971 10.344C7.27552 11.018 7.684 11.6306 8.1992 12.1467C8.71441 12.6629 9.32625 13.0725 9.99978 13.3521C10.6733 13.6318 11.3953 13.776 12.1246 13.7766Z" fill="#292929"/>
<path id="Vector_5" d="M47.9893 15.3045C45.9297 16.1531 43.8672 16.1358 41.8019 15.3304C39.8577 14.3721 38.3769 12.9634 37.6596 10.8822C36.6363 7.92051 37.1631 5.21287 39.3194 2.944C41.4757 0.675123 44.2165 -0.0436431 47.2114 0.914712C50.2062 1.87307 51.9959 4.01204 52.4838 7.13246C53.0005 10.4333 51.3017 13.6273 48.3184 15.1255C48.2073 15.1847 48.099 15.2467 47.9893 15.3045ZM44.8761 13.7774C45.6056 13.7767 46.3277 13.6322 47.0013 13.3521C47.6748 13.0721 48.2866 12.6621 48.8016 12.1455C49.3166 11.6289 49.7247 11.0158 50.0026 10.3414C50.2805 9.66698 50.4228 8.94439 50.4213 8.21494C50.4122 6.75151 49.8252 5.35097 48.7882 4.31831C47.7512 3.28565 46.3482 2.70454 44.8848 2.70152C41.8206 2.70152 39.3079 5.21721 39.3324 8.25825C39.3445 9.72252 39.9333 11.123 40.971 12.1561C42.0087 13.1893 43.4118 13.7718 44.8761 13.7774Z" fill="#292929"/>
<path id="Vector_6" d="M28.4921 13.0988C27.7531 13.0988 27.0156 13.0988 26.278 13.0988C25.5405 13.0988 25.0512 12.6759 25.0483 12.0379C25.0483 11.426 25.5102 10.9555 26.2116 10.9468C27.7415 10.9266 29.271 10.9266 30.7999 10.9468C31.497 10.9569 31.9546 11.4404 31.9546 12.0509C31.9546 12.6614 31.4783 13.0872 30.7638 13.0959C30.0032 13.106 29.2469 13.0988 28.4921 13.0988Z" fill="#292929"/>
<path id="Vector_7" d="M28.4903 17.6115C27.7369 17.6115 26.9821 17.6115 26.2301 17.6115C25.5316 17.6029 25.0596 17.1713 25.048 16.555C25.0365 15.9388 25.5301 15.4596 26.2474 15.4552C27.7542 15.4485 29.2611 15.4485 30.7679 15.4552C31.4607 15.4552 31.9369 15.9027 31.9485 16.5161C31.96 17.1295 31.4736 17.6029 30.7505 17.6101C29.9971 17.6173 29.2437 17.6115 28.4903 17.6115Z" fill="#292929"/>
</g>
<defs>
<clipPath id="clip0_1_1544">
<rect width="55.2916" height="48" fill="white" transform="translate(0.854004 0.5)"/>
</clipPath>
</defs>
</svg>
