<svg width="50" height="60" viewBox="0 0 50 60" fill="none" xmlns="http://www.w3.org/2000/svg">
<g id="Isolation_Mode" clip-path="url(#clip0_1170_345)">
<path id="Vector" d="M31.2153 14.1869H32.6348C33.1652 14.1869 33.6719 14.4221 34.0263 14.832C34.387 15.2486 34.5567 15.7884 34.503 16.3506C34.4064 17.3316 33.5281 18.0999 32.5059 18.0999H30.5775C30.0085 18.0999 29.5081 17.6811 29.39 17.1054C29.3235 16.7694 29.0293 16.5253 28.69 16.5253H26.4868C26.2785 16.5253 26.0787 16.6171 25.9392 16.7784C25.806 16.933 25.7395 17.1368 25.7566 17.3406C25.9864 19.6991 27.7494 21.547 29.9935 21.8314V23.8248C29.9935 24.2415 30.3177 24.5819 30.7193 24.5819H32.8967C33.2983 24.5819 33.6226 24.2415 33.6226 23.8248V21.7463C36.0513 21.2132 37.883 19.1772 38.1128 16.7179C38.2674 15.0762 37.767 13.5016 36.7105 12.2854C35.6669 11.0871 34.1809 10.3994 32.6348 10.3994H30.9856C30.4551 10.3994 29.9462 10.1643 29.5897 9.75213C29.2311 9.33552 29.0615 8.79797 29.1173 8.23354C29.2118 7.25026 30.0901 6.47977 31.1144 6.47977H33.0406C33.6097 6.47977 34.1079 6.90085 34.2281 7.48096C34.2968 7.81693 34.5846 8.05435 34.9282 8.05435H37.1314C37.3418 8.05435 37.5416 7.96252 37.6811 7.79901C37.8143 7.64447 37.8787 7.44288 37.8594 7.2413C37.6317 4.88054 35.8709 3.03494 33.6247 2.75496V0.761535C33.6247 0.342691 33.3004 0 32.8989 0H30.7214C30.3199 0 29.9956 0.340451 29.9956 0.761535V2.79976C27.1804 3.32612 25.2241 6.00493 25.5054 9.01523C25.7781 11.9158 28.2863 14.1869 31.2175 14.1869H31.2153Z" fill="#069AEE"/>
<path id="Vector_2" d="M1.282 42.6751H7.87236C8.57885 42.6751 9.15221 43.2731 9.15221 44.01V58.6628C9.15221 59.3997 8.57885 60 7.87021 60H1.282C0.575502 60 0 59.402 0 58.6628V44.01C0 43.2731 0.573355 42.6729 1.282 42.6729V42.6751Z" fill="#013D6E"/>
<path id="Vector_3" d="M14.897 34.9639H21.4874C22.1939 34.9639 22.7694 35.5619 22.7694 36.301V58.6655C22.7694 59.4024 22.196 60.0027 21.4874 60.0027H14.897C14.1905 60.0027 13.6172 59.4047 13.6172 58.6678V36.301C13.6172 35.5641 14.1905 34.9661 14.897 34.9661V34.9639Z" fill="#013D6E"/>
<path id="Vector_4" d="M28.5123 42.6748H35.1026C35.8091 42.6748 36.3846 43.2728 36.3846 44.012V58.6648C36.3846 59.4017 35.8113 60.002 35.1026 60.002H28.5123C27.8058 60.002 27.2324 59.4039 27.2324 58.667V44.0142C27.2324 43.2773 27.8058 42.6793 28.5123 42.6793V42.6748Z" fill="#013D6E"/>
<path id="Vector_5" d="M42.1295 34.9639H48.7198C49.4263 34.9639 50.0018 35.5619 50.0018 36.301V58.6655C50.0018 59.4024 49.4285 60.0027 48.7198 60.0027H42.1295C41.423 60.0027 40.8496 59.4047 40.8496 58.6678V36.301C40.8496 35.5641 41.423 34.9661 42.1295 34.9661V34.9639Z" fill="#013D6E"/>
<path id="Vector_6" d="M42.7216 28.0668C43.4732 28.6738 44.403 29.0479 45.4251 29.0479C47.8753 29.0479 49.8617 26.976 49.8617 24.4204C49.8617 21.8648 47.8753 19.793 45.4251 19.793C42.975 19.793 40.9886 21.8648 40.9886 24.4204C40.9886 24.7855 41.0402 25.1349 41.1153 25.4754L34.5121 29.9012C33.7605 29.2942 32.8307 28.9179 31.8085 28.9179C30.7863 28.9179 29.8544 29.2942 29.1049 29.9012L22.5017 25.4754C22.5768 25.1349 22.6284 24.7833 22.6284 24.4204C22.6284 21.8648 20.642 19.793 18.1918 19.793C15.7417 19.793 13.7553 21.8648 13.7553 24.4204C13.7553 24.7855 13.8047 25.1349 13.882 25.4754L7.27877 29.9012C6.52718 29.2942 5.59736 28.9179 4.57519 28.9179C2.12501 28.9179 0.138672 30.9898 0.138672 33.5454C0.138672 36.101 2.12501 38.1728 4.57519 38.1728C7.02538 38.1728 9.01172 36.101 9.01172 33.5454C9.01172 33.1803 8.96233 32.8309 8.88502 32.4904L15.4883 28.0646C16.2377 28.6716 17.1697 29.0456 18.1918 29.0456C19.214 29.0456 20.1438 28.6693 20.8954 28.0646L27.4987 32.4904C27.4214 32.8309 27.372 33.1803 27.372 33.5454C27.372 36.101 29.3583 38.1728 31.8085 38.1728C34.2587 38.1728 36.245 36.101 36.245 33.5454C36.245 33.1803 36.1956 32.8309 36.1183 32.4904L42.7216 28.0646V28.0668Z" fill="#069AEE"/>
</g>
<defs>
<clipPath id="clip0_1170_345">
<rect width="50" height="60" fill="white"/>
</clipPath>
</defs>
</svg>
