<svg width="30" height="30" viewBox="0 0 30 30" fill="none" xmlns="http://www.w3.org/2000/svg">
<g id="IN">
<g id="Group-Clipped">
<mask id="mask0_1602_1940" style="mask-type:alpha" maskUnits="userSpaceOnUse" x="0" y="0" width="30" height="30">
<g id="mask-2">
<path id="Vector" d="M14.946 29.7309C22.9243 29.7309 29.3921 23.2632 29.3921 15.2849C29.3921 7.30657 22.9243 0.838867 14.946 0.838867C6.96771 0.838867 0.5 7.30657 0.5 15.2849C0.5 23.2632 6.96771 29.7309 14.946 29.7309Z" fill="white"/>
</g>
</mask>
<g mask="url(#mask0_1602_1940)">
<g id="Group">
<g id="contents-Clipped">
<mask id="mask1_1602_1940" style="mask-type:alpha" maskUnits="userSpaceOnUse" x="-5" y="0" width="40" height="30">
<g id="mask-4">
<path id="Vector_2" d="M34.2076 0.838867H-4.31519V29.7309H34.2076V0.838867Z" fill="white"/>
</g>
</mask>
<g mask="url(#mask1_1602_1940)">
<g id="contents">
<path id="right" d="M5.31555 0.838867H34.2076V29.7309H5.31555V0.838867Z" fill="#EF0000"/>
<path id="left" d="M-4.31519 0.838867H10.1308V29.7309H-4.31519V0.838867Z" fill="#2F8D00"/>
<g id="mark">
<g id="stripes">
<g id="Rectangle-53-Clipped">
<mask id="mask2_1602_1940" style="mask-type:alpha" maskUnits="userSpaceOnUse" x="0" y="5" width="20" height="20">
<g id="mask-6">
<path id="Vector_3" d="M10.0162 24.684C4.8873 24.684 0.729492 20.4761 0.729492 15.2853C0.729492 10.0946 4.8873 5.88672 10.0162 5.88672C15.1451 5.88672 19.303 10.0946 19.303 15.2853C19.303 20.4761 15.1451 24.684 10.0162 24.684Z" fill="white"/>
</g>
</mask>
<g mask="url(#mask2_1602_1940)">
<path id="Rectangle-53" d="M9.44312 5.6543H10.647V8.9032H9.44312V5.6543Z" fill="#FFE017"/>
</g>
</g>
<g id="Rectangle-53-Clipped_2">
<mask id="mask3_1602_1940" style="mask-type:alpha" maskUnits="userSpaceOnUse" x="0" y="5" width="20" height="20">
<g id="mask-8">
<path id="Vector_4" d="M10.0162 24.684C4.8873 24.684 0.729492 20.4761 0.729492 15.2853C0.729492 10.0946 4.8873 5.88672 10.0162 5.88672C15.1451 5.88672 19.303 10.0946 19.303 15.2853C19.303 20.4761 15.1451 24.684 10.0162 24.684Z" fill="white"/>
</g>
</mask>
<g mask="url(#mask3_1602_1940)">
<path id="Rectangle-53_2" d="M9.44312 21.8994H10.647V24.9163H9.44312V21.8994Z" fill="#FFE017"/>
</g>
</g>
<g id="Path-194-Clipped">
<mask id="mask4_1602_1940" style="mask-type:alpha" maskUnits="userSpaceOnUse" x="0" y="5" width="20" height="20">
<g id="mask-10">
<path id="Vector_5" d="M10.0162 24.684C4.8873 24.684 0.729492 20.4761 0.729492 15.2853C0.729492 10.0946 4.8873 5.88672 10.0162 5.88672C15.1451 5.88672 19.303 10.0946 19.303 15.2853C19.303 20.4761 15.1451 24.684 10.0162 24.684Z" fill="white"/>
</g>
</mask>
<g mask="url(#mask4_1602_1940)">
<path id="Path-194" d="M0.878808 15.7719L0.542236 14.9084C4.25629 13.4257 7.0595 12.4694 8.96154 12.0385C11.7522 11.4062 14.8184 10.9384 18.1605 10.6348L18.2425 11.5593C14.9388 11.8595 11.9119 12.3213 9.16192 12.9443C7.3165 13.3624 4.55223 14.3054 0.878808 15.7719Z" fill="#FFE017"/>
</g>
</g>
<g id="Path-204-Clipped">
<mask id="mask5_1602_1940" style="mask-type:alpha" maskUnits="userSpaceOnUse" x="0" y="5" width="20" height="20">
<g id="mask-12">
<path id="Vector_6" d="M10.0162 24.684C4.8873 24.684 0.729492 20.4761 0.729492 15.2853C0.729492 10.0946 4.8873 5.88672 10.0162 5.88672C15.1451 5.88672 19.303 10.0946 19.303 15.2853C19.303 20.4761 15.1451 24.684 10.0162 24.684Z" fill="white"/>
</g>
</mask>
<g mask="url(#mask5_1602_1940)">
<path id="Path-204" d="M18.7274 10.0656L18.4543 10.9518C15.6473 10.0656 13.3607 9.68468 11.6031 9.80267L11.5424 8.87644C13.4295 8.74977 15.8217 9.14827 18.7274 10.0656Z" fill="#FFE017"/>
</g>
</g>
<g id="Path-207-Clipped">
<mask id="mask6_1602_1940" style="mask-type:alpha" maskUnits="userSpaceOnUse" x="0" y="5" width="20" height="20">
<g id="mask-14">
<path id="Vector_7" d="M10.0162 24.684C4.8873 24.684 0.729492 20.4761 0.729492 15.2853C0.729492 10.0946 4.8873 5.88672 10.0162 5.88672C15.1451 5.88672 19.303 10.0946 19.303 15.2853C19.303 20.4761 15.1451 24.684 10.0162 24.684Z" fill="white"/>
</g>
</mask>
<g mask="url(#mask6_1602_1940)">
<path id="Path-207" d="M19.6985 15.0206L19.1796 15.786C17.7487 14.7925 15.9857 14.2935 13.8788 14.2935V13.3652C16.1629 13.3652 18.1068 13.9155 19.6985 15.0206Z" fill="#FFE017"/>
</g>
</g>
<g id="Path-208-Clipped">
<mask id="mask7_1602_1940" style="mask-type:alpha" maskUnits="userSpaceOnUse" x="0" y="5" width="20" height="20">
<g id="mask-16">
<path id="Vector_8" d="M10.0162 24.684C4.8873 24.684 0.729492 20.4761 0.729492 15.2853C0.729492 10.0946 4.8873 5.88672 10.0162 5.88672C15.1451 5.88672 19.303 10.0946 19.303 15.2853C19.303 20.4761 15.1451 24.684 10.0162 24.684Z" fill="white"/>
</g>
</mask>
<g mask="url(#mask7_1602_1940)">
<path id="Path-208" d="M18.9213 15.2979L19.1584 16.1945C16.0734 17.0302 13.1771 17.5043 10.4691 17.6159C7.74246 17.7283 4.5645 17.2525 0.932495 16.1921L1.18673 15.3003C4.73046 16.3349 7.81304 16.7964 10.4318 16.6884C13.0692 16.5797 15.8991 16.1165 18.9213 15.2979Z" fill="#FFE017"/>
</g>
</g>
<g id="Path-209-Clipped">
<mask id="mask8_1602_1940" style="mask-type:alpha" maskUnits="userSpaceOnUse" x="0" y="5" width="20" height="20">
<g id="mask-18">
<path id="Vector_9" d="M10.0162 24.684C4.8873 24.684 0.729492 20.4761 0.729492 15.2853C0.729492 10.0946 4.8873 5.88672 10.0162 5.88672C15.1451 5.88672 19.303 10.0946 19.303 15.2853C19.303 20.4761 15.1451 24.684 10.0162 24.684Z" fill="white"/>
</g>
</mask>
<g mask="url(#mask8_1602_1940)">
<path id="Path-209" d="M18.5718 19.6623L17.122 21.1486C14.3668 18.396 11.9412 16.4277 9.86 15.2451C7.74329 14.0423 4.98291 12.8209 1.58313 11.5859L2.28033 9.62012C5.78037 10.8916 8.64229 12.1579 10.8704 13.424C13.134 14.7103 15.6962 16.7893 18.5718 19.6623Z" fill="#FFE017"/>
</g>
</g>
<g id="Path-210-Clipped">
<mask id="mask9_1602_1940" style="mask-type:alpha" maskUnits="userSpaceOnUse" x="0" y="5" width="20" height="20">
<g id="mask-20">
<path id="Vector_10" d="M10.0162 24.684C4.8873 24.684 0.729492 20.4761 0.729492 15.2853C0.729492 10.0946 4.8873 5.88672 10.0162 5.88672C15.1451 5.88672 19.303 10.0946 19.303 15.2853C19.303 20.4761 15.1451 24.684 10.0162 24.684Z" fill="white"/>
</g>
</mask>
<g mask="url(#mask9_1602_1940)">
<path id="Path-210" d="M2.25569 20.5041L1.70691 19.7603C1.78354 19.7024 1.92028 19.6058 2.10869 19.4834C2.41976 19.2814 2.76518 19.0796 3.13683 18.8911C4.16046 18.3718 5.18726 18.0476 6.1666 18.0178C6.2145 18.0164 6.26219 18.0156 6.30968 18.0156V18.9439C6.27142 18.9439 6.23291 18.9445 6.19415 18.9457C5.36884 18.9708 4.46251 19.2569 3.54784 19.7209C3.20691 19.8939 2.88925 20.0794 2.60416 20.2646C2.50493 20.3291 2.41713 20.3887 2.3419 20.4418C2.29803 20.4728 2.26892 20.4941 2.25569 20.5041Z" fill="#FFE017"/>
</g>
</g>
<g id="Path-211-Clipped">
<mask id="mask10_1602_1940" style="mask-type:alpha" maskUnits="userSpaceOnUse" x="0" y="5" width="20" height="20">
<g id="mask-22">
<path id="Vector_11" d="M10.0162 24.684C4.8873 24.684 0.729492 20.4761 0.729492 15.2853C0.729492 10.0946 4.8873 5.88672 10.0162 5.88672C15.1451 5.88672 19.303 10.0946 19.303 15.2853C19.303 20.4761 15.1451 24.684 10.0162 24.684Z" fill="white"/>
</g>
</mask>
<g mask="url(#mask10_1602_1940)">
<path id="Path-211" d="M2.68164 20.826L2.91262 19.9277C5.97051 20.733 8.32796 21.1343 9.97323 21.1343C11.6123 21.1343 14.052 20.6609 17.2764 19.7109L17.5328 20.6022C14.2321 21.5747 11.7176 22.0625 9.97323 22.0625C8.23503 22.0625 5.80842 21.6495 2.68164 20.826Z" fill="#FFE017"/>
</g>
</g>
<g id="Path-212-Clipped">
<mask id="mask11_1602_1940" style="mask-type:alpha" maskUnits="userSpaceOnUse" x="0" y="5" width="20" height="20">
<g id="mask-24">
<path id="Vector_12" d="M10.0162 24.684C4.8873 24.684 0.729492 20.4761 0.729492 15.2853C0.729492 10.0946 4.8873 5.88672 10.0162 5.88672C15.1451 5.88672 19.303 10.0946 19.303 15.2853C19.303 20.4761 15.1451 24.684 10.0162 24.684Z" fill="white"/>
</g>
</mask>
<g mask="url(#mask11_1602_1940)">
<path id="Path-212" d="M1.49023 12.5094L2.94336 11.0264L5.07092 13.1615L3.6178 14.6446L1.49023 12.5094Z" fill="#FFE017"/>
</g>
</g>
<g id="Path-213-Clipped">
<mask id="mask12_1602_1940" style="mask-type:alpha" maskUnits="userSpaceOnUse" x="0" y="5" width="20" height="20">
<g id="mask-26">
<path id="Vector_13" d="M10.0162 24.684C4.8873 24.684 0.729492 20.4761 0.729492 15.2853C0.729492 10.0946 4.8873 5.88672 10.0162 5.88672C15.1451 5.88672 19.303 10.0946 19.303 15.2853C19.303 20.4761 15.1451 24.684 10.0162 24.684Z" fill="white"/>
</g>
</mask>
<g mask="url(#mask12_1602_1940)">
<path id="Path-213" d="M13.5449 19.9179L14.6258 18.1387L18.0009 20.2387L16.92 22.0179L13.5449 19.9179Z" fill="#FFE017"/>
</g>
</g>
</g>
<path id="outer" d="M10.0162 5.88672C15.1451 5.88672 19.303 10.0946 19.303 15.2853C19.303 20.4761 15.1451 24.684 10.0162 24.684C4.8873 24.684 0.729492 20.4761 0.729492 15.2853C0.729492 10.0946 4.8873 5.88672 10.0162 5.88672ZM10.1309 7.27911C5.69848 7.27911 2.1053 10.9156 2.1053 15.4014C2.1053 19.8872 5.69848 23.5236 10.1309 23.5236C14.5633 23.5236 18.1564 19.8872 18.1564 15.4014C18.1564 10.9156 14.5633 7.27911 10.1309 7.27911Z" fill="#F9E813"/>
<g id="center">
<path id="Path" d="M4.90247 9.48926V17.0261C5.39861 20.0093 7.07009 21.5009 9.91691 21.5009C12.7637 21.5009 14.4352 20.0093 14.9313 17.0261V9.48926H4.90247Z" fill="white"/>
<path id="Path-214" d="M4.21448 8.79297H15.6192V17.0842L15.6096 17.1416C15.0587 20.4541 13.1057 22.197 9.91683 22.197C6.728 22.197 4.77494 20.4541 4.22402 17.1416L4.21448 17.0842V8.79297Z" fill="#C51918"/>
<path id="Path-214_2" d="M6.82312 11.3252H13.0105V16.6713C12.7044 18.5118 11.6732 19.4321 9.91681 19.4321C8.16045 19.4321 7.12922 18.5118 6.82312 16.6713V11.3252Z" fill="#F7FCFF"/>
<g id="castles">
<g id="castle">
<path id="Rectangle-54" d="M5.3158 9.36719H6.18604V9.94735H5.3158V9.36719Z" fill="#F9E813"/>
<path id="Rectangle-55" d="M4.85706 9.59961H6.46217V9.88969H4.85706V9.59961Z" fill="#060101"/>
<path id="Rectangle-54_2" d="M4.85706 9.83105H5.7273V10.1211H4.85706V9.83105Z" fill="#F9E813"/>
<path id="Rectangle-54_3" d="M5.77441 9.83105H6.64466V10.1211H5.77441V9.83105Z" fill="#F9E813"/>
<path id="Rectangle-54_4" d="M4.85706 10.5273H5.43722V11.3976H4.85706V10.5273Z" fill="#F9E813"/>
<path id="Rectangle-54_5" d="M6.00354 10.5273H6.5837V11.3976H6.00354V10.5273Z" fill="#F9E813"/>
<path id="Rectangle-54_6" d="M5.54504 10.5273H5.83512V11.3976H5.54504V10.5273Z" fill="#F9E813"/>
<path id="Rectangle-55_2" d="M4.85706 10.2959H6.46217V10.586H4.85706V10.2959Z" fill="#060101"/>
<path id="Rectangle-55_3" d="M4.85706 10.9922H6.46217V11.2823H4.85706V10.9922Z" fill="#060101"/>
<path id="Rectangle-54_7" d="M5.08655 10.0635H5.37663V10.3536H5.08655V10.0635Z" fill="#F9E813"/>
<path id="Rectangle-54_8" d="M6.00354 10.0635H6.29362V10.3536H6.00354V10.0635Z" fill="#F9E813"/>
<path id="Rectangle-54_9" d="M5.54504 9.83105H5.83512V10.4112H5.54504V9.83105Z" fill="#F9E813"/>
</g>
<g id="castle_2">
<path id="Rectangle-54_10" d="M9.67236 9.36719H10.5426V9.94735H9.67236V9.36719Z" fill="#F9E813"/>
<path id="Rectangle-55_4" d="M9.21375 9.59961H10.8189V9.88969H9.21375V9.59961Z" fill="#060101"/>
<path id="Rectangle-54_11" d="M9.21375 9.83105H10.084V10.1211H9.21375V9.83105Z" fill="#F9E813"/>
<path id="Rectangle-54_12" d="M10.131 9.83105H11.0012V10.1211H10.131V9.83105Z" fill="#F9E813"/>
<path id="Rectangle-54_13" d="M9.21375 10.5273H9.79391V11.3976H9.21375V10.5273Z" fill="#F9E813"/>
<path id="Rectangle-54_14" d="M10.3602 10.5273H10.9404V11.3976H10.3602V10.5273Z" fill="#F9E813"/>
<path id="Rectangle-54_15" d="M9.90173 10.5273H10.1918V11.3976H9.90173V10.5273Z" fill="#F9E813"/>
<path id="Rectangle-55_5" d="M9.21375 10.2959H10.8189V10.586H9.21375V10.2959Z" fill="#060101"/>
<path id="Rectangle-55_6" d="M9.21375 10.9922H10.8189V11.2823H9.21375V10.9922Z" fill="#060101"/>
<path id="Rectangle-54_16" d="M9.44312 10.0635H9.7332V10.3536H9.44312V10.0635Z" fill="#F9E813"/>
<path id="Rectangle-54_17" d="M10.3602 10.0635H10.6503V10.3536H10.3602V10.0635Z" fill="#F9E813"/>
<path id="Rectangle-54_18" d="M9.90173 9.83105H10.1918V10.4112H9.90173V9.83105Z" fill="#F9E813"/>
</g>
<g id="castle_3">
<path id="Rectangle-54_19" d="M13.7998 9.36719H14.67V9.94735H13.7998V9.36719Z" fill="#F9E813"/>
<path id="Rectangle-55_7" d="M13.3413 9.59961H14.9464V9.88969H13.3413V9.59961Z" fill="#060101"/>
<path id="Rectangle-54_20" d="M13.3413 9.83105H14.2116V10.1211H13.3413V9.83105Z" fill="#F9E813"/>
<path id="Rectangle-54_21" d="M14.2584 9.83105H15.1287V10.1211H14.2584V9.83105Z" fill="#F9E813"/>
<path id="Rectangle-54_22" d="M13.3413 10.5273H13.9215V11.3976H13.3413V10.5273Z" fill="#F9E813"/>
<path id="Rectangle-54_23" d="M14.4878 10.5273H15.068V11.3976H14.4878V10.5273Z" fill="#F9E813"/>
<path id="Rectangle-54_24" d="M14.0292 10.5273H14.3193V11.3976H14.0292V10.5273Z" fill="#F9E813"/>
<path id="Rectangle-55_8" d="M13.3413 10.2959H14.9464V10.586H13.3413V10.2959Z" fill="#060101"/>
<path id="Rectangle-55_9" d="M13.3413 10.9922H14.9464V11.2823H13.3413V10.9922Z" fill="#060101"/>
<path id="Rectangle-54_25" d="M13.5706 10.0635H13.8606V10.3536H13.5706V10.0635Z" fill="#F9E813"/>
<path id="Rectangle-54_26" d="M14.4878 10.0635H14.7779V10.3536H14.4878V10.0635Z" fill="#F9E813"/>
<path id="Rectangle-54_27" d="M14.0292 9.83105H14.3193V10.4112H14.0292V9.83105Z" fill="#F9E813"/>
</g>
<g id="castle_4">
<path id="Rectangle-54_28" d="M13.7998 13.5449H14.67V14.1251H13.7998V13.5449Z" fill="#F9E813"/>
<path id="Rectangle-55_10" d="M13.3413 13.7773H14.9464V14.0674H13.3413V13.7773Z" fill="#060101"/>
<path id="Rectangle-54_29" d="M13.3413 14.0088H14.2116V14.2989H13.3413V14.0088Z" fill="#F9E813"/>
<path id="Rectangle-54_30" d="M14.2584 14.0088H15.1287V14.2989H14.2584V14.0088Z" fill="#F9E813"/>
<path id="Rectangle-54_31" d="M13.3413 14.7051H13.9215V15.5753H13.3413V14.7051Z" fill="#F9E813"/>
<path id="Rectangle-54_32" d="M14.4878 14.7051H15.068V15.5753H14.4878V14.7051Z" fill="#F9E813"/>
<path id="Rectangle-54_33" d="M14.0292 14.7051H14.3193V15.5753H14.0292V14.7051Z" fill="#F9E813"/>
<path id="Rectangle-55_11" d="M13.3413 14.4736H14.9464V14.7637H13.3413V14.4736Z" fill="#060101"/>
<path id="Rectangle-55_12" d="M13.3413 15.1689H14.9464V15.459H13.3413V15.1689Z" fill="#060101"/>
<path id="Rectangle-54_34" d="M13.5706 14.2412H13.8606V14.5313H13.5706V14.2412Z" fill="#F9E813"/>
<path id="Rectangle-54_35" d="M14.4878 14.2412H14.7779V14.5313H14.4878V14.2412Z" fill="#F9E813"/>
<path id="Rectangle-54_36" d="M14.0292 14.0088H14.3193V14.589H14.0292V14.0088Z" fill="#F9E813"/>
</g>
<g id="castle_5">
<path id="Rectangle-54_37" d="M5.3158 13.5449H6.18604V14.1251H5.3158V13.5449Z" fill="#F9E813"/>
<path id="Rectangle-55_13" d="M4.85706 13.7773H6.46217V14.0674H4.85706V13.7773Z" fill="#060101"/>
<path id="Rectangle-54_38" d="M4.85706 14.0088H5.7273V14.2989H4.85706V14.0088Z" fill="#F9E813"/>
<path id="Rectangle-54_39" d="M5.77441 14.0088H6.64466V14.2989H5.77441V14.0088Z" fill="#F9E813"/>
<path id="Rectangle-54_40" d="M4.85706 14.7051H5.43722V15.5753H4.85706V14.7051Z" fill="#F9E813"/>
<path id="Rectangle-54_41" d="M6.00354 14.7051H6.5837V15.5753H6.00354V14.7051Z" fill="#F9E813"/>
<path id="Rectangle-54_42" d="M5.54504 14.7051H5.83512V15.5753H5.54504V14.7051Z" fill="#F9E813"/>
<path id="Rectangle-55_14" d="M4.85706 14.4736H6.46217V14.7637H4.85706V14.4736Z" fill="#060101"/>
<path id="Rectangle-55_15" d="M4.85706 15.1689H6.46217V15.459H4.85706V15.1689Z" fill="#060101"/>
<path id="Rectangle-54_43" d="M5.08655 14.2412H5.37663V14.5313H5.08655V14.2412Z" fill="#F9E813"/>
<path id="Rectangle-54_44" d="M6.00354 14.2412H6.29362V14.5313H6.00354V14.2412Z" fill="#F9E813"/>
<path id="Rectangle-54_45" d="M5.54504 14.0088H5.83512V14.589H5.54504V14.0088Z" fill="#F9E813"/>
</g>
<g id="castle_6">
<path id="Rectangle-54_46" d="M5.87402 18.7803L6.4334 18.1136L6.87783 18.4865L6.31845 19.1532L5.87402 18.7803Z" fill="#F9E813"/>
<path id="Rectangle-55_16" d="M5.75708 19.2812L6.78883 18.0517L7.01104 18.2381L5.9793 19.4677L5.75708 19.2812Z" fill="#060101"/>
<path id="Rectangle-54_47" d="M5.93494 19.4307L6.49432 18.764L6.71653 18.9505L6.15715 19.6171L5.93494 19.4307Z" fill="#F9E813"/>
<path id="Rectangle-54_48" d="M6.52429 18.7275L7.08367 18.0609L7.30589 18.2474L6.74651 18.914L6.52429 18.7275Z" fill="#F9E813"/>
<path id="Rectangle-54_49" d="M6.46814 19.8779L6.84106 19.4335L7.50771 19.9929L7.13478 20.4373L6.46814 19.8779Z" fill="#F9E813"/>
<path id="Rectangle-54_50" d="M7.20508 18.999L7.578 18.5546L8.24464 19.114L7.87172 19.5584L7.20508 18.999Z" fill="#F9E813"/>
<path id="Rectangle-54_51" d="M6.9104 19.3506L7.09686 19.1284L7.76351 19.6878L7.57704 19.91L6.9104 19.3506Z" fill="#F9E813"/>
<path id="Rectangle-55_17" d="M6.29041 19.7285L7.32215 18.4989L7.54437 18.6854L6.51262 19.915L6.29041 19.7285Z" fill="#060101"/>
<path id="Rectangle-55_18" d="M6.82361 20.1758L7.85536 18.9462L8.07757 19.1327L7.04582 20.3622L6.82361 20.1758Z" fill="#060101"/>
<path id="Rectangle-54_52" d="M6.25989 19.4033L6.44635 19.1811L6.66857 19.3676L6.48211 19.5898L6.25989 19.4033Z" fill="#F9E813"/>
<path id="Rectangle-54_53" d="M6.84961 18.7012L7.03607 18.479L7.25829 18.6654L7.07183 18.8876L6.84961 18.7012Z" fill="#F9E813"/>
<path id="Rectangle-54_54" d="M6.37695 18.9033L6.56341 18.6811L7.00784 19.054L6.82138 19.2762L6.37695 18.9033Z" fill="#F9E813"/>
</g>
<g id="castle_7">
<path id="Rectangle-54_55" d="M13.7168 18.2539L14.2762 18.9206L13.8317 19.2935L13.2724 18.6268L13.7168 18.2539Z" fill="#F9E813"/>
<path id="Rectangle-55_19" d="M13.2441 18.0518L14.2759 19.2813L14.0537 19.4678L13.0219 18.2382L13.2441 18.0518Z" fill="#060101"/>
<path id="Rectangle-54_56" d="M13.0663 18.2002L13.6257 18.8668L13.4035 19.0533L12.8441 18.3867L13.0663 18.2002Z" fill="#F9E813"/>
<path id="Rectangle-54_57" d="M13.656 18.9033L14.2154 19.57L13.9932 19.7564L13.4338 19.0898L13.656 18.9033Z" fill="#F9E813"/>
<path id="Rectangle-54_58" d="M12.5331 18.6484L12.906 19.0929L12.2394 19.6522L11.8664 19.2078L12.5331 18.6484Z" fill="#F9E813"/>
<path id="Rectangle-54_59" d="M13.2701 19.5264L13.6431 19.9708L12.9764 20.5302L12.6035 20.0857L13.2701 19.5264Z" fill="#F9E813"/>
<path id="Rectangle-54_60" d="M12.9752 19.1748L13.1617 19.397L12.495 19.9564L12.3086 19.7342L12.9752 19.1748Z" fill="#F9E813"/>
<path id="Rectangle-55_20" d="M12.7109 18.499L13.7427 19.7286L13.5205 19.9151L12.4887 18.6855L12.7109 18.499Z" fill="#060101"/>
<path id="Rectangle-55_21" d="M12.1776 18.9463L13.2094 20.1759L12.9871 20.3623L11.9554 19.1327L12.1776 18.9463Z" fill="#060101"/>
<path id="Rectangle-54_61" d="M13.0361 18.5254L13.2226 18.7476L13.0004 18.9341L12.8139 18.7119L13.0361 18.5254Z" fill="#F9E813"/>
<path id="Rectangle-54_62" d="M13.6256 19.2285L13.8121 19.4507L13.5899 19.6372L13.4034 19.415L13.6256 19.2285Z" fill="#F9E813"/>
<path id="Rectangle-54_63" d="M13.5085 18.7275L13.695 18.9498L13.2506 19.3227L13.0641 19.1005L13.5085 18.7275Z" fill="#F9E813"/>
</g>
</g>
<path id="Path-214_3" d="M10.8032 11.9199V13.0774C10.7246 13.4759 10.4597 13.6751 10.0085 13.6751C9.55729 13.6751 9.29238 13.4759 9.21375 13.0774V11.9199H10.8032ZM9.67235 13.0802C9.54571 13.0802 9.44305 13.1841 9.44305 13.3123C9.44305 13.4405 9.54571 13.5444 9.67235 13.5444C9.79899 13.5444 9.90165 13.4405 9.90165 13.3123C9.90165 13.1841 9.79899 13.0802 9.67235 13.0802ZM10.3603 13.0802C10.2336 13.0802 10.131 13.1841 10.131 13.3123C10.131 13.4405 10.2336 13.5444 10.3603 13.5444C10.4869 13.5444 10.5896 13.4405 10.5896 13.3123C10.5896 13.1841 10.4869 13.0802 10.3603 13.0802ZM10.0163 12.6161C9.88966 12.6161 9.787 12.72 9.787 12.8482C9.787 12.9763 9.88966 13.0802 10.0163 13.0802C10.1429 13.0802 10.2456 12.9763 10.2456 12.8482C10.2456 12.72 10.1429 12.6161 10.0163 12.6161ZM9.67235 12.152C9.54571 12.152 9.44305 12.2559 9.44305 12.3841C9.44305 12.5122 9.54571 12.6161 9.67235 12.6161C9.79899 12.6161 9.90165 12.5122 9.90165 12.3841C9.90165 12.2559 9.79899 12.152 9.67235 12.152ZM10.3603 12.152C10.2336 12.152 10.131 12.2559 10.131 12.3841C10.131 12.5122 10.2336 12.6161 10.3603 12.6161C10.4869 12.6161 10.5896 12.5122 10.5896 12.3841C10.5896 12.2559 10.4869 12.152 10.3603 12.152Z" fill="#013399"/>
<path id="Path-214_4" d="M10.8032 14.4727V15.6301C10.7246 16.0286 10.4597 16.2278 10.0085 16.2278C9.55729 16.2278 9.29238 16.0286 9.21375 15.6301V14.4727H10.8032ZM9.67235 15.633C9.54571 15.633 9.44305 15.7369 9.44305 15.865C9.44305 15.9932 9.54571 16.0971 9.67235 16.0971C9.79899 16.0971 9.90165 15.9932 9.90165 15.865C9.90165 15.7369 9.79899 15.633 9.67235 15.633ZM10.3603 15.633C10.2336 15.633 10.131 15.7369 10.131 15.865C10.131 15.9932 10.2336 16.0971 10.3603 16.0971C10.4869 16.0971 10.5896 15.9932 10.5896 15.865C10.5896 15.7369 10.4869 15.633 10.3603 15.633ZM10.0163 15.1689C9.88966 15.1689 9.787 15.2727 9.787 15.4009C9.787 15.5291 9.88966 15.633 10.0163 15.633C10.1429 15.633 10.2456 15.5291 10.2456 15.4009C10.2456 15.2727 10.1429 15.1689 10.0163 15.1689ZM9.67235 14.7047C9.54571 14.7047 9.44305 14.8086 9.44305 14.9368C9.44305 15.065 9.54571 15.1689 9.67235 15.1689C9.79899 15.1689 9.90165 15.065 9.90165 14.9368C9.90165 14.8086 9.79899 14.7047 9.67235 14.7047ZM10.3603 14.7047C10.2336 14.7047 10.131 14.8086 10.131 14.9368C10.131 15.065 10.2336 15.1689 10.3603 15.1689C10.4869 15.1689 10.5896 15.065 10.5896 14.9368C10.5896 14.8086 10.4869 14.7047 10.3603 14.7047Z" fill="#013399"/>
<path id="Path-214_5" d="M12.8669 14.4727V15.6301C12.7883 16.0286 12.5234 16.2278 12.0722 16.2278C11.621 16.2278 11.3561 16.0286 11.2775 15.6301V14.4727H12.8669ZM11.7361 15.633C11.6094 15.633 11.5068 15.7369 11.5068 15.865C11.5068 15.9932 11.6094 16.0971 11.7361 16.0971C11.8627 16.0971 11.9654 15.9932 11.9654 15.865C11.9654 15.7369 11.8627 15.633 11.7361 15.633ZM12.424 15.633C12.2973 15.633 12.1947 15.7369 12.1947 15.865C12.1947 15.9932 12.2973 16.0971 12.424 16.0971C12.5506 16.0971 12.6533 15.9932 12.6533 15.865C12.6533 15.7369 12.5506 15.633 12.424 15.633ZM12.08 15.1689C11.9534 15.1689 11.8507 15.2727 11.8507 15.4009C11.8507 15.5291 11.9534 15.633 12.08 15.633C12.2067 15.633 12.3093 15.5291 12.3093 15.4009C12.3093 15.2727 12.2067 15.1689 12.08 15.1689ZM11.7361 14.7047C11.6094 14.7047 11.5068 14.8086 11.5068 14.9368C11.5068 15.065 11.6094 15.1689 11.7361 15.1689C11.8627 15.1689 11.9654 15.065 11.9654 14.9368C11.9654 14.8086 11.8627 14.7047 11.7361 14.7047ZM12.424 14.7047C12.2973 14.7047 12.1947 14.8086 12.1947 14.9368C12.1947 15.065 12.2973 15.1689 12.424 15.1689C12.5506 15.1689 12.6533 15.065 12.6533 14.9368C12.6533 14.8086 12.5506 14.7047 12.424 14.7047Z" fill="#013399"/>
<path id="Path-214_6" d="M8.73949 14.4727V15.6301C8.66085 16.0286 8.39594 16.2278 7.94476 16.2278C7.49357 16.2278 7.22866 16.0286 7.15002 15.6301V14.4727H8.73949ZM7.60863 15.633C7.48199 15.633 7.37933 15.7369 7.37933 15.865C7.37933 15.9932 7.48199 16.0971 7.60863 16.0971C7.73527 16.0971 7.83793 15.9932 7.83793 15.865C7.83793 15.7369 7.73527 15.633 7.60863 15.633ZM8.29653 15.633C8.16989 15.633 8.06723 15.7369 8.06723 15.865C8.06723 15.9932 8.16989 16.0971 8.29653 16.0971C8.42317 16.0971 8.52584 15.9932 8.52584 15.865C8.52584 15.7369 8.42317 15.633 8.29653 15.633ZM7.95258 15.1689C7.82594 15.1689 7.72328 15.2727 7.72328 15.4009C7.72328 15.5291 7.82594 15.633 7.95258 15.633C8.07922 15.633 8.18188 15.5291 8.18188 15.4009C8.18188 15.2727 8.07922 15.1689 7.95258 15.1689ZM7.60863 14.7047C7.48199 14.7047 7.37933 14.8086 7.37933 14.9368C7.37933 15.065 7.48199 15.1689 7.60863 15.1689C7.73527 15.1689 7.83793 15.065 7.83793 14.9368C7.83793 14.8086 7.73527 14.7047 7.60863 14.7047ZM8.29653 14.7047C8.16989 14.7047 8.06723 14.8086 8.06723 14.9368C8.06723 15.065 8.16989 15.1689 8.29653 15.1689C8.42317 15.1689 8.52584 15.065 8.52584 14.9368C8.52584 14.8086 8.42317 14.7047 8.29653 14.7047Z" fill="#013399"/>
<path id="Path-214_7" d="M10.8032 17.0254V18.1828C10.7246 18.5813 10.4597 18.7806 10.0085 18.7806C9.55729 18.7806 9.29238 18.5813 9.21375 18.1828V17.0254H10.8032ZM9.67235 18.1857C9.54571 18.1857 9.44305 18.2896 9.44305 18.4178C9.44305 18.5459 9.54571 18.6498 9.67235 18.6498C9.79899 18.6498 9.90165 18.5459 9.90165 18.4178C9.90165 18.2896 9.79899 18.1857 9.67235 18.1857ZM10.3603 18.1857C10.2336 18.1857 10.131 18.2896 10.131 18.4178C10.131 18.5459 10.2336 18.6498 10.3603 18.6498C10.4869 18.6498 10.5896 18.5459 10.5896 18.4178C10.5896 18.2896 10.4869 18.1857 10.3603 18.1857ZM10.0163 17.7216C9.88966 17.7216 9.787 17.8255 9.787 17.9536C9.787 18.0818 9.88966 18.1857 10.0163 18.1857C10.1429 18.1857 10.2456 18.0818 10.2456 17.9536C10.2456 17.8255 10.1429 17.7216 10.0163 17.7216ZM9.67235 17.2575C9.54571 17.2575 9.44305 17.3614 9.44305 17.4895C9.44305 17.6177 9.54571 17.7216 9.67235 17.7216C9.79899 17.7216 9.90165 17.6177 9.90165 17.4895C9.90165 17.3614 9.79899 17.2575 9.67235 17.2575ZM10.3603 17.2575C10.2336 17.2575 10.131 17.3614 10.131 17.4895C10.131 17.6177 10.2336 17.7216 10.3603 17.7216C10.4869 17.7216 10.5896 17.6177 10.5896 17.4895C10.5896 17.3614 10.4869 17.2575 10.3603 17.2575Z" fill="#013399"/>
</g>
</g>
</g>
</g>
</g>
</g>
</g>
</g>
<g id="Group-Clipped_2">
<mask id="mask13_1602_1940" style="mask-type:alpha" maskUnits="userSpaceOnUse" x="0" y="0" width="30" height="30">
<g id="mask-28">
<path id="Vector_14" d="M14.946 29.7309C22.9243 29.7309 29.3921 23.2632 29.3921 15.2849C29.3921 7.30657 22.9243 0.838867 14.946 0.838867C6.96771 0.838867 0.5 7.30657 0.5 15.2849C0.5 23.2632 6.96771 29.7309 14.946 29.7309Z" fill="white"/>
</g>
</mask>
<g mask="url(#mask13_1602_1940)">
<g id="Group_2">
<g id="IN_2">
<g id="drop-shadow">
<path id="path-7" d="M32.763 0.838867H-2.87058C-3.66841 0.838867 -4.31519 1.48564 -4.31519 2.28347V28.2863C-4.31519 29.0842 -3.66841 29.7309 -2.87058 29.7309H32.763C33.5608 29.7309 34.2076 29.0842 34.2076 28.2863V2.28347C34.2076 1.48564 33.5608 0.838867 32.763 0.838867Z" fill="black"/>
</g>
<g id="Group-Clipped_3">
<mask id="mask14_1602_1940" style="mask-type:alpha" maskUnits="userSpaceOnUse" x="-5" y="0" width="40" height="30">
<g id="mask-30">
<path id="Vector_15" d="M32.763 0.838867H-2.87058C-3.66841 0.838867 -4.31519 1.48564 -4.31519 2.28347V28.2863C-4.31519 29.0842 -3.66841 29.7309 -2.87058 29.7309H32.763C33.5608 29.7309 34.2076 29.0842 34.2076 28.2863V2.28347C34.2076 1.48564 33.5608 0.838867 32.763 0.838867Z" fill="white"/>
</g>
</mask>
<g mask="url(#mask14_1602_1940)">
<g id="Group_3">
<g id="contents-Clipped_2">
<mask id="mask15_1602_1940" style="mask-type:alpha" maskUnits="userSpaceOnUse" x="-5" y="0" width="40" height="30">
<g id="mask-32">
<path id="Vector_16" d="M34.2076 0.838867H-4.31519V29.7309H34.2076V0.838867Z" fill="white"/>
</g>
</mask>
<g mask="url(#mask15_1602_1940)">
<g id="contents_2">
<g id="background">
<path id="path-12" d="M34.2076 0.838867H-4.31519V29.7309H34.2076V0.838867Z" fill="#F7FCFF"/>
</g>
<g id="top-Clipped">
<mask id="mask16_1602_1940" style="mask-type:alpha" maskUnits="userSpaceOnUse" x="-5" y="0" width="40" height="30">
<g id="mask-34">
<path id="Vector_17" d="M34.2076 0.838867H-4.31519V29.7309H34.2076V0.838867Z" fill="white"/>
</g>
</mask>
<g mask="url(#mask16_1602_1940)">
<path id="top" d="M34.2076 0.838867H-4.31519V10.4696H34.2076V0.838867Z" fill="#FF8C1A"/>
</g>
</g>
<g id="bottom-Clipped">
<mask id="mask17_1602_1940" style="mask-type:alpha" maskUnits="userSpaceOnUse" x="-5" y="0" width="40" height="30">
<g id="mask-36">
<path id="Vector_18" d="M34.2076 0.838867H-4.31519V29.7309H34.2076V0.838867Z" fill="white"/>
</g>
</mask>
<g mask="url(#mask17_1602_1940)">
<path id="bottom" d="M34.2076 20.1006H-4.31519V29.7313H34.2076V20.1006Z" fill="#5EAA22"/>
</g>
</g>
<g id="mark-Clipped">
<mask id="mask18_1602_1940" style="mask-type:alpha" maskUnits="userSpaceOnUse" x="-5" y="0" width="40" height="30">
<g id="mask-38">
<path id="Vector_19" d="M34.2076 0.838867H-4.31519V29.7309H34.2076V0.838867Z" fill="white"/>
</g>
</mask>
<g mask="url(#mask18_1602_1940)">
<g id="mark_2">
<g id="Group_4">
<path id="Oval-23" d="M14.9462 18.8966C16.9408 18.8966 18.5577 17.2796 18.5577 15.2851C18.5577 13.2905 16.9408 11.6736 14.9462 11.6736C12.9516 11.6736 11.3347 13.2905 11.3347 15.2851C11.3347 17.2796 12.9516 18.8966 14.9462 18.8966ZM14.9462 20.1004C12.2868 20.1004 10.1309 17.9445 10.1309 15.2851C10.1309 12.6256 12.2868 10.4697 14.9462 10.4697C17.6056 10.4697 19.7615 12.6256 19.7615 15.2851C19.7615 17.9445 17.6056 20.1004 14.9462 20.1004Z" fill="#3D58DB"/>
<path id="Star-12" d="M14.9395 16.3209L14.2523 20.0775L14.6513 16.2795L12.9336 19.6903L14.3865 16.1585L11.7774 18.9473L14.1665 15.9679L10.8774 17.9086L14.0091 15.723L10.3064 16.6584L13.927 15.4436L10.1108 15.298L13.927 15.1525L10.3064 13.9377L14.0091 14.8731L10.8774 12.6875L14.1665 14.6282L11.7774 11.6488L14.3865 14.4376L12.9336 10.9058L14.6513 14.3166L14.2523 10.5186L14.9395 14.2752L15.6267 10.5186L15.2277 14.3166L16.9454 10.9058L15.4925 14.4376L18.1016 11.6488L15.7125 14.6282L19.0016 12.6875L15.8699 14.8731L19.5725 13.9377L15.9519 15.1525L19.7681 15.298L15.9519 15.4436L19.5725 16.6584L15.8699 15.723L19.0016 17.9086L15.7125 15.9679L18.1016 18.9473L15.4925 16.1585L16.9454 19.6903L15.2277 16.2795L15.6267 20.0775L14.9395 16.3209Z" fill="#3D58DB"/>
</g>
</g>
</g>
</g>
</g>
</g>
</g>
</g>
</g>
</g>
<g id="overlay-Clipped">
<mask id="mask19_1602_1940" style="mask-type:alpha" maskUnits="userSpaceOnUse" x="-5" y="0" width="40" height="30">
<g id="mask-40">
<path id="Vector_20" d="M32.763 0.838867H-2.87058C-3.66841 0.838867 -4.31519 1.48564 -4.31519 2.28347V28.2863C-4.31519 29.0842 -3.66841 29.7309 -2.87058 29.7309H32.763C33.5608 29.7309 34.2076 29.0842 34.2076 28.2863V2.28347C34.2076 1.48564 33.5608 0.838867 32.763 0.838867Z" fill="white"/>
</g>
</mask>
<g mask="url(#mask19_1602_1940)">
<g id="overlay">
<path id="Rectangle" d="M32.161 1.44043H-2.26865C-3.06649 1.44043 -3.71326 2.0872 -3.71326 2.88503V27.6841C-3.71326 28.4819 -3.06649 29.1287 -2.26865 29.1287H32.161C32.9589 29.1287 33.6056 28.4819 33.6056 27.6841V2.88503C33.6056 2.0872 32.9589 1.44043 32.161 1.44043Z" stroke="black" stroke-opacity="0.1" stroke-width="0.849766"/>
</g>
</g>
</g>
</g>
</g>
</g>
</g>
</g>
</svg>
