<svg width="30" height="30" viewBox="0 0 30 30" fill="none" xmlns="http://www.w3.org/2000/svg">
<g id="Artboard">
<g id="AS">
<mask id="mask0_1602_2150" style="mask-type:alpha" maskUnits="userSpaceOnUse" x="0" y="0" width="30" height="30">
<g id="mask-2">
<path id="Vector" d="M14.946 29.0268C22.9243 29.0268 29.3921 22.5591 29.3921 14.5808C29.3921 6.60247 22.9243 0.134766 14.946 0.134766C6.96771 0.134766 0.5 6.60247 0.5 14.5808C0.5 22.5591 6.96771 29.0268 14.946 29.0268Z" fill="white"/>
</g>
</mask>
<g mask="url(#mask0_1602_2150)">
<g id="Group">
<g id="HM">
<g id="drop-shadow">
<path id="path-3" d="M32.8067 0.134766H-2.84873C-3.64656 0.134766 -4.29333 0.781536 -4.29333 1.57937V27.5822C-4.29333 28.38 -3.64656 29.0268 -2.84873 29.0268H32.8067C33.6045 29.0268 34.2513 28.38 34.2513 27.5822V1.57937C34.2513 0.781536 33.6045 0.134766 32.8067 0.134766Z" fill="black"/>
</g>
<g id="Group-Clipped">
<mask id="mask1_1602_2150" style="mask-type:alpha" maskUnits="userSpaceOnUse" x="-5" y="0" width="40" height="30">
<g id="mask-4">
<path id="Vector_2" d="M32.8067 0.134766H-2.84873C-3.64656 0.134766 -4.29333 0.781536 -4.29333 1.57937V27.5822C-4.29333 28.38 -3.64656 29.0268 -2.84873 29.0268H32.8067C33.6045 29.0268 34.2513 28.38 34.2513 27.5822V1.57937C34.2513 0.781536 33.6045 0.134766 32.8067 0.134766Z" fill="white"/>
</g>
</mask>
<g mask="url(#mask1_1602_2150)">
<g id="Group_2">
<g id="contents-Clipped">
<mask id="mask2_1602_2150" style="mask-type:alpha" maskUnits="userSpaceOnUse" x="-5" y="0" width="40" height="30">
<g id="mask-6">
<path id="Vector_3" d="M34.2513 0.134766H-4.29333V29.0268H34.2513V0.134766Z" fill="white"/>
</g>
</mask>
<g mask="url(#mask2_1602_2150)">
<g id="contents">
<g id="background">
<path id="path-8" d="M34.2513 0.134766H-4.29333V29.0268H34.2513V0.134766Z" fill="#2E42A5"/>
</g>
<g id="gb---large-Clipped">
<mask id="mask3_1602_2150" style="mask-type:alpha" maskUnits="userSpaceOnUse" x="-5" y="0" width="40" height="30">
<g id="mask-8">
<path id="Vector_4" d="M34.2513 0.134766H-4.29333V29.0268H34.2513V0.134766Z" fill="white"/>
</g>
</mask>
<g mask="url(#mask3_1602_2150)">
<g id="gb---large">
<g id="flag">
<g id="mask">
<path id="path-10" d="M17.388 0.134766H-4.29333V16.9885H17.388V0.134766Z" fill="#2B409A"/>
</g>
<g id="contents-Clipped_2">
<mask id="mask4_1602_2150" style="mask-type:alpha" maskUnits="userSpaceOnUse" x="-5" y="0" width="23" height="17">
<g id="mask-10">
<path id="Vector_5" d="M17.388 0.134766H-4.29333V16.9885H17.388V0.134766Z" fill="white"/>
</g>
</mask>
<g mask="url(#mask4_1602_2150)">
<g id="contents_2">
<g id="Group_3">
<g id="stripe">
<path id="white" d="M-6.7074 15.7837L-1.93636 17.875L17.4964 2.40779L20.013 -0.699955L14.9111 -1.39893L6.98491 5.26633L0.605174 9.75717L-6.7074 15.7837Z" fill="#F7FCFF"/>
<path id="red" d="M-6.0542 17.2493L-3.62357 18.4629L19.1094 -0.988344H15.6965L-6.0542 17.2493Z" fill="#F50100"/>
</g>
<g id="stripe_2">
<path id="white_2" d="M19.8024 15.7837L15.0313 17.875L-4.40143 2.40779L-6.91804 -0.699955L-1.8161 -1.39893L6.11006 5.26633L12.4898 9.75717L19.8024 15.7837Z" fill="#F7FCFF"/>
<path id="red_2" d="M19.6395 16.8362L17.2089 18.0498L7.52899 9.72172L4.6591 8.79124L-7.16024 -0.6884H-3.74736L8.06534 8.56624L11.2031 9.68198L19.6395 16.8362Z" fill="#F50100"/>
</g>
<g id="cross">
<path id="red_3" d="M8.63687 -0.768555L8.63625 6.45446H18.2916V10.6679H8.63625L8.63687 17.8909H4.42105L4.42043 10.6679H-5.19653V6.45446H4.42043L4.42105 -0.768555H8.63687Z" fill="#F50100" stroke="#F7FCFF" stroke-width="1.27465"/>
</g>
</g>
</g>
</g>
</g>
</g>
</g>
</g>
</g>
<g id="stars-Clipped">
<mask id="mask5_1602_2150" style="mask-type:alpha" maskUnits="userSpaceOnUse" x="-5" y="0" width="40" height="30">
<g id="mask-12">
<path id="Vector_6" d="M34.2513 0.134766H-4.29333V29.0268H34.2513V0.134766Z" fill="white"/>
</g>
</mask>
<g mask="url(#mask5_1602_2150)">
<g id="stars">
<g id="Star">
<path id="Path" d="M6.5475 24.8137L4.97963 26.2618L5.1349 24.1339L3.02454 23.8116L4.78602 22.6062L3.7223 20.7563L5.76356 21.3811L6.5475 19.3965L7.33143 21.3811L9.37269 20.7563L8.30898 22.6062L10.0705 23.8116L7.96009 24.1339L8.11536 26.2618L6.5475 24.8137Z" fill="#F7FCFF"/>
<path id="Path_2" d="M22.2062 15.7853L21.1609 16.7507L21.2645 15.3321L19.8575 15.1173L21.0319 14.3136L20.3227 13.0803L21.6836 13.4969L22.2062 12.1738L22.7288 13.4969L24.0896 13.0803L23.3805 14.3136L24.5548 15.1173L23.1479 15.3321L23.2514 16.7507L22.2062 15.7853Z" fill="#F7FCFF"/>
<path id="Path_3" d="M24.6154 6.15448L23.5701 7.11988L23.6736 5.70122L22.2667 5.4864L23.441 4.68276L22.7319 3.44948L24.0927 3.86602L24.6154 2.54297L25.138 3.86602L26.4988 3.44948L25.7897 4.68276L26.964 5.4864L25.5571 5.70122L25.6606 7.11988L24.6154 6.15448Z" fill="#F7FCFF"/>
<path id="Path_4" d="M30.6378 10.9699L29.5926 11.9353L29.6961 10.5166L28.2892 10.3018L29.4635 9.49819L28.7544 8.26491L30.1152 8.68145L30.6378 7.3584L31.1604 8.68145L32.5213 8.26491L31.8121 9.49819L32.9865 10.3018L31.5796 10.5166L31.6831 11.9353L30.6378 10.9699Z" fill="#F7FCFF"/>
<path id="Path_5" d="M25.8197 26.6193L24.7745 27.5847L24.878 26.1661L23.4711 25.9512L24.6454 25.1476L23.9362 23.9143L25.2971 24.3309L25.8197 23.0078L26.3423 24.3309L27.7032 23.9143L26.994 25.1476L28.1683 25.9512L26.7614 26.1661L26.865 27.5847L25.8197 26.6193Z" fill="#F7FCFF"/>
<path id="Path_6" d="M30.0356 17.2897L28.9736 17.8477L29.1764 16.6658L28.3173 15.8288L29.5046 15.6564L30.0356 14.5811L30.5666 15.6564L31.754 15.8288L30.8948 16.6658L31.0976 17.8477L30.0356 17.2897Z" fill="#F7FCFF"/>
</g>
</g>
</g>
</g>
</g>
</g>
</g>
</g>
</g>
</g>
<g id="overlay-Clipped">
<mask id="mask6_1602_2150" style="mask-type:alpha" maskUnits="userSpaceOnUse" x="-5" y="0" width="40" height="30">
<g id="mask-14">
<path id="Vector_7" d="M32.8067 0.134766H-2.84873C-3.64656 0.134766 -4.29333 0.781536 -4.29333 1.57937V27.5822C-4.29333 28.38 -3.64656 29.0268 -2.84873 29.0268H32.8067C33.6045 29.0268 34.2513 28.38 34.2513 27.5822V1.57937C34.2513 0.781536 33.6045 0.134766 32.8067 0.134766Z" fill="white"/>
</g>
</mask>
<g mask="url(#mask6_1602_2150)">
<g id="overlay">
<path id="Rectangle" d="M32.2045 0.736328H-2.24644C-3.04427 0.736328 -3.69104 1.3831 -3.69104 2.18093V26.9799C-3.69104 27.7778 -3.04427 28.4246 -2.24644 28.4246H32.2045C33.0023 28.4246 33.6491 27.7778 33.6491 26.9799V2.18093C33.6491 1.3831 33.0023 0.736328 32.2045 0.736328Z" stroke="black" stroke-opacity="0.1" stroke-width="0.849766"/>
</g>
</g>
</g>
</g>
</g>
</g>
</g>
</g>
</svg>
