<svg width="30" height="30" viewBox="0 0 30 30" fill="none" xmlns="http://www.w3.org/2000/svg">
<g id="BR">
<g id="Group-Clipped">
<mask id="mask0_1602_1689" style="mask-type:alpha" maskUnits="userSpaceOnUse" x="0" y="0" width="30" height="30">
<g id="mask-2">
<path id="Vector" d="M14.946 29.435C22.9243 29.435 29.3921 22.9673 29.3921 14.989C29.3921 7.01068 22.9243 0.542969 14.946 0.542969C6.96771 0.542969 0.5 7.01068 0.5 14.989C0.5 22.9673 6.96771 29.435 14.946 29.435Z" fill="white"/>
</g>
</mask>
<g mask="url(#mask0_1602_1689)">
<g id="Group">
<g id="contents-Clipped">
<mask id="mask1_1602_1689" style="mask-type:alpha" maskUnits="userSpaceOnUse" x="-5" y="0" width="40" height="30">
<g id="mask-4">
<path id="Vector_2" d="M34.2076 0.542969H-4.31519V29.435H34.2076V0.542969Z" fill="white"/>
</g>
</mask>
<g mask="url(#mask1_1602_1689)">
<g id="contents">
<path id="right" d="M5.31555 0.542969H34.2076V29.435H5.31555V0.542969Z" fill="#EF0000"/>
<path id="left" d="M-4.31519 0.542969H10.1308V29.435H-4.31519V0.542969Z" fill="#2F8D00"/>
<g id="mark">
<g id="stripes">
<g id="Rectangle-53-Clipped">
<mask id="mask2_1602_1689" style="mask-type:alpha" maskUnits="userSpaceOnUse" x="0" y="5" width="20" height="20">
<g id="mask-6">
<path id="Vector_3" d="M10.0162 24.3871C4.88731 24.3871 0.729492 20.1792 0.729492 14.9885C0.729492 9.79775 4.88731 5.58984 10.0162 5.58984C15.1451 5.58984 19.303 9.79775 19.303 14.9885C19.303 20.1792 15.1451 24.3871 10.0162 24.3871Z" fill="white"/>
</g>
</mask>
<g mask="url(#mask2_1602_1689)">
<path id="Rectangle-53" d="M9.44312 5.35742H10.647V8.60633H9.44312V5.35742Z" fill="#FFE017"/>
</g>
</g>
<g id="Rectangle-53-Clipped_2">
<mask id="mask3_1602_1689" style="mask-type:alpha" maskUnits="userSpaceOnUse" x="0" y="5" width="20" height="20">
<g id="mask-8">
<path id="Vector_4" d="M10.0162 24.3871C4.88731 24.3871 0.729492 20.1792 0.729492 14.9885C0.729492 9.79775 4.88731 5.58984 10.0162 5.58984C15.1451 5.58984 19.303 9.79775 19.303 14.9885C19.303 20.1792 15.1451 24.3871 10.0162 24.3871Z" fill="white"/>
</g>
</mask>
<g mask="url(#mask3_1602_1689)">
<path id="Rectangle-53_2" d="M9.44312 21.6025H10.647V24.6194H9.44312V21.6025Z" fill="#FFE017"/>
</g>
</g>
<g id="Path-194-Clipped">
<mask id="mask4_1602_1689" style="mask-type:alpha" maskUnits="userSpaceOnUse" x="0" y="5" width="20" height="20">
<g id="mask-10">
<path id="Vector_5" d="M10.0162 24.3871C4.88731 24.3871 0.729492 20.1792 0.729492 14.9885C0.729492 9.79775 4.88731 5.58984 10.0162 5.58984C15.1451 5.58984 19.303 9.79775 19.303 14.9885C19.303 20.1792 15.1451 24.3871 10.0162 24.3871Z" fill="white"/>
</g>
</mask>
<g mask="url(#mask4_1602_1689)">
<path id="Path-194" d="M0.878808 15.475L0.542236 14.6115C4.25629 13.1288 7.05949 12.1726 8.96154 11.7416C11.7522 11.1094 14.8184 10.6416 18.1605 10.3379L18.2425 11.2624C14.9388 11.5626 11.9119 12.0244 9.16192 12.6475C7.3165 13.0656 4.55223 14.0085 0.878808 15.475Z" fill="#FFE017"/>
</g>
</g>
<g id="Path-204-Clipped">
<mask id="mask5_1602_1689" style="mask-type:alpha" maskUnits="userSpaceOnUse" x="0" y="5" width="20" height="20">
<g id="mask-12">
<path id="Vector_6" d="M10.0162 24.3871C4.88731 24.3871 0.729492 20.1792 0.729492 14.9885C0.729492 9.79775 4.88731 5.58984 10.0162 5.58984C15.1451 5.58984 19.303 9.79775 19.303 14.9885C19.303 20.1792 15.1451 24.3871 10.0162 24.3871Z" fill="white"/>
</g>
</mask>
<g mask="url(#mask5_1602_1689)">
<path id="Path-204" d="M18.7274 9.76873L18.4543 10.6549C15.6473 9.76872 13.3607 9.38781 11.6031 9.50579L11.5424 8.57957C13.4295 8.45289 15.8217 8.8514 18.7274 9.76873Z" fill="#FFE017"/>
</g>
</g>
<g id="Path-207-Clipped">
<mask id="mask6_1602_1689" style="mask-type:alpha" maskUnits="userSpaceOnUse" x="0" y="5" width="20" height="20">
<g id="mask-14">
<path id="Vector_7" d="M10.0162 24.3871C4.88731 24.3871 0.729492 20.1792 0.729492 14.9885C0.729492 9.79775 4.88731 5.58984 10.0162 5.58984C15.1451 5.58984 19.303 9.79775 19.303 14.9885C19.303 20.1792 15.1451 24.3871 10.0162 24.3871Z" fill="white"/>
</g>
</mask>
<g mask="url(#mask6_1602_1689)">
<path id="Path-207" d="M19.6985 14.7237L19.1796 15.4891C17.7487 14.4956 15.9857 13.9966 13.8788 13.9966V13.0684C16.1629 13.0684 18.1068 13.6186 19.6985 14.7237Z" fill="#FFE017"/>
</g>
</g>
<g id="Path-208-Clipped">
<mask id="mask7_1602_1689" style="mask-type:alpha" maskUnits="userSpaceOnUse" x="0" y="5" width="20" height="20">
<g id="mask-16">
<path id="Vector_8" d="M10.0162 24.3871C4.88731 24.3871 0.729492 20.1792 0.729492 14.9885C0.729492 9.79775 4.88731 5.58984 10.0162 5.58984C15.1451 5.58984 19.303 9.79775 19.303 14.9885C19.303 20.1792 15.1451 24.3871 10.0162 24.3871Z" fill="white"/>
</g>
</mask>
<g mask="url(#mask7_1602_1689)">
<path id="Path-208" d="M18.9213 15.001L19.1584 15.8977C16.0734 16.7333 13.1771 17.2074 10.4691 17.319C7.74246 17.4315 4.5645 16.9557 0.932495 15.8953L1.18673 15.0034C4.73046 16.038 7.81304 16.4995 10.4318 16.3916C13.0692 16.2828 15.8991 15.8196 18.9213 15.001Z" fill="#FFE017"/>
</g>
</g>
<g id="Path-209-Clipped">
<mask id="mask8_1602_1689" style="mask-type:alpha" maskUnits="userSpaceOnUse" x="0" y="5" width="20" height="20">
<g id="mask-18">
<path id="Vector_9" d="M10.0162 24.3871C4.88731 24.3871 0.729492 20.1792 0.729492 14.9885C0.729492 9.79775 4.88731 5.58984 10.0162 5.58984C15.1451 5.58984 19.303 9.79775 19.303 14.9885C19.303 20.1792 15.1451 24.3871 10.0162 24.3871Z" fill="white"/>
</g>
</mask>
<g mask="url(#mask8_1602_1689)">
<path id="Path-209" d="M18.5718 19.3654L17.122 20.8517C14.3668 18.0991 11.9412 16.1309 9.86 14.9482C7.74329 13.7454 4.98291 12.524 1.58313 11.289L2.28033 9.32324C5.78037 10.5947 8.64229 11.861 10.8704 13.1271C13.134 14.4134 15.6962 16.4924 18.5718 19.3654Z" fill="#FFE017"/>
</g>
</g>
<g id="Path-210-Clipped">
<mask id="mask9_1602_1689" style="mask-type:alpha" maskUnits="userSpaceOnUse" x="0" y="5" width="20" height="20">
<g id="mask-20">
<path id="Vector_10" d="M10.0162 24.3871C4.88731 24.3871 0.729492 20.1792 0.729492 14.9885C0.729492 9.79775 4.88731 5.58984 10.0162 5.58984C15.1451 5.58984 19.303 9.79775 19.303 14.9885C19.303 20.1792 15.1451 24.3871 10.0162 24.3871Z" fill="white"/>
</g>
</mask>
<g mask="url(#mask9_1602_1689)">
<path id="Path-210" d="M2.25569 20.2072L1.70691 19.4635C1.78354 19.4055 1.92028 19.309 2.10869 19.1866C2.41976 18.9845 2.76518 18.7827 3.13683 18.5942C4.16046 18.0749 5.18726 17.7507 6.1666 17.7209C6.2145 17.7195 6.26219 17.7188 6.30968 17.7188V18.647C6.27142 18.647 6.23291 18.6476 6.19415 18.6488C5.36884 18.6739 4.46251 18.96 3.54784 19.424C3.20691 19.597 2.88925 19.7825 2.60416 19.9677C2.50493 20.0322 2.41713 20.0918 2.3419 20.145C2.29803 20.1759 2.26892 20.1972 2.25569 20.2072Z" fill="#FFE017"/>
</g>
</g>
<g id="Path-211-Clipped">
<mask id="mask10_1602_1689" style="mask-type:alpha" maskUnits="userSpaceOnUse" x="0" y="5" width="20" height="20">
<g id="mask-22">
<path id="Vector_11" d="M10.0162 24.3871C4.88731 24.3871 0.729492 20.1792 0.729492 14.9885C0.729492 9.79775 4.88731 5.58984 10.0162 5.58984C15.1451 5.58984 19.303 9.79775 19.303 14.9885C19.303 20.1792 15.1451 24.3871 10.0162 24.3871Z" fill="white"/>
</g>
</mask>
<g mask="url(#mask10_1602_1689)">
<path id="Path-211" d="M2.68164 20.5292L2.91262 19.6308C5.97051 20.4361 8.32796 20.8374 9.97323 20.8374C11.6123 20.8374 14.052 20.3641 17.2764 19.4141L17.5328 20.3053C14.2321 21.2778 11.7176 21.7657 9.97323 21.7657C8.23503 21.7657 5.80842 21.3526 2.68164 20.5292Z" fill="#FFE017"/>
</g>
</g>
<g id="Path-212-Clipped">
<mask id="mask11_1602_1689" style="mask-type:alpha" maskUnits="userSpaceOnUse" x="0" y="5" width="20" height="20">
<g id="mask-24">
<path id="Vector_12" d="M10.0162 24.3871C4.88731 24.3871 0.729492 20.1792 0.729492 14.9885C0.729492 9.79775 4.88731 5.58984 10.0162 5.58984C15.1451 5.58984 19.303 9.79775 19.303 14.9885C19.303 20.1792 15.1451 24.3871 10.0162 24.3871Z" fill="white"/>
</g>
</mask>
<g mask="url(#mask11_1602_1689)">
<path id="Path-212" d="M1.49023 12.2125L2.94336 10.7295L5.07092 12.8647L3.6178 14.3477L1.49023 12.2125Z" fill="#FFE017"/>
</g>
</g>
<g id="Path-213-Clipped">
<mask id="mask12_1602_1689" style="mask-type:alpha" maskUnits="userSpaceOnUse" x="0" y="5" width="20" height="20">
<g id="mask-26">
<path id="Vector_13" d="M10.0162 24.3871C4.88731 24.3871 0.729492 20.1792 0.729492 14.9885C0.729492 9.79775 4.88731 5.58984 10.0162 5.58984C15.1451 5.58984 19.303 9.79775 19.303 14.9885C19.303 20.1792 15.1451 24.3871 10.0162 24.3871Z" fill="white"/>
</g>
</mask>
<g mask="url(#mask12_1602_1689)">
<path id="Path-213" d="M13.5449 19.621L14.6258 17.8418L18.0009 19.9418L16.92 21.721L13.5449 19.621Z" fill="#FFE017"/>
</g>
</g>
</g>
<path id="outer" d="M10.0162 5.58984C15.1451 5.58984 19.303 9.79775 19.303 14.9885C19.303 20.1792 15.1451 24.3871 10.0162 24.3871C4.88731 24.3871 0.729492 20.1792 0.729492 14.9885C0.729492 9.79775 4.88731 5.58984 10.0162 5.58984ZM10.1309 6.98223C5.69848 6.98223 2.1053 10.6187 2.1053 15.1045C2.1053 19.5903 5.69848 23.2268 10.1309 23.2268C14.5633 23.2268 18.1565 19.5903 18.1565 15.1045C18.1565 10.6187 14.5633 6.98223 10.1309 6.98223Z" fill="#F9E813"/>
<g id="center">
<path id="Path" d="M4.90247 9.19238V16.7292C5.39861 19.7124 7.07009 21.204 9.91691 21.204C12.7637 21.204 14.4352 19.7124 14.9314 16.7292V9.19238H4.90247Z" fill="white"/>
<path id="Path-214" d="M4.21448 8.49609H15.6192V16.7873L15.6096 16.8447C15.0587 20.1573 13.1057 21.9001 9.91683 21.9001C6.728 21.9001 4.77494 20.1573 4.22402 16.8447L4.21448 16.7873V8.49609Z" fill="#C51918"/>
<path id="Path-214_2" d="M6.82312 11.0283H13.0105V16.3744C12.7044 18.2149 11.6732 19.1352 9.91681 19.1352C8.16045 19.1352 7.12922 18.2149 6.82312 16.3744V11.0283Z" fill="#F7FCFF"/>
<g id="castles">
<g id="castle">
<path id="Rectangle-54" d="M5.3158 9.07031H6.18604V9.65047H5.3158V9.07031Z" fill="#F9E813"/>
<path id="Rectangle-55" d="M4.85706 9.30273H6.46217V9.59282H4.85706V9.30273Z" fill="#060101"/>
<path id="Rectangle-54_2" d="M4.85706 9.53418H5.7273V9.82426H4.85706V9.53418Z" fill="#F9E813"/>
<path id="Rectangle-54_3" d="M5.77441 9.53418H6.64466V9.82426H5.77441V9.53418Z" fill="#F9E813"/>
<path id="Rectangle-54_4" d="M4.85706 10.2305H5.43722V11.1007H4.85706V10.2305Z" fill="#F9E813"/>
<path id="Rectangle-54_5" d="M6.00354 10.2305H6.5837V11.1007H6.00354V10.2305Z" fill="#F9E813"/>
<path id="Rectangle-54_6" d="M5.54504 10.2305H5.83512V11.1007H5.54504V10.2305Z" fill="#F9E813"/>
<path id="Rectangle-55_2" d="M4.85706 9.99805H6.46217V10.2881H4.85706V9.99805Z" fill="#060101"/>
<path id="Rectangle-55_3" d="M4.85706 10.6943H6.46217V10.9844H4.85706V10.6943Z" fill="#060101"/>
<path id="Rectangle-54_7" d="M5.08655 9.7666H5.37663V10.0567H5.08655V9.7666Z" fill="#F9E813"/>
<path id="Rectangle-54_8" d="M6.00354 9.7666H6.29362V10.0567H6.00354V9.7666Z" fill="#F9E813"/>
<path id="Rectangle-54_9" d="M5.54504 9.53418H5.83512V10.1143H5.54504V9.53418Z" fill="#F9E813"/>
</g>
<g id="castle_2">
<path id="Rectangle-54_10" d="M9.67236 9.07031H10.5426V9.65047H9.67236V9.07031Z" fill="#F9E813"/>
<path id="Rectangle-55_4" d="M9.21375 9.30273H10.8189V9.59282H9.21375V9.30273Z" fill="#060101"/>
<path id="Rectangle-54_11" d="M9.21375 9.53418H10.084V9.82426H9.21375V9.53418Z" fill="#F9E813"/>
<path id="Rectangle-54_12" d="M10.131 9.53418H11.0012V9.82426H10.131V9.53418Z" fill="#F9E813"/>
<path id="Rectangle-54_13" d="M9.21375 10.2305H9.79391V11.1007H9.21375V10.2305Z" fill="#F9E813"/>
<path id="Rectangle-54_14" d="M10.3602 10.2305H10.9404V11.1007H10.3602V10.2305Z" fill="#F9E813"/>
<path id="Rectangle-54_15" d="M9.90173 10.2305H10.1918V11.1007H9.90173V10.2305Z" fill="#F9E813"/>
<path id="Rectangle-55_5" d="M9.21375 9.99805H10.8189V10.2881H9.21375V9.99805Z" fill="#060101"/>
<path id="Rectangle-55_6" d="M9.21375 10.6943H10.8189V10.9844H9.21375V10.6943Z" fill="#060101"/>
<path id="Rectangle-54_16" d="M9.44312 9.7666H9.7332V10.0567H9.44312V9.7666Z" fill="#F9E813"/>
<path id="Rectangle-54_17" d="M10.3602 9.7666H10.6503V10.0567H10.3602V9.7666Z" fill="#F9E813"/>
<path id="Rectangle-54_18" d="M9.90173 9.53418H10.1918V10.1143H9.90173V9.53418Z" fill="#F9E813"/>
</g>
<g id="castle_3">
<path id="Rectangle-54_19" d="M13.7998 9.07031H14.67V9.65047H13.7998V9.07031Z" fill="#F9E813"/>
<path id="Rectangle-55_7" d="M13.3413 9.30273H14.9464V9.59282H13.3413V9.30273Z" fill="#060101"/>
<path id="Rectangle-54_20" d="M13.3413 9.53418H14.2116V9.82426H13.3413V9.53418Z" fill="#F9E813"/>
<path id="Rectangle-54_21" d="M14.2584 9.53418H15.1287V9.82426H14.2584V9.53418Z" fill="#F9E813"/>
<path id="Rectangle-54_22" d="M13.3413 10.2305H13.9215V11.1007H13.3413V10.2305Z" fill="#F9E813"/>
<path id="Rectangle-54_23" d="M14.4878 10.2305H15.068V11.1007H14.4878V10.2305Z" fill="#F9E813"/>
<path id="Rectangle-54_24" d="M14.0292 10.2305H14.3193V11.1007H14.0292V10.2305Z" fill="#F9E813"/>
<path id="Rectangle-55_8" d="M13.3413 9.99805H14.9464V10.2881H13.3413V9.99805Z" fill="#060101"/>
<path id="Rectangle-55_9" d="M13.3413 10.6943H14.9464V10.9844H13.3413V10.6943Z" fill="#060101"/>
<path id="Rectangle-54_25" d="M13.5706 9.7666H13.8606V10.0567H13.5706V9.7666Z" fill="#F9E813"/>
<path id="Rectangle-54_26" d="M14.4878 9.7666H14.7779V10.0567H14.4878V9.7666Z" fill="#F9E813"/>
<path id="Rectangle-54_27" d="M14.0292 9.53418H14.3193V10.1143H14.0292V9.53418Z" fill="#F9E813"/>
</g>
<g id="castle_4">
<path id="Rectangle-54_28" d="M13.7998 13.2471H14.67V13.8272H13.7998V13.2471Z" fill="#F9E813"/>
<path id="Rectangle-55_10" d="M13.3413 13.4795H14.9464V13.7696H13.3413V13.4795Z" fill="#060101"/>
<path id="Rectangle-54_29" d="M13.3413 13.7109H14.2116V14.001H13.3413V13.7109Z" fill="#F9E813"/>
<path id="Rectangle-54_30" d="M14.2584 13.7109H15.1287V14.001H14.2584V13.7109Z" fill="#F9E813"/>
<path id="Rectangle-54_31" d="M13.3413 14.4072H13.9215V15.2775H13.3413V14.4072Z" fill="#F9E813"/>
<path id="Rectangle-54_32" d="M14.4878 14.4072H15.068V15.2775H14.4878V14.4072Z" fill="#F9E813"/>
<path id="Rectangle-54_33" d="M14.0292 14.4072H14.3193V15.2775H14.0292V14.4072Z" fill="#F9E813"/>
<path id="Rectangle-55_11" d="M13.3413 14.1758H14.9464V14.4659H13.3413V14.1758Z" fill="#060101"/>
<path id="Rectangle-55_12" d="M13.3413 14.8711H14.9464V15.1612H13.3413V14.8711Z" fill="#060101"/>
<path id="Rectangle-54_34" d="M13.5706 13.9434H13.8606V14.2334H13.5706V13.9434Z" fill="#F9E813"/>
<path id="Rectangle-54_35" d="M14.4878 13.9434H14.7779V14.2334H14.4878V13.9434Z" fill="#F9E813"/>
<path id="Rectangle-54_36" d="M14.0292 13.7109H14.3193V14.2911H14.0292V13.7109Z" fill="#F9E813"/>
</g>
<g id="castle_5">
<path id="Rectangle-54_37" d="M5.3158 13.2471H6.18604V13.8272H5.3158V13.2471Z" fill="#F9E813"/>
<path id="Rectangle-55_13" d="M4.85706 13.4795H6.46217V13.7696H4.85706V13.4795Z" fill="#060101"/>
<path id="Rectangle-54_38" d="M4.85706 13.7109H5.7273V14.001H4.85706V13.7109Z" fill="#F9E813"/>
<path id="Rectangle-54_39" d="M5.77441 13.7109H6.64466V14.001H5.77441V13.7109Z" fill="#F9E813"/>
<path id="Rectangle-54_40" d="M4.85706 14.4072H5.43722V15.2775H4.85706V14.4072Z" fill="#F9E813"/>
<path id="Rectangle-54_41" d="M6.00354 14.4072H6.5837V15.2775H6.00354V14.4072Z" fill="#F9E813"/>
<path id="Rectangle-54_42" d="M5.54504 14.4072H5.83512V15.2775H5.54504V14.4072Z" fill="#F9E813"/>
<path id="Rectangle-55_14" d="M4.85706 14.1758H6.46217V14.4659H4.85706V14.1758Z" fill="#060101"/>
<path id="Rectangle-55_15" d="M4.85706 14.8711H6.46217V15.1612H4.85706V14.8711Z" fill="#060101"/>
<path id="Rectangle-54_43" d="M5.08655 13.9434H5.37663V14.2334H5.08655V13.9434Z" fill="#F9E813"/>
<path id="Rectangle-54_44" d="M6.00354 13.9434H6.29362V14.2334H6.00354V13.9434Z" fill="#F9E813"/>
<path id="Rectangle-54_45" d="M5.54504 13.7109H5.83512V14.2911H5.54504V13.7109Z" fill="#F9E813"/>
</g>
<g id="castle_6">
<path id="Rectangle-54_46" d="M5.87402 18.4834L6.4334 17.8168L6.87783 18.1897L6.31845 18.8563L5.87402 18.4834Z" fill="#F9E813"/>
<path id="Rectangle-55_16" d="M5.75708 18.9844L6.78883 17.7548L7.01104 17.9412L5.9793 19.1708L5.75708 18.9844Z" fill="#060101"/>
<path id="Rectangle-54_47" d="M5.93494 19.1328L6.49432 18.4662L6.71653 18.6526L6.15715 19.3193L5.93494 19.1328Z" fill="#F9E813"/>
<path id="Rectangle-54_48" d="M6.52429 18.4307L7.08367 17.764L7.30589 17.9505L6.74651 18.6171L6.52429 18.4307Z" fill="#F9E813"/>
<path id="Rectangle-54_49" d="M6.46814 19.5811L6.84106 19.1366L7.50771 19.696L7.13478 20.1404L6.46814 19.5811Z" fill="#F9E813"/>
<path id="Rectangle-54_50" d="M7.20508 18.7021L7.578 18.2577L8.24464 18.8171L7.87172 19.2615L7.20508 18.7021Z" fill="#F9E813"/>
<path id="Rectangle-54_51" d="M6.9104 19.0537L7.09686 18.8315L7.76351 19.3909L7.57704 19.6131L6.9104 19.0537Z" fill="#F9E813"/>
<path id="Rectangle-55_17" d="M6.29041 19.4316L7.32215 18.2021L7.54437 18.3885L6.51262 19.6181L6.29041 19.4316Z" fill="#060101"/>
<path id="Rectangle-55_18" d="M6.82361 19.8789L7.85536 18.6493L8.07757 18.8358L7.04582 20.0654L6.82361 19.8789Z" fill="#060101"/>
<path id="Rectangle-54_52" d="M6.25989 19.1064L6.44635 18.8842L6.66857 19.0707L6.48211 19.2929L6.25989 19.1064Z" fill="#F9E813"/>
<path id="Rectangle-54_53" d="M6.84961 18.4043L7.03607 18.1821L7.25829 18.3685L7.07183 18.5908L6.84961 18.4043Z" fill="#F9E813"/>
<path id="Rectangle-54_54" d="M6.37695 18.6064L6.56341 18.3842L7.00784 18.7572L6.82138 18.9794L6.37695 18.6064Z" fill="#F9E813"/>
</g>
<g id="castle_7">
<path id="Rectangle-54_55" d="M13.7168 17.957L14.2762 18.6237L13.8317 18.9966L13.2724 18.33L13.7168 17.957Z" fill="#F9E813"/>
<path id="Rectangle-55_19" d="M13.2441 17.7549L14.2759 18.9845L14.0537 19.1709L13.0219 17.9413L13.2441 17.7549Z" fill="#060101"/>
<path id="Rectangle-54_56" d="M13.0663 17.9043L13.6257 18.5709L13.4035 18.7574L12.8441 18.0908L13.0663 17.9043Z" fill="#F9E813"/>
<path id="Rectangle-54_57" d="M13.656 18.6064L14.2154 19.2731L13.9932 19.4596L13.4338 18.7929L13.656 18.6064Z" fill="#F9E813"/>
<path id="Rectangle-54_58" d="M12.5331 18.3516L12.906 18.796L12.2394 19.3554L11.8664 18.9109L12.5331 18.3516Z" fill="#F9E813"/>
<path id="Rectangle-54_59" d="M13.2701 19.2295L13.6431 19.6739L12.9764 20.2333L12.6035 19.7889L13.2701 19.2295Z" fill="#F9E813"/>
<path id="Rectangle-54_60" d="M12.9752 18.8779L13.1617 19.1001L12.495 19.6595L12.3086 19.4373L12.9752 18.8779Z" fill="#F9E813"/>
<path id="Rectangle-55_20" d="M12.7109 18.2021L13.7427 19.4317L13.5205 19.6182L12.4887 18.3886L12.7109 18.2021Z" fill="#060101"/>
<path id="Rectangle-55_21" d="M12.1776 18.6494L13.2094 19.879L12.9871 20.0655L11.9554 18.8359L12.1776 18.6494Z" fill="#060101"/>
<path id="Rectangle-54_61" d="M13.0361 18.2285L13.2226 18.4507L13.0004 18.6372L12.8139 18.415L13.0361 18.2285Z" fill="#F9E813"/>
<path id="Rectangle-54_62" d="M13.6256 18.9316L13.8121 19.1539L13.5899 19.3403L13.4034 19.1181L13.6256 18.9316Z" fill="#F9E813"/>
<path id="Rectangle-54_63" d="M13.5085 18.4307L13.695 18.6529L13.2506 19.0258L13.0641 18.8036L13.5085 18.4307Z" fill="#F9E813"/>
</g>
</g>
<path id="Path-214_3" d="M10.8032 11.623V12.7805C10.7246 13.179 10.4597 13.3782 10.0085 13.3782C9.55729 13.3782 9.29238 13.179 9.21375 12.7805V11.623H10.8032ZM9.67235 12.7834C9.54571 12.7834 9.44305 12.8873 9.44305 13.0154C9.44305 13.1436 9.54571 13.2475 9.67235 13.2475C9.79899 13.2475 9.90165 13.1436 9.90165 13.0154C9.90165 12.8873 9.79899 12.7834 9.67235 12.7834ZM10.3603 12.7834C10.2336 12.7834 10.131 12.8873 10.131 13.0154C10.131 13.1436 10.2336 13.2475 10.3603 13.2475C10.4869 13.2475 10.5896 13.1436 10.5896 13.0154C10.5896 12.8873 10.4869 12.7834 10.3603 12.7834ZM10.0163 12.3192C9.88966 12.3192 9.787 12.4231 9.787 12.5513C9.787 12.6795 9.88966 12.7834 10.0163 12.7834C10.1429 12.7834 10.2456 12.6795 10.2456 12.5513C10.2456 12.4231 10.1429 12.3192 10.0163 12.3192ZM9.67235 11.8551C9.54571 11.8551 9.44305 11.959 9.44305 12.0872C9.44305 12.2153 9.54571 12.3192 9.67235 12.3192C9.79899 12.3192 9.90165 12.2153 9.90165 12.0872C9.90165 11.959 9.79899 11.8551 9.67235 11.8551ZM10.3603 11.8551C10.2336 11.8551 10.131 11.959 10.131 12.0872C10.131 12.2153 10.2336 12.3192 10.3603 12.3192C10.4869 12.3192 10.5896 12.2153 10.5896 12.0872C10.5896 11.959 10.4869 11.8551 10.3603 11.8551Z" fill="#013399"/>
<path id="Path-214_4" d="M10.8032 14.1758V15.3332C10.7246 15.7317 10.4597 15.931 10.0085 15.931C9.55729 15.931 9.29238 15.7317 9.21375 15.3332V14.1758H10.8032ZM9.67235 15.3361C9.54571 15.3361 9.44305 15.44 9.44305 15.5682C9.44305 15.6963 9.54571 15.8002 9.67235 15.8002C9.79899 15.8002 9.90165 15.6963 9.90165 15.5682C9.90165 15.44 9.79899 15.3361 9.67235 15.3361ZM10.3603 15.3361C10.2336 15.3361 10.131 15.44 10.131 15.5682C10.131 15.6963 10.2336 15.8002 10.3603 15.8002C10.4869 15.8002 10.5896 15.6963 10.5896 15.5682C10.5896 15.44 10.4869 15.3361 10.3603 15.3361ZM10.0163 14.872C9.88966 14.872 9.787 14.9759 9.787 15.104C9.787 15.2322 9.88966 15.3361 10.0163 15.3361C10.1429 15.3361 10.2456 15.2322 10.2456 15.104C10.2456 14.9759 10.1429 14.872 10.0163 14.872ZM9.67235 14.4078C9.54571 14.4078 9.44305 14.5117 9.44305 14.6399C9.44305 14.7681 9.54571 14.872 9.67235 14.872C9.79899 14.872 9.90165 14.7681 9.90165 14.6399C9.90165 14.5117 9.79899 14.4078 9.67235 14.4078ZM10.3603 14.4078C10.2336 14.4078 10.131 14.5117 10.131 14.6399C10.131 14.7681 10.2336 14.872 10.3603 14.872C10.4869 14.872 10.5896 14.7681 10.5896 14.6399C10.5896 14.5117 10.4869 14.4078 10.3603 14.4078Z" fill="#013399"/>
<path id="Path-214_5" d="M12.8669 14.1758V15.3332C12.7883 15.7317 12.5234 15.931 12.0722 15.931C11.621 15.931 11.3561 15.7317 11.2775 15.3332V14.1758H12.8669ZM11.7361 15.3361C11.6094 15.3361 11.5068 15.44 11.5068 15.5682C11.5068 15.6963 11.6094 15.8002 11.7361 15.8002C11.8627 15.8002 11.9654 15.6963 11.9654 15.5682C11.9654 15.44 11.8627 15.3361 11.7361 15.3361ZM12.424 15.3361C12.2973 15.3361 12.1947 15.44 12.1947 15.5682C12.1947 15.6963 12.2973 15.8002 12.424 15.8002C12.5506 15.8002 12.6533 15.6963 12.6533 15.5682C12.6533 15.44 12.5506 15.3361 12.424 15.3361ZM12.08 14.872C11.9534 14.872 11.8507 14.9759 11.8507 15.104C11.8507 15.2322 11.9534 15.3361 12.08 15.3361C12.2067 15.3361 12.3093 15.2322 12.3093 15.104C12.3093 14.9759 12.2067 14.872 12.08 14.872ZM11.7361 14.4078C11.6094 14.4078 11.5068 14.5117 11.5068 14.6399C11.5068 14.7681 11.6094 14.872 11.7361 14.872C11.8627 14.872 11.9654 14.7681 11.9654 14.6399C11.9654 14.5117 11.8627 14.4078 11.7361 14.4078ZM12.424 14.4078C12.2973 14.4078 12.1947 14.5117 12.1947 14.6399C12.1947 14.7681 12.2973 14.872 12.424 14.872C12.5506 14.872 12.6533 14.7681 12.6533 14.6399C12.6533 14.5117 12.5506 14.4078 12.424 14.4078Z" fill="#013399"/>
<path id="Path-214_6" d="M8.73949 14.1758V15.3332C8.66085 15.7317 8.39594 15.931 7.94476 15.931C7.49357 15.931 7.22866 15.7317 7.15002 15.3332V14.1758H8.73949ZM7.60863 15.3361C7.48199 15.3361 7.37933 15.44 7.37933 15.5682C7.37933 15.6963 7.48199 15.8002 7.60863 15.8002C7.73527 15.8002 7.83793 15.6963 7.83793 15.5682C7.83793 15.44 7.73527 15.3361 7.60863 15.3361ZM8.29653 15.3361C8.16989 15.3361 8.06723 15.44 8.06723 15.5682C8.06723 15.6963 8.16989 15.8002 8.29653 15.8002C8.42317 15.8002 8.52584 15.6963 8.52584 15.5682C8.52584 15.44 8.42317 15.3361 8.29653 15.3361ZM7.95258 14.872C7.82594 14.872 7.72328 14.9759 7.72328 15.104C7.72328 15.2322 7.82594 15.3361 7.95258 15.3361C8.07922 15.3361 8.18188 15.2322 8.18188 15.104C8.18188 14.9759 8.07922 14.872 7.95258 14.872ZM7.60863 14.4078C7.48199 14.4078 7.37933 14.5117 7.37933 14.6399C7.37933 14.7681 7.48199 14.872 7.60863 14.872C7.73527 14.872 7.83793 14.7681 7.83793 14.6399C7.83793 14.5117 7.73527 14.4078 7.60863 14.4078ZM8.29653 14.4078C8.16989 14.4078 8.06723 14.5117 8.06723 14.6399C8.06723 14.7681 8.16989 14.872 8.29653 14.872C8.42317 14.872 8.52584 14.7681 8.52584 14.6399C8.52584 14.5117 8.42317 14.4078 8.29653 14.4078Z" fill="#013399"/>
<path id="Path-214_7" d="M10.8032 16.7285V17.886C10.7246 18.2844 10.4597 18.4837 10.0085 18.4837C9.55729 18.4837 9.29238 18.2844 9.21375 17.886V16.7285H10.8032ZM9.67235 17.8888C9.54571 17.8888 9.44305 17.9927 9.44305 18.1209C9.44305 18.2491 9.54571 18.353 9.67235 18.353C9.79899 18.353 9.90165 18.2491 9.90165 18.1209C9.90165 17.9927 9.79899 17.8888 9.67235 17.8888ZM10.3603 17.8888C10.2336 17.8888 10.131 17.9927 10.131 18.1209C10.131 18.2491 10.2336 18.353 10.3603 18.353C10.4869 18.353 10.5896 18.2491 10.5896 18.1209C10.5896 17.9927 10.4869 17.8888 10.3603 17.8888ZM10.0163 17.4247C9.88966 17.4247 9.787 17.5286 9.787 17.6568C9.787 17.7849 9.88966 17.8888 10.0163 17.8888C10.1429 17.8888 10.2456 17.7849 10.2456 17.6568C10.2456 17.5286 10.1429 17.4247 10.0163 17.4247ZM9.67235 16.9606C9.54571 16.9606 9.44305 17.0645 9.44305 17.1926C9.44305 17.3208 9.54571 17.4247 9.67235 17.4247C9.79899 17.4247 9.90165 17.3208 9.90165 17.1926C9.90165 17.0645 9.79899 16.9606 9.67235 16.9606ZM10.3603 16.9606C10.2336 16.9606 10.131 17.0645 10.131 17.1926C10.131 17.3208 10.2336 17.4247 10.3603 17.4247C10.4869 17.4247 10.5896 17.3208 10.5896 17.1926C10.5896 17.0645 10.4869 16.9606 10.3603 16.9606Z" fill="#013399"/>
</g>
</g>
</g>
</g>
</g>
</g>
</g>
</g>
<g id="Group-Clipped_2">
<mask id="mask13_1602_1689" style="mask-type:alpha" maskUnits="userSpaceOnUse" x="0" y="0" width="30" height="30">
<g id="mask-28">
<path id="Vector_14" d="M14.946 29.435C22.9243 29.435 29.3921 22.9673 29.3921 14.989C29.3921 7.01068 22.9243 0.542969 14.946 0.542969C6.96771 0.542969 0.5 7.01068 0.5 14.989C0.5 22.9673 6.96771 29.435 14.946 29.435Z" fill="white"/>
</g>
</mask>
<g mask="url(#mask13_1602_1689)">
<g id="Group_2">
<g id="BR_2">
<g id="drop-shadow">
<path id="path-7" d="M32.763 0.542969H-2.87058C-3.66841 0.542969 -4.31519 1.18974 -4.31519 1.98757V27.9904C-4.31519 28.7883 -3.66841 29.435 -2.87058 29.435H32.763C33.5608 29.435 34.2076 28.7883 34.2076 27.9904V1.98757C34.2076 1.18974 33.5608 0.542969 32.763 0.542969Z" fill="black"/>
</g>
<g id="Group-Clipped_3">
<mask id="mask14_1602_1689" style="mask-type:alpha" maskUnits="userSpaceOnUse" x="-5" y="0" width="40" height="30">
<g id="mask-30">
<path id="Vector_15" d="M32.763 0.542969H-2.87058C-3.66841 0.542969 -4.31519 1.18974 -4.31519 1.98757V27.9904C-4.31519 28.7883 -3.66841 29.435 -2.87058 29.435H32.763C33.5608 29.435 34.2076 28.7883 34.2076 27.9904V1.98757C34.2076 1.18974 33.5608 0.542969 32.763 0.542969Z" fill="white"/>
</g>
</mask>
<g mask="url(#mask14_1602_1689)">
<g id="Group_3">
<g id="contents-Clipped_2">
<mask id="mask15_1602_1689" style="mask-type:alpha" maskUnits="userSpaceOnUse" x="-5" y="0" width="40" height="30">
<g id="mask-32">
<path id="Vector_16" d="M34.2076 0.542969H-4.31519V29.435H34.2076V0.542969Z" fill="white"/>
</g>
</mask>
<g mask="url(#mask15_1602_1689)">
<g id="contents_2">
<g id="background">
<path id="path-12" d="M34.2076 0.542969H-4.31519V29.435H34.2076V0.542969Z" fill="#009933"/>
</g>
<g id="flag-contents-Clipped">
<mask id="mask16_1602_1689" style="mask-type:alpha" maskUnits="userSpaceOnUse" x="-5" y="0" width="40" height="30">
<g id="mask-34">
<path id="Vector_17" d="M34.2076 0.542969H-4.31519V29.435H34.2076V0.542969Z" fill="white"/>
</g>
</mask>
<g mask="url(#mask16_1602_1689)">
<g id="flag-contents">
<g id="Group_4">
<g id="yellow-diamond">
<g id="path-15-link">
<path id="path-15" d="M14.858 5.00195L29.5471 15.2387L14.6582 24.8258L0.270142 15.0403L14.858 5.00195Z" fill="black"/>
</g>
<g id="path-15-link_2">
<path id="path-15_2" fill-rule="evenodd" clip-rule="evenodd" d="M14.858 5.00195L29.5471 15.2387L14.6582 24.8258L0.270142 15.0403L14.858 5.00195Z" fill="#FFD221"/>
</g>
<g id="path-15-link_3">
<path id="path-15_3" fill-rule="evenodd" clip-rule="evenodd" d="M14.858 5.00195L29.5471 15.2387L14.6582 24.8258L0.270142 15.0403L14.858 5.00195Z" fill="url(#paint0_linear_1602_1689)"/>
</g>
</g>
<g id="Oval-10">
<path id="path-17" d="M14.9463 21.2483C18.2706 21.2483 20.9655 18.5534 20.9655 15.2291C20.9655 11.9048 18.2706 9.20996 14.9463 9.20996C11.622 9.20996 8.92712 11.9048 8.92712 15.2291C8.92712 18.5534 11.622 21.2483 14.9463 21.2483Z" fill="#2E42A5"/>
</g>
<g id="Star-4-Clipped">
<mask id="mask17_1602_1689" style="mask-type:alpha" maskUnits="userSpaceOnUse" x="8" y="9" width="13" height="13">
<g id="mask-37">
<path id="Vector_18" d="M14.9463 21.2483C18.2706 21.2483 20.9655 18.5534 20.9655 15.2291C20.9655 11.9048 18.2706 9.20996 14.9463 9.20996C11.622 9.20996 8.92712 11.9048 8.92712 15.2291C8.92712 18.5534 11.622 21.2483 14.9463 21.2483Z" fill="white"/>
</g>
</mask>
<g mask="url(#mask17_1602_1689)">
<path id="Star-4" d="M12.9961 18.0827L12.7272 18.224L12.7786 17.9246L12.561 17.7126L12.8617 17.6689L12.9961 17.3965L13.1305 17.6689L13.4312 17.7126L13.2136 17.9246L13.265 18.224L12.9961 18.0827Z" fill="#F7FCFF"/>
</g>
</g>
<g id="Star-4-Clipped_2">
<mask id="mask18_1602_1689" style="mask-type:alpha" maskUnits="userSpaceOnUse" x="8" y="9" width="13" height="13">
<g id="mask-39">
<path id="Vector_19" d="M14.9463 21.2483C18.2706 21.2483 20.9655 18.5534 20.9655 15.2291C20.9655 11.9048 18.2706 9.20996 14.9463 9.20996C11.622 9.20996 8.92712 11.9048 8.92712 15.2291C8.92712 18.5534 11.622 21.2483 14.9463 21.2483Z" fill="white"/>
</g>
</mask>
<g mask="url(#mask18_1602_1689)">
<path id="Star-4_2" d="M15.4038 18.0827L15.1349 18.224L15.1863 17.9246L14.9688 17.7126L15.2694 17.6689L15.4038 17.3965L15.5383 17.6689L15.8389 17.7126L15.6214 17.9246L15.6727 18.224L15.4038 18.0827Z" fill="#F7FCFF"/>
</g>
</g>
<g id="Star-4-Clipped_3">
<mask id="mask19_1602_1689" style="mask-type:alpha" maskUnits="userSpaceOnUse" x="8" y="9" width="13" height="13">
<g id="mask-41">
<path id="Vector_20" d="M14.9463 21.2483C18.2706 21.2483 20.9655 18.5534 20.9655 15.2291C20.9655 11.9048 18.2706 9.20996 14.9463 9.20996C11.622 9.20996 8.92712 11.9048 8.92712 15.2291C8.92712 18.5534 11.622 21.2483 14.9463 21.2483Z" fill="white"/>
</g>
</mask>
<g mask="url(#mask19_1602_1689)">
<path id="Star-4_3" d="M15.4038 19.527L15.1349 19.6684L15.1863 19.369L14.9688 19.1569L15.2694 19.1132L15.4038 18.8408L15.5383 19.1132L15.8389 19.1569L15.6214 19.369L15.6727 19.6684L15.4038 19.527Z" fill="#F7FCFF"/>
</g>
</g>
<g id="Star-4-Clipped_4">
<mask id="mask20_1602_1689" style="mask-type:alpha" maskUnits="userSpaceOnUse" x="8" y="9" width="13" height="13">
<g id="mask-43">
<path id="Vector_21" d="M14.9463 21.2483C18.2706 21.2483 20.9655 18.5534 20.9655 15.2291C20.9655 11.9048 18.2706 9.20996 14.9463 9.20996C11.622 9.20996 8.92712 11.9048 8.92712 15.2291C8.92712 18.5534 11.622 21.2483 14.9463 21.2483Z" fill="white"/>
</g>
</mask>
<g mask="url(#mask20_1602_1689)">
<path id="Star-4_4" d="M14.2 14.4704L13.9311 14.6117L13.9824 14.3123L13.7649 14.1003L14.0655 14.0566L14.2 13.7842L14.3344 14.0566L14.635 14.1003L14.4175 14.3123L14.4688 14.6117L14.2 14.4704Z" fill="#F7FCFF"/>
</g>
</g>
<g id="Star-4-Clipped_5">
<mask id="mask21_1602_1689" style="mask-type:alpha" maskUnits="userSpaceOnUse" x="8" y="9" width="13" height="13">
<g id="mask-45">
<path id="Vector_22" d="M14.9463 21.2483C18.2706 21.2483 20.9655 18.5534 20.9655 15.2291C20.9655 11.9048 18.2706 9.20996 14.9463 9.20996C11.622 9.20996 8.92712 11.9048 8.92712 15.2291C8.92712 18.5534 11.622 21.2483 14.9463 21.2483Z" fill="white"/>
</g>
</mask>
<g mask="url(#mask21_1602_1689)">
<path id="Star-4_5" d="M14.2 16.8786L13.9311 17.0199L13.9824 16.7205L13.7649 16.5085L14.0655 16.4648L14.2 16.1924L14.3344 16.4648L14.635 16.5085L14.4175 16.7205L14.4688 17.0199L14.2 16.8786Z" fill="#F7FCFF"/>
</g>
</g>
<g id="Star-4-Clipped_6">
<mask id="mask22_1602_1689" style="mask-type:alpha" maskUnits="userSpaceOnUse" x="8" y="9" width="13" height="13">
<g id="mask-47">
<path id="Vector_23" d="M14.9463 21.2483C18.2706 21.2483 20.9655 18.5534 20.9655 15.2291C20.9655 11.9048 18.2706 9.20996 14.9463 9.20996C11.622 9.20996 8.92712 11.9048 8.92712 15.2291C8.92712 18.5534 11.622 21.2483 14.9463 21.2483Z" fill="white"/>
</g>
</mask>
<g mask="url(#mask22_1602_1689)">
<path id="Star-4_6" d="M12.5145 15.6745L12.2456 15.8158L12.297 15.5164L12.0795 15.3044L12.3801 15.2607L12.5145 14.9883L12.649 15.2607L12.9496 15.3044L12.7321 15.5164L12.7834 15.8158L12.5145 15.6745Z" fill="#F7FCFF"/>
</g>
</g>
<g id="Star-4-Clipped_7">
<mask id="mask23_1602_1689" style="mask-type:alpha" maskUnits="userSpaceOnUse" x="8" y="9" width="13" height="13">
<g id="mask-49">
<path id="Vector_24" d="M14.9463 21.2483C18.2706 21.2483 20.9655 18.5534 20.9655 15.2291C20.9655 11.9048 18.2706 9.20996 14.9463 9.20996C11.622 9.20996 8.92712 11.9048 8.92712 15.2291C8.92712 18.5534 11.622 21.2483 14.9463 21.2483Z" fill="white"/>
</g>
</mask>
<g mask="url(#mask23_1602_1689)">
<path id="Star-4_7" d="M10.8292 16.6374L10.5603 16.7787L10.6117 16.4793L10.3942 16.2673L10.6948 16.2236L10.8292 15.9512L10.9637 16.2236L11.2643 16.2673L11.0468 16.4793L11.0981 16.7787L10.8292 16.6374Z" fill="#F7FCFF"/>
</g>
</g>
<g id="Star-4-Clipped_8">
<mask id="mask24_1602_1689" style="mask-type:alpha" maskUnits="userSpaceOnUse" x="8" y="9" width="13" height="13">
<g id="mask-51">
<path id="Vector_25" d="M14.9463 21.2483C18.2706 21.2483 20.9655 18.5534 20.9655 15.2291C20.9655 11.9048 18.2706 9.20996 14.9463 9.20996C11.622 9.20996 8.92712 11.9048 8.92712 15.2291C8.92712 18.5534 11.622 21.2483 14.9463 21.2483Z" fill="white"/>
</g>
</mask>
<g mask="url(#mask24_1602_1689)">
<path id="Star-4_8" d="M16.3668 12.5446L16.0979 12.6859L16.1493 12.3865L15.9318 12.1745L16.2324 12.1308L16.3668 11.8584L16.5013 12.1308L16.8019 12.1745L16.5844 12.3865L16.6357 12.6859L16.3668 12.5446Z" fill="#F7FCFF"/>
</g>
</g>
<g id="Path-9-Clipped">
<mask id="mask25_1602_1689" style="mask-type:alpha" maskUnits="userSpaceOnUse" x="8" y="9" width="13" height="13">
<g id="mask-53">
<path id="Vector_26" d="M14.9463 21.2483C18.2706 21.2483 20.9655 18.5534 20.9655 15.2291C20.9655 11.9048 18.2706 9.20996 14.9463 9.20996C11.622 9.20996 8.92712 11.9048 8.92712 15.2291C8.92712 18.5534 11.622 21.2483 14.9463 21.2483Z" fill="white"/>
</g>
</mask>
<g mask="url(#mask25_1602_1689)">
<path id="Path-9" d="M7.63281 13.7817L7.81385 11.3809C13.5898 11.8164 18.1486 13.7155 21.4329 17.0938L19.7066 18.7721C16.86 15.8441 12.8545 14.1755 7.63281 13.7817Z" fill="#F7FCFF"/>
</g>
</g>
<g id="Path-2-Clipped">
<mask id="mask26_1602_1689" style="mask-type:alpha" maskUnits="userSpaceOnUse" x="8" y="9" width="13" height="13">
<g id="mask-55">
<path id="Vector_27" d="M14.9463 21.2483C18.2706 21.2483 20.9655 18.5534 20.9655 15.2291C20.9655 11.9048 18.2706 9.20996 14.9463 9.20996C11.622 9.20996 8.92712 11.9048 8.92712 15.2291C8.92712 18.5534 11.622 21.2483 14.9463 21.2483Z" fill="white"/>
</g>
</mask>
<g mask="url(#mask26_1602_1689)">
<path id="Path-2" d="M10.4795 13.3067L10.5415 12.708C14.2649 13.0937 17.4586 14.5199 20.1129 16.9834L19.7034 17.4246C17.1457 15.0507 14.0743 13.6791 10.4795 13.3067Z" fill="#009933"/>
</g>
</g>
</g>
</g>
</g>
</g>
</g>
</g>
</g>
</g>
</g>
</g>
<g id="overlay-Clipped">
<mask id="mask27_1602_1689" style="mask-type:alpha" maskUnits="userSpaceOnUse" x="-5" y="0" width="40" height="30">
<g id="mask-57">
<path id="Vector_28" d="M32.763 0.542969H-2.87058C-3.66841 0.542969 -4.31519 1.18974 -4.31519 1.98757V27.9904C-4.31519 28.7883 -3.66841 29.435 -2.87058 29.435H32.763C33.5608 29.435 34.2076 28.7883 34.2076 27.9904V1.98757C34.2076 1.18974 33.5608 0.542969 32.763 0.542969Z" fill="white"/>
</g>
</mask>
<g mask="url(#mask27_1602_1689)">
<g id="overlay">
<g id="Rectangle">
<path id="Vector_29" d="M32.161 1.14453H-2.26865C-3.06649 1.14453 -3.71326 1.7913 -3.71326 2.58913V27.3882C-3.71326 28.186 -3.06649 28.8328 -2.26865 28.8328H32.161C32.9589 28.8328 33.6056 28.186 33.6056 27.3882V2.58913C33.6056 1.7913 32.9589 1.14453 32.161 1.14453Z" stroke="black" stroke-opacity="0.1" stroke-width="0.849766"/>
</g>
</g>
</g>
</g>
</g>
</g>
</g>
</g>
</g>
<defs>
<linearGradient id="paint0_linear_1602_1689" x1="14.9086" y1="24.8258" x2="14.9086" y2="5.00195" gradientUnits="userSpaceOnUse">
<stop stop-color="#FFC600"/>
<stop offset="1" stop-color="#FFDE42"/>
</linearGradient>
</defs>
</svg>
