<svg width="30" height="30" viewBox="0 0 30 30" fill="none" xmlns="http://www.w3.org/2000/svg">
<g id="Artboard">
<g id="US-Copy">
<mask id="mask0_1602_1657" style="mask-type:alpha" maskUnits="userSpaceOnUse" x="0" y="0" width="30" height="30">
<g id="mask-2">
<path id="Vector" d="M14.946 29.1391C22.9243 29.1391 29.3921 22.6714 29.3921 14.6931C29.3921 6.71478 22.9243 0.24707 14.946 0.24707C6.96771 0.24707 0.5 6.71478 0.5 14.6931C0.5 22.6714 6.96771 29.1391 14.946 29.1391Z" fill="white"/>
</g>
</mask>
<g mask="url(#mask0_1602_1657)">
<g id="Group">
<g id="flag">
<mask id="mask1_1602_1657" style="mask-type:alpha" maskUnits="userSpaceOnUse" x="-5" y="0" width="39" height="30">
<g id="mask-4">
<path id="Vector_2" d="M33.7259 0.24707H-4.55603V29.1391H33.7259V0.24707Z" fill="white"/>
</g>
</mask>
<g mask="url(#mask1_1602_1657)">
<g id="contents">
<path id="middle" fill-rule="evenodd" clip-rule="evenodd" d="M-4.55603 0.24707H33.7259V29.1391H-4.55603V0.24707Z" fill="#F7FCFF"/>
<path id="Combined-Shape" d="M33.7259 17.9033H-4.55603V20.311H33.7259V17.9033Z" fill="#E31D1C"/>
<path id="Combined-Shape_2" d="M33.7259 22.3174H-4.55603V24.7251H33.7259V22.3174Z" fill="#E31D1C"/>
<path id="Combined-Shape_3" d="M33.7259 9.0752H-4.55603V11.4829H33.7259V9.0752Z" fill="#E31D1C"/>
<path id="Combined-Shape_4" d="M33.7259 26.7314H-4.55603V29.1391H33.7259V26.7314Z" fill="#E31D1C"/>
<path id="Combined-Shape_5" d="M33.7259 13.4893H-4.55603V15.8969H33.7259V13.4893Z" fill="#E31D1C"/>
<path id="Combined-Shape_6" d="M33.7259 0.24707H-4.55603V2.65474H33.7259V0.24707Z" fill="#E31D1C"/>
<path id="Combined-Shape_7" d="M33.7259 4.66113H-4.55603V7.0688H33.7259V4.66113Z" fill="#E31D1C"/>
<path id="Rectangle-82" d="M19.3702 0.24707H-4.55603V15.8969H19.3702V0.24707Z" fill="#2E42A5"/>
<path id="Combined-Shape_8" fill-rule="evenodd" clip-rule="evenodd" d="M-2.49714 11.3572L-2.10095 12.247H-1.24217L-1.91693 12.9379L-1.65571 14.0281L-2.49592 13.4154L-3.3643 14.0281L-3.07113 12.9379L-3.84241 12.247H-2.83501L-2.49714 11.3572ZM2.28811 11.3572L2.68429 12.247H3.54307L2.86831 12.9379L3.12954 14.0281L2.28932 13.4154L1.42095 14.0281L1.71412 12.9379L0.942839 12.247H1.95024L2.28811 11.3572ZM7.07336 11.3572L7.46954 12.247H8.32832L7.65356 12.9379L7.91479 14.0281L7.07457 13.4154L6.20619 14.0281L6.49937 12.9379L5.72809 12.247H6.73548L7.07336 11.3572ZM11.8586 11.3572L12.2548 12.247H13.1136L12.4388 12.9379L12.7 14.0281L11.8598 13.4154L10.9914 14.0281L11.2846 12.9379L10.5133 12.247H11.5207L11.8586 11.3572ZM16.6438 11.3572L17.04 12.247H17.8988L17.2241 12.9379L17.4853 14.0281L16.6451 13.4154L15.7767 14.0281L16.0699 12.9379L15.2986 12.247H16.306L16.6438 11.3572ZM-0.104512 8.94958L0.291672 9.83929H1.15045L0.475688 10.5302L0.736917 11.6204L-0.103298 11.0078L-0.971676 11.6204L-0.678503 10.5302L-1.44978 9.83929H-0.442385L-0.104512 8.94958ZM4.68073 8.94958L5.07692 9.83929H5.9357L5.26093 10.5302L5.52216 11.6204L4.68195 11.0078L3.81357 11.6204L4.10674 10.5302L3.33546 9.83929H4.34286L4.68073 8.94958ZM9.46598 8.94958L9.86216 9.83929H10.7209L10.0462 10.5302L10.3074 11.6204L9.46719 11.0078L8.59882 11.6204L8.89199 10.5302L8.12071 9.83929H9.12811L9.46598 8.94958ZM14.2512 8.94958L14.6474 9.83929H15.5062L14.8314 10.5302L15.0927 11.6204L14.2524 11.0078L13.3841 11.6204L13.6772 10.5302L12.906 9.83929H13.9134L14.2512 8.94958ZM7.07336 6.54191L7.46954 7.43162H8.32832L7.65356 8.12252L7.91479 9.21272L7.07457 8.60011L6.20619 9.21272L6.49937 8.12252L5.72809 7.43162H6.73548L7.07336 6.54191ZM11.8586 6.54191L12.2548 7.43162H13.1136L12.4388 8.12252L12.7 9.21272L11.8598 8.60011L10.9914 9.21272L11.2846 8.12252L10.5133 7.43162H11.5207L11.8586 6.54191ZM-2.49714 6.54191L-2.10095 7.43162H-1.24217L-1.91693 8.12252L-1.65571 9.21272L-2.49592 8.60011L-3.3643 9.21272L-3.07113 8.12252L-3.84241 7.43162H-2.83501L-2.49714 6.54191ZM2.28811 6.54191L2.68429 7.43162H3.54307L2.86831 8.12252L3.12954 9.21272L2.28932 8.60011L1.42095 9.21272L1.71412 8.12252L0.942839 7.43162H1.95024L2.28811 6.54191ZM16.6438 6.54191L17.04 7.43162H17.8988L17.2241 8.12252L17.4853 9.21272L16.6451 8.60011L15.7767 9.21272L16.0699 8.12252L15.2986 7.43162H16.306L16.6438 6.54191ZM-0.104512 4.13423L0.291672 5.02395H1.15045L0.475688 5.71485L0.736917 6.80505L-0.103298 6.19243L-0.971676 6.80505L-0.678503 5.71485L-1.44978 5.02395H-0.442385L-0.104512 4.13423ZM4.68073 4.13423L5.07692 5.02395H5.9357L5.26093 5.71485L5.52216 6.80505L4.68195 6.19243L3.81357 6.80505L4.10674 5.71485L3.33546 5.02395H4.34286L4.68073 4.13423ZM9.46598 4.13423L9.86216 5.02395H10.7209L10.0462 5.71485L10.3074 6.80505L9.46719 6.19243L8.59882 6.80505L8.89199 5.71485L8.12071 5.02395H9.12811L9.46598 4.13423ZM14.2512 4.13423L14.6474 5.02395H15.5062L14.8314 5.71485L15.0927 6.80505L14.2524 6.19243L13.3841 6.80505L13.6772 5.71485L12.906 5.02395H13.9134L14.2512 4.13423ZM-2.49714 1.72656L-2.10095 2.61628H-1.24217L-1.91693 3.30717L-1.65571 4.39738L-2.49592 3.78476L-3.3643 4.39738L-3.07113 3.30717L-3.84241 2.61628H-2.83501L-2.49714 1.72656ZM2.28811 1.72656L2.68429 2.61628H3.54307L2.86831 3.30717L3.12954 4.39738L2.28932 3.78476L1.42095 4.39738L1.71412 3.30717L0.942839 2.61628H1.95024L2.28811 1.72656ZM7.07336 1.72656L7.46954 2.61628H8.32832L7.65356 3.30717L7.91479 4.39738L7.07457 3.78476L6.20619 4.39738L6.49937 3.30717L5.72809 2.61628H6.73548L7.07336 1.72656ZM11.8586 1.72656L12.2548 2.61628H13.1136L12.4388 3.30717L12.7 4.39738L11.8598 3.78476L10.9914 4.39738L11.2846 3.30717L10.5133 2.61628H11.5207L11.8586 1.72656ZM16.6438 1.72656L17.04 2.61628H17.8988L17.2241 3.30717L17.4853 4.39738L16.6451 3.78476L15.7767 4.39738L16.0699 3.30717L15.2986 2.61628H16.306L16.6438 1.72656Z" fill="#F7FCFF"/>
</g>
</g>
</g>
</g>
</g>
</g>
</g>
</svg>
