<svg width="19" height="18" viewBox="0 0 19 18" fill="none" xmlns="http://www.w3.org/2000/svg">
<g id="Isolation_Mode" clip-path="url(#clip0_1602_2304)">
<g id="Group">
<path id="Vector" d="M8.33385 6.02731C8.33385 5.61192 7.94627 5.27539 7.46788 5.27539H5.0916C1.7422 5.27539 0.209798 7.21517 0.146481 7.29736C-0.0537032 7.55782 -0.0479471 7.89768 0.161191 8.15258L1.67824 9.9974C1.84772 10.2029 2.11378 10.3123 2.38368 10.3123C2.55764 10.3123 2.73416 10.2673 2.88638 10.1723C2.93307 10.1435 2.974 10.1112 3.01237 10.0763L3.00789 10.5994L2.47322 16.1777C2.42909 16.6375 2.82242 17.0413 3.35134 17.0796C3.88154 17.1196 4.3465 16.7758 4.39063 16.316L4.90484 10.952H5.27963L5.79384 16.316C5.83541 16.7525 6.25624 17.0824 6.75127 17.0824C6.77813 17.0824 6.80499 17.0818 6.83249 17.0796C7.36205 17.0413 7.75538 16.6375 7.71126 16.1777L7.17658 10.5994L7.1446 6.77868H7.46724C7.94499 6.77868 8.33385 6.4427 8.33385 6.02731ZM3.02069 9.04167L1.97308 7.76718C2.211 7.57725 2.56595 7.34845 3.03604 7.15798L3.02069 9.04167ZM5.61732 8.96004L5.16451 9.3932C5.12613 9.4304 5.05898 9.4304 5.0206 9.3932L4.56779 8.96004C4.54861 8.94171 4.53965 8.91672 4.54285 8.89173L4.91572 6.52267H4.73984C4.68547 6.52267 4.64198 6.48491 4.64198 6.43826V5.95012C4.64198 5.90347 4.68547 5.86571 4.73984 5.86571H5.44528C5.499 5.86571 5.54249 5.90347 5.54249 5.95012V6.43826C5.54249 6.48491 5.499 6.52267 5.44528 6.52267H5.26876L5.64162 8.89173C5.64546 8.91672 5.63587 8.94171 5.61732 8.96004Z" fill="#203A72"/>
<path id="Vector_2" d="M5.09159 4.83976C6.15519 4.83976 7.01732 4.09117 7.01732 3.16821C7.01732 2.24524 6.15583 1.49609 5.09159 1.49609C4.02736 1.49609 3.1665 2.24468 3.1665 3.16821C3.1665 4.09173 4.02864 4.83976 5.09159 4.83976Z" fill="#203A72"/>
</g>
<path id="Vector_3" d="M18.1485 0.977539H8.19861C7.86859 0.977539 7.59998 1.21078 7.59998 1.49733V4.64941C8.31373 4.79602 8.85096 5.3558 8.85096 6.02886C8.85096 6.70193 8.31373 7.25504 7.59998 7.40832V10.1939C7.59998 10.4804 7.86859 10.7137 8.19861 10.7137H10.9632L9.33615 16.4247C9.25173 16.7046 9.45127 16.9845 9.77361 17.0578C10.096 17.1245 10.4183 16.9512 10.5027 16.678L12.2065 10.7137H14.1406L15.8444 16.678C15.9134 16.9112 16.159 17.0711 16.4276 17.0711C16.4737 17.0711 16.5274 17.0645 16.5735 17.0578C16.8958 16.9845 17.0954 16.7046 17.0109 16.4247L15.3839 10.7137H18.1485C18.4785 10.7137 18.7471 10.4804 18.7471 10.1939V1.49733C18.7471 1.21078 18.4785 0.977539 18.1485 0.977539ZM15.0078 3.88416C15.0078 3.74089 15.1415 3.62482 15.3065 3.62482H15.5525C15.7175 3.62482 15.8512 3.74089 15.8512 3.88416V8.14858H15.0078V3.88416ZM12.2769 2.55913C12.2769 2.41586 12.4105 2.29979 12.5755 2.29979H13.7715C13.9365 2.29979 14.0702 2.41586 14.0702 2.55913V8.14858H12.2769V2.55913ZM10.4959 5.17698C10.4959 5.0337 10.6296 4.91764 10.7946 4.91764H11.0406C11.2056 4.91764 11.3393 5.0337 11.3393 5.17698V8.14858H10.4959V5.17698ZM17.2134 9.17706C17.2134 9.31422 17.0855 9.42585 16.9269 9.42585H9.42082C9.26284 9.42585 9.13429 9.31478 9.13429 9.17706V8.93882C9.13429 8.80165 9.2622 8.69003 9.42082 8.69003H16.9269C17.0855 8.69003 17.2134 8.80165 17.2134 8.93882V9.17706Z" fill="#016CCD"/>
</g>
<defs>
<clipPath id="clip0_1602_2304">
<rect width="19" height="17" fill="white" transform="translate(0 0.0830078)"/>
</clipPath>
</defs>
</svg>
