<svg width="62" height="54" viewBox="0 0 62 54" fill="none" xmlns="http://www.w3.org/2000/svg">
<g id="Isolation_Mode" clip-path="url(#clip0_1170_364)">
<path id="Vector" d="M39.3112 26.4334L39.5175 28.4014C40.4223 28.4231 41.3895 28.4426 42.3759 28.4231C42.6424 25.9376 44.7401 23.989 47.2697 23.989C48.5871 23.989 49.8208 24.5064 50.7449 25.4396C51.5466 26.2277 52.0409 27.241 52.1634 28.3408H52.4729C53.7473 28.2997 54.693 27.1803 54.5705 25.8964L53.9537 19.8882C53.6033 16.9264 51.4241 14.6054 48.6473 13.9212L45.892 20.882L45.2945 15.8676H45.6857C45.9329 15.8676 46.1177 15.6598 46.1177 15.4108V14.0641C46.1177 13.8368 45.9329 13.6289 45.6857 13.6289H43.5064C43.2593 13.6289 43.0744 13.8368 43.0744 14.0641V15.4108C43.0744 15.6598 43.2593 15.8676 43.5064 15.8676H43.8976L43.3001 20.882L40.5448 13.9212C37.8497 14.5837 35.7328 16.7813 35.2793 19.6176C37.4586 21.1916 38.9609 23.6577 39.309 26.4334H39.3112Z" fill="#013D6E"/>
<path id="Vector_2" d="M31.3326 20.7354L28.5774 27.6963L27.9799 22.6819H28.3711C28.6182 22.6819 28.8245 22.474 28.8245 22.2272V20.8805C28.8245 20.6532 28.6182 20.4453 28.3711 20.4453H26.1918C25.9446 20.4453 25.7598 20.6532 25.7598 20.8805V22.2272C25.7598 22.4762 25.9446 22.6819 26.1918 22.6819H26.6044L25.9876 27.6963L23.2323 20.7354C20.5372 21.398 18.4203 23.615 17.9668 26.4535C20.1461 28.008 21.6484 30.4719 21.9987 33.2476L22.205 35.2157C26.3594 35.298 31.9946 35.2785 35.1604 35.1529C36.4348 35.1118 37.3805 33.9924 37.258 32.7085L36.6412 26.7003C36.2908 23.7384 34.133 21.4174 31.3348 20.7333L31.3326 20.7354Z" fill="#013D6E"/>
<path id="Vector_3" d="M14.0352 27.5597L11.2735 34.5141L10.6738 29.4889H11.0714C11.3122 29.4889 11.5077 29.2918 11.5077 29.0493V27.6983C11.5077 27.4558 11.3143 27.2588 11.0714 27.2588H8.88571C8.64715 27.2588 8.45157 27.4558 8.45157 27.6983V29.0493C8.45157 29.2918 8.64715 29.4889 8.88571 29.4889H9.28331L8.68369 34.5162L5.91982 27.5576C3.14306 28.2266 0.97452 30.5541 0.619903 33.5225L0.0116802 39.5306C-0.117272 40.808 0.836971 41.9296 2.1093 41.975C6.06811 42.1223 13.889 42.1223 17.85 41.975C19.1223 41.9274 20.0766 40.8059 19.9476 39.5306L19.3372 33.5246C18.9826 30.5562 16.8119 28.2266 14.033 27.5576L14.0352 27.5597Z" fill="#013D6E"/>
<path id="Vector_4" d="M44.5963 12.4407C48.0071 12.4407 50.771 9.65639 50.771 6.22036C50.771 2.78433 48.0071 0 44.5963 0C41.1855 0 38.4238 2.7865 38.4238 6.22036C38.4238 9.65422 41.1877 12.4407 44.5963 12.4407Z" fill="#013D6E"/>
<path id="Vector_5" d="M27.2858 19.2562C30.6965 19.2562 33.4604 16.4718 33.4604 13.0358C33.4604 9.59976 30.6965 6.81543 27.2858 6.81543C23.875 6.81543 21.1133 9.59976 21.1133 13.0358C21.1133 16.4718 23.8771 19.2562 27.2858 19.2562Z" fill="#013D6E"/>
<path id="Vector_6" d="M9.97913 26.0726C13.3899 26.0726 16.1538 23.2882 16.1538 19.8522C16.1538 16.4162 13.3899 13.6318 9.97913 13.6318C6.56836 13.6318 3.80664 16.4162 3.80664 19.8522C3.80664 23.2882 6.57051 26.0726 9.97913 26.0726Z" fill="#013D6E"/>
<path id="Vector_7" d="M61.9979 40.2732C61.9979 39.0261 60.9878 38.0107 59.7477 38.0107C58.9439 38.0107 58.239 38.4372 57.8414 39.0781V39.0175C57.8414 37.766 56.8313 36.7506 55.5912 36.7506C54.7895 36.7506 54.0846 37.1749 53.6848 37.8137V37.7595C53.6848 36.5081 52.6747 35.4927 51.4346 35.4927C50.6308 35.4927 49.9259 35.917 49.5283 36.5557V28.9497C49.5283 28.3413 49.294 27.7719 48.8663 27.3432C48.4408 26.9167 47.8756 26.6807 47.2759 26.6807H47.2716C46.0315 26.685 45.0257 27.7026 45.0257 28.9497V42.9666C45.0257 43.0965 44.9526 43.2069 44.8344 43.2567C44.7141 43.3065 44.5873 43.2827 44.4949 43.1896L42.2103 40.9011C41.4387 40.1303 40.2244 40.0134 39.3239 40.6261C38.7909 40.9899 38.4341 41.5636 38.3417 42.2045C38.2493 42.8454 38.4341 43.4992 38.8425 43.9994L44.5293 50.9126C46.139 52.8785 48.5139 54.0043 51.0413 54.0043H54.5853C56.5669 54.0043 58.4303 53.2271 59.8315 51.8154C61.2328 50.4038 62.0044 48.5266 62.0044 46.5304V40.2776L61.9979 40.2732Z" fill="#069AEE"/>
</g>
<defs>
<clipPath id="clip0_1170_364">
<rect width="62" height="54" fill="white"/>
</clipPath>
</defs>
</svg>
