<svg width="33" height="34" viewBox="0 0 33 34" fill="none" xmlns="http://www.w3.org/2000/svg">
<rect y="0.0830078" width="33" height="33" rx="16.5" fill="#048AE2" fill-opacity="0.06"/>
<g clip-path="url(#clip0_1602_2291)">
<path d="M18.8501 9.67837C18.8501 8.36523 17.7981 7.30176 16.5 7.30176C15.202 7.30176 14.15 8.36602 14.15 9.67837C14.15 10.9907 15.202 12.0558 16.5 12.0558C17.7981 12.0558 18.8501 10.9915 18.8501 9.67837Z" fill="#016CCD"/>
<path d="M13.1472 15.1731L12.9558 16.8015H20.0441L19.8481 15.1731C19.727 14.1499 19.0132 13.3306 18.0823 13.0557C17.6145 13.3203 17.0709 13.4681 16.4976 13.4681C15.9244 13.4681 15.3855 13.3203 14.9177 13.0557C13.982 13.3354 13.2674 14.1499 13.1472 15.1731Z" fill="#016CCD"/>
<path d="M22.0869 17.8018H10.9131C10.6851 17.8018 10.5 17.989 10.5 18.2197V20.9108C10.5 21.1415 10.6851 21.3288 10.9131 21.3288H12.1253L12.8906 25.5218C12.9266 25.7201 13.0976 25.8639 13.2967 25.8639H19.7033C19.9024 25.8639 20.0734 25.7201 20.1094 25.5218L20.8747 21.3288H22.0869C22.3149 21.3288 22.5 21.1415 22.5 20.9108V18.2197C22.5 17.989 22.3149 17.8018 22.0869 17.8018Z" fill="#203A72"/>
</g>
<defs>
<clipPath id="clip0_1602_2291">
<rect width="13" height="18.562" fill="white" transform="translate(10 7.30176)"/>
</clipPath>
</defs>
</svg>
