<svg width="15" height="18" viewBox="0 0 15 18" fill="none" xmlns="http://www.w3.org/2000/svg">
<g id="Lock">
<path id="Lock_2" d="M11.11 17.3338H4.0575C3.12483 17.3431 2.22653 16.9822 1.55962 16.3301C0.892716 15.678 0.511648 14.7881 0.5 13.8554L0.5 9.74043C0.50589 8.99739 0.750086 8.27586 1.19667 7.68197C1.64325 7.08808 2.26863 6.65318 2.98083 6.44126V5.16709C2.99665 3.96292 3.48817 2.8139 4.34811 1.97082C5.20806 1.12774 6.36658 0.659067 7.57083 0.667094C8.78887 0.661412 9.96044 1.13423 10.8333 1.98376C11.2614 2.39608 11.6018 2.89054 11.8342 3.43753C12.0666 3.98452 12.1862 4.57278 12.1858 5.16709V6.44126C12.898 6.65318 13.5234 7.08808 13.97 7.68197C14.4166 8.27586 14.6608 8.99739 14.6667 9.74043V13.8546C14.6552 14.7872 14.2744 15.6773 13.6076 16.3295C12.9409 16.9817 12.0427 17.3429 11.11 17.3338ZM7.58333 10.1538C7.39009 10.1518 7.20395 10.2266 7.06582 10.3617C6.92769 10.4969 6.84887 10.6813 6.84667 10.8746V12.7129C6.84667 12.9094 6.92472 13.0978 7.06365 13.2368C7.20259 13.3757 7.39102 13.4538 7.5875 13.4538C7.78398 13.4538 7.97242 13.3757 8.11135 13.2368C8.25028 13.0978 8.32833 12.9094 8.32833 12.7129V10.8746C8.32483 10.6803 8.24444 10.4953 8.10479 10.3602C7.96514 10.2251 7.77763 10.1509 7.58333 10.1538ZM7.59167 2.11626C6.77587 2.10665 5.98933 2.41979 5.40338 2.98748C4.81743 3.55517 4.47955 4.33141 4.46333 5.14709V6.26209H10.7042V5.16709C10.6999 4.76211 10.6159 4.36192 10.457 3.98941C10.2981 3.61689 10.0673 3.27933 9.77785 2.99602C9.48843 2.71271 9.14602 2.48919 8.7702 2.33824C8.39437 2.18729 7.99249 2.11186 7.5875 2.11626H7.59167Z" fill="white"/>
</g>
</svg>
