<svg width="34" height="34" viewBox="0 0 34 34" fill="none" xmlns="http://www.w3.org/2000/svg">
<path d="M17.2806 30.5104C24.7533 30.5104 30.8112 24.4526 30.8112 16.9798C30.8112 9.50707 24.7533 3.44922 17.2806 3.44922C9.80785 3.44922 3.75 9.50707 3.75 16.9798C3.75 24.4526 9.80785 30.5104 17.2806 30.5104Z" fill="#048AE2"/>
<path d="M21.6577 24.8552H12.9001C12.3414 24.8552 11.9602 24.2598 12.216 23.7637C13.1769 21.8942 15.1196 20.667 17.2815 20.667C19.4383 20.667 21.3861 21.8942 22.347 23.7637C22.6029 24.2598 22.2217 24.8552 21.6629 24.8552H21.6577Z" fill="white"/>
<path d="M12.0275 17.6165C13.8964 17.6165 15.4115 16.1015 15.4115 14.2326C15.4115 12.3637 13.8964 10.8486 12.0275 10.8486C10.1586 10.8486 8.64355 12.3637 8.64355 14.2326C8.64355 16.1015 10.1586 17.6165 12.0275 17.6165Z" fill="white"/>
<path d="M12.0276 16.1236C13.0717 16.1236 13.918 15.2772 13.918 14.2332C13.918 13.1891 13.0717 12.3428 12.0276 12.3428C10.9836 12.3428 10.1372 13.1891 10.1372 14.2332C10.1372 15.2772 10.9836 16.1236 12.0276 16.1236Z" fill="#048AE2"/>
<path d="M22.529 17.6165C24.3979 17.6165 25.9129 16.1015 25.9129 14.2326C25.9129 12.3637 24.3979 10.8486 22.529 10.8486C20.6601 10.8486 19.145 12.3637 19.145 14.2326C19.145 16.1015 20.6601 17.6165 22.529 17.6165Z" fill="white"/>
<path d="M22.5291 16.1236C23.5731 16.1236 24.4195 15.2772 24.4195 14.2332C24.4195 13.1891 23.5731 12.3428 22.5291 12.3428C21.485 12.3428 20.6387 13.1891 20.6387 14.2332C20.6387 15.2772 21.485 16.1236 22.5291 16.1236Z" fill="#048AE2"/>
<path d="M6.61183 10.8642C8.25159 10.5979 9.66157 9.56915 10.5076 8.18005C10.847 7.63173 11.7034 8.10172 11.4214 8.68138C10.9984 9.57959 10.2569 10.3055 9.41091 10.7807C8.56492 11.2611 7.58838 11.517 6.63272 11.4543C6.55462 11.4491 6.48174 11.4133 6.42991 11.3546C6.37809 11.2959 6.35151 11.2192 6.35595 11.141C6.36639 11 6.47084 10.8904 6.60661 10.8695L6.61183 10.8642ZM27.8242 11.4543C25.8972 11.5692 23.8867 10.4517 23.0355 8.68138C22.7587 8.0965 23.6152 7.63173 23.9494 8.18005C24.3724 8.85371 24.9155 9.45948 25.5787 9.9347C26.2419 10.4047 27.02 10.7285 27.8503 10.8695C28.1898 10.9165 28.1584 11.4439 27.819 11.4543H27.8242Z" fill="white"/>
</svg>
