<svg width="34" height="34" viewBox="0 0 34 34" fill="none" xmlns="http://www.w3.org/2000/svg">
<path d="M17.2631 0.103516C8.04875 0.103516 0.552246 7.60002 0.552246 16.8144C0.552246 26.0288 8.04875 33.5253 17.2631 33.5253C26.4776 33.5253 33.974 26.0288 33.974 16.8144C33.974 7.60002 26.4776 0.103516 17.2631 0.103516ZM8.75577 13.5735C8.75577 13.0408 8.97251 12.5182 9.34916 12.1413C9.72602 11.7647 10.2476 11.5479 10.7813 11.5479C11.3141 11.5479 11.8367 11.7647 12.2134 12.1413C12.5911 12.5182 12.8069 13.0408 12.8069 13.5735C12.8069 14.1062 12.5911 14.6288 12.2134 15.0056C11.8367 15.3823 11.3141 15.5991 10.7813 15.5991C10.2486 15.5991 9.72602 15.3822 9.34916 15.0056C8.97251 14.6288 8.75577 14.1062 8.75577 13.5735ZM23.4936 23.0448C22.9004 23.638 21.9384 23.638 21.3451 23.0448C20.2547 21.9545 18.8051 21.3541 17.2631 21.3541C15.721 21.3541 14.2715 21.9546 13.181 23.0448C12.8844 23.3415 12.4956 23.4898 12.1069 23.4898C11.7182 23.4898 11.3292 23.3415 11.0326 23.0448C10.4393 22.4516 10.4393 21.4897 11.0325 20.8964C12.6967 19.2322 14.9095 18.3156 17.263 18.3156H17.2631C19.6166 18.3156 21.8294 19.2322 23.4936 20.8964C24.0867 21.4896 24.0867 22.4515 23.4936 23.0448ZM25.177 15.0056C24.8002 15.3823 24.2777 15.5991 23.7449 15.5991C23.2122 15.5991 22.6896 15.3822 22.3128 15.0056C21.9351 14.6288 21.7194 14.1062 21.7194 13.5735C21.7194 13.0408 21.9351 12.5182 22.3128 12.1413C22.6896 11.7647 23.2112 11.5479 23.7449 11.5479C24.2777 11.5479 24.8002 11.7647 25.177 12.1413C25.5548 12.5182 25.7705 13.0408 25.7705 13.5735C25.7705 14.1062 25.5547 14.6288 25.177 15.0056Z" fill="#048AE2"/>
</svg>
