<svg width="35" height="34" viewBox="0 0 35 34" fill="none" xmlns="http://www.w3.org/2000/svg">
<g clip-path="url(#clip0_1387_1049)">
<path d="M17.6923 0.103516C14.3872 0.103516 11.1564 1.08359 8.40827 2.91981C5.66018 4.75602 3.5183 7.36591 2.25349 10.4194C0.988686 13.4729 0.657755 16.8329 1.30255 20.0745C1.94734 23.3161 3.5389 26.2937 5.87596 28.6308C8.21302 30.9678 11.1906 32.5594 14.4322 33.2042C17.6738 33.849 21.0338 33.5181 24.0873 32.2533C27.1408 30.9884 29.7507 28.8466 31.5869 26.0985C33.4231 23.3504 34.4032 20.1195 34.4032 16.8144C34.4032 12.3824 32.6426 8.13192 29.5087 4.99802C26.3748 1.86412 22.1243 0.103516 17.6923 0.103516ZM7.83292 10.5324H9.75027C9.84813 10.5324 9.94346 10.5013 10.0225 10.4436C10.1015 10.3859 10.1602 10.3046 10.19 10.2114L10.7837 8.3886C10.8147 8.29649 10.8738 8.21644 10.9527 8.15972C11.0316 8.103 11.1263 8.07249 11.2235 8.07249C11.3206 8.07249 11.4154 8.103 11.4943 8.15972C11.5732 8.21644 11.6323 8.29649 11.6632 8.3886L12.2591 10.218C12.2889 10.3112 12.3476 10.3925 12.4266 10.4502C12.5057 10.5079 12.601 10.539 12.6989 10.539H14.614C14.7116 10.5395 14.8065 10.5707 14.8853 10.6282C14.9642 10.6857 15.0228 10.7666 15.053 10.8594C15.0832 10.9522 15.0834 11.0521 15.0535 11.145C15.0237 11.2379 14.9653 11.319 14.8867 11.3768L13.3475 12.5048C13.2681 12.5623 13.2089 12.6434 13.1785 12.7367C13.148 12.8299 13.148 12.9304 13.1782 13.0237L13.7631 14.8355C13.7936 14.9288 13.7938 15.0293 13.7635 15.1227C13.7333 15.2161 13.6742 15.2975 13.5947 15.3552C13.5153 15.4128 13.4196 15.4438 13.3215 15.4437C13.2233 15.4436 13.1277 15.4123 13.0485 15.3544L11.4983 14.2264C11.4183 14.1696 11.3227 14.1391 11.2246 14.1391C11.1265 14.1391 11.0308 14.1696 10.9508 14.2264L9.40066 15.3544C9.32165 15.4161 9.22479 15.4505 9.12458 15.4525C9.02437 15.4546 8.9262 15.4241 8.84475 15.3657C8.76331 15.3073 8.70298 15.224 8.67278 15.1284C8.64259 15.0329 8.64416 14.9301 8.67726 14.8355L9.27093 13.0127C9.3018 12.9215 9.30356 12.8231 9.27599 12.7309C9.24841 12.6387 9.19286 12.5574 9.11701 12.4982L7.57785 11.3702C7.49899 11.314 7.43976 11.2345 7.40855 11.1429C7.37734 11.0512 7.37571 10.9521 7.40391 10.8595C7.4321 10.7669 7.48869 10.6855 7.56568 10.6268C7.64266 10.5681 7.73615 10.5351 7.83292 10.5324ZM27.101 21.0757C26.3996 25.0797 22.4527 27.8568 17.6923 27.8568C12.9319 27.8568 8.98289 25.0797 8.28147 21.0757C8.27464 21.035 8.27096 20.9938 8.27048 20.9525C8.27048 20.3743 8.97189 20.0005 9.58976 20.2115C11.9645 21.0317 14.7371 21.4495 17.6967 21.4495C20.6563 21.4495 23.4246 21.0317 25.8015 20.2115C26.415 19.9917 27.1208 20.3721 27.1208 20.9525C27.1174 20.994 27.1108 21.0352 27.101 21.0757ZM27.8222 11.3702L26.2831 12.4982C26.2036 12.5557 26.1444 12.6369 26.114 12.7301C26.0836 12.8233 26.0835 12.9238 26.1137 13.0171L26.7074 14.8355C26.7379 14.9288 26.7381 15.0293 26.7078 15.1227C26.6776 15.2161 26.6185 15.2975 26.5391 15.3552C26.4597 15.4128 26.364 15.4438 26.2658 15.4437C26.1677 15.4436 26.0721 15.4123 25.9928 15.3544L24.4536 14.2264C24.3741 14.1695 24.2788 14.1389 24.181 14.1389C24.0832 14.1389 23.9879 14.1695 23.9083 14.2264L22.356 15.3544C22.2775 15.4213 22.179 15.4602 22.076 15.465C21.973 15.4697 21.8713 15.4399 21.7871 15.3804C21.7029 15.3209 21.6409 15.235 21.6109 15.1363C21.5809 15.0376 21.5847 14.9318 21.6216 14.8355L22.2131 13.0127C22.2433 12.9194 22.2432 12.8189 22.2128 12.7257C22.1824 12.6325 22.1232 12.5513 22.0438 12.4938L20.4936 11.3658C20.4165 11.3072 20.3597 11.226 20.3311 11.1335C20.3025 11.041 20.3035 10.9419 20.334 10.85C20.3646 10.7581 20.4231 10.6781 20.5014 10.6212C20.5797 10.5642 20.6738 10.5332 20.7707 10.5324H22.6836C22.7812 10.5314 22.8761 10.4999 22.9549 10.4424C23.0338 10.3848 23.0927 10.3041 23.1234 10.2114L23.7149 8.3886C23.7458 8.29649 23.8049 8.21644 23.8838 8.15972C23.9627 8.103 24.0574 8.07249 24.1546 8.07249C24.2518 8.07249 24.3465 8.103 24.4254 8.15972C24.5043 8.21644 24.5634 8.29649 24.5944 8.3886L25.188 10.2114C25.2179 10.3046 25.2765 10.3859 25.3556 10.4436C25.4346 10.5013 25.5299 10.5324 25.6278 10.5324H27.5452C27.6438 10.5305 27.7405 10.5602 27.821 10.6172C27.9016 10.6741 27.9617 10.7554 27.9927 10.8491C28.0237 10.9428 28.0238 11.0439 27.9932 11.1377C27.9625 11.2315 27.9026 11.3129 27.8222 11.3702Z" fill="#048AE2"/>
</g>
<defs>
<clipPath id="clip0_1387_1049">
<rect width="33.4218" height="33.4218" fill="white" transform="translate(0.981445 0.103516)"/>
</clipPath>
</defs>
</svg>
