<svg width="31" height="31" viewBox="0 0 31 31" fill="none" xmlns="http://www.w3.org/2000/svg">
<path d="M8.13986 15.652C8.13986 19.8159 11.5287 23.2048 15.6926 23.2048C19.8564 23.2048 23.2453 19.8159 23.2453 15.652C23.2453 11.4882 19.8564 8.09934 15.6926 8.09934C11.5287 8.09934 8.13986 11.4882 8.13986 15.652ZM19.4676 14.5014L15.0765 18.8925L11.9175 15.7335L13.3099 14.3385L15.0765 16.1052L18.074 13.1065L19.4676 14.5014ZM30.7323 15.5207L27.5142 13.1065L24.2961 15.5207L25.4783 17.0969L26.4818 16.3443C26.2388 20.1929 24.0281 23.5975 20.5473 25.3313L21.4247 27.0941C25.6004 25.0148 28.234 20.9048 28.456 16.276L29.5501 17.0969L30.7323 15.5207ZM17.1374 5.86636L16.3848 4.86415C20.1953 5.12948 23.6393 7.32042 25.3719 10.7973L27.1346 9.91987C25.0553 5.7442 20.9453 3.11061 16.3165 2.88863L17.1374 1.79447L15.5612 0.612305L13.147 3.83042L15.5612 7.04852L17.1374 5.86636ZM5.90689 14.2072L4.90468 14.9598C5.14637 11.1112 7.35701 7.70791 10.8391 5.97276L9.95908 4.21002C5.78473 6.28931 3.15114 10.3993 2.92915 15.0281L1.83499 14.2072L0.652832 15.7834L3.87094 18.1976L7.08905 15.7834L5.90689 14.2072ZM14.2477 25.4377L14.999 26.4399C11.1872 26.172 7.74712 23.9837 6.0146 20.5055L4.25055 21.3855C6.32984 25.5599 10.4398 28.1935 15.0687 28.4155L14.2477 29.5096L15.8239 30.6918L18.2382 27.4737L15.8239 24.2556L14.2477 25.4377Z" fill="#048AE2"/>
</svg>
