<svg width="32" height="33" viewBox="0 0 32 33" fill="none" xmlns="http://www.w3.org/2000/svg">
<path d="M16.091 8.55747C11.6075 8.55747 7.93375 12.2312 7.93375 16.7144C7.93375 21.1976 11.6075 24.8716 16.091 24.8716C20.5745 24.8716 24.2483 21.1979 24.2483 16.7144C24.2483 12.2312 20.5742 8.55747 16.091 8.55747ZM16.7136 18.8313L15.2418 20.3036C15.1367 20.4085 14.9942 20.4674 14.8457 20.4674C14.6972 20.4674 14.5547 20.4085 14.4497 20.3036L11.568 17.4219C11.4631 17.3168 11.4041 17.1744 11.4041 17.0259C11.4041 16.8774 11.4631 16.7349 11.568 16.6298L12.6435 15.554C12.7486 15.4489 12.8912 15.3899 13.0398 15.3899C13.1884 15.3899 13.3309 15.4489 13.436 15.554L14.8457 16.9637L18.7457 13.1195C18.851 13.0158 18.9931 12.9578 19.141 12.9583C19.2888 12.9588 19.4305 13.0177 19.5351 13.1222L20.6106 14.1981C20.6629 14.2503 20.7043 14.3124 20.7325 14.3808C20.7607 14.4491 20.7751 14.5224 20.7749 14.5963C20.7746 14.6703 20.7597 14.7434 20.7311 14.8116C20.7024 14.8798 20.6606 14.9416 20.608 14.9935L16.7136 18.8313ZM16.091 8.55747C11.6075 8.55747 7.93375 12.2312 7.93375 16.7144C7.93375 21.1976 11.6075 24.8716 16.091 24.8716C20.5745 24.8716 24.2483 21.1979 24.2483 16.7144C24.2483 12.2312 20.5742 8.55747 16.091 8.55747ZM16.7136 18.8313L15.2418 20.3036C15.1367 20.4085 14.9942 20.4674 14.8457 20.4674C14.6972 20.4674 14.5547 20.4085 14.4497 20.3036L11.568 17.4219C11.4631 17.3168 11.4041 17.1744 11.4041 17.0259C11.4041 16.8774 11.4631 16.7349 11.568 16.6298L12.6435 15.554C12.7486 15.4489 12.8912 15.3899 13.0398 15.3899C13.1884 15.3899 13.3309 15.4489 13.436 15.554L14.8457 16.9637L18.7457 13.1195C18.851 13.0158 18.9931 12.9578 19.141 12.9583C19.2888 12.9588 19.4305 13.0177 19.5351 13.1222L20.6106 14.1981C20.6629 14.2503 20.7043 14.3124 20.7325 14.3808C20.7607 14.4491 20.7751 14.5224 20.7749 14.5963C20.7746 14.6703 20.7597 14.7434 20.7311 14.8116C20.7024 14.8798 20.6606 14.9416 20.608 14.9935L16.7136 18.8313ZM16.091 8.55747C11.6075 8.55747 7.93375 12.2312 7.93375 16.7144C7.93375 21.1976 11.6075 24.8716 16.091 24.8716C20.5745 24.8716 24.2483 21.1979 24.2483 16.7144C24.2483 12.2312 20.5742 8.55747 16.091 8.55747ZM16.7136 18.8313L15.2418 20.3036C15.1367 20.4085 14.9942 20.4674 14.8457 20.4674C14.6972 20.4674 14.5547 20.4085 14.4497 20.3036L11.568 17.4219C11.4631 17.3168 11.4041 17.1744 11.4041 17.0259C11.4041 16.8774 11.4631 16.7349 11.568 16.6298L12.6435 15.554C12.7486 15.4489 12.8912 15.3899 13.0398 15.3899C13.1884 15.3899 13.3309 15.4489 13.436 15.554L14.8457 16.9637L18.7457 13.1195C18.851 13.0158 18.9931 12.9578 19.141 12.9583C19.2888 12.9588 19.4305 13.0177 19.5351 13.1222L20.6106 14.1981C20.6629 14.2503 20.7043 14.3124 20.7325 14.3808C20.7607 14.4491 20.7751 14.5224 20.7749 14.5963C20.7746 14.6703 20.7597 14.7434 20.7311 14.8116C20.7024 14.8798 20.6606 14.9416 20.608 14.9935L16.7136 18.8313ZM30.6619 19.4543C30.2257 18.707 30.3504 17.7107 30.9109 17.0259L31.4714 16.4032C32.2808 15.4691 32.1565 14.037 31.0977 13.2897L30.4126 12.8538C29.6656 12.3559 29.3541 11.4217 29.6031 10.5501L29.8524 9.74027C30.2257 8.55714 29.4163 7.31184 28.1713 7.12502L27.3615 7.00069C26.4898 6.87602 25.8047 6.19121 25.6179 5.31957L25.4935 4.50976C25.3064 3.26447 24.0614 2.51716 22.8158 2.89081L22.0063 3.14014C21.1347 3.38913 20.2005 3.07764 19.7026 2.33033L19.2046 1.64585C18.4573 0.649882 17.0251 0.46272 16.091 1.33436L15.4684 1.89484C14.7832 2.51749 13.8494 2.64215 13.0399 2.20633L12.2926 1.83268C11.1717 1.21003 9.80169 1.70802 9.36587 2.89115L9.05472 3.63846C8.74323 4.44793 7.87159 5.00842 6.99961 4.94625L6.3148 4.82159C5.0695 4.75942 4.01104 5.81756 4.1357 7.06319L4.19753 7.87266C4.26003 8.74464 3.76171 9.61627 2.89007 9.92743L2.14276 10.2389C0.95963 10.7369 0.52381 12.1072 1.14679 13.1657L1.58228 13.8505C2.01843 14.5978 1.89377 15.5941 1.33329 16.2789L0.772802 16.9016C-0.0366728 17.8357 0.0876562 19.2678 1.14646 20.0151L1.8316 20.4509C2.57858 20.9489 2.89007 21.8831 2.64108 22.7547L2.39175 23.5645C2.01843 24.7476 2.82791 25.9929 4.07287 26.1798L4.88268 26.3041C5.75432 26.4288 6.43946 27.1136 6.62629 27.9852L6.75062 28.795C6.93778 30.0403 8.18274 30.7876 9.42837 30.414L10.2378 30.1646C11.1095 29.9157 12.0436 30.2271 12.5416 30.9745L13.0396 31.6593C13.7869 32.6552 15.219 32.8424 16.1532 31.9708L16.7758 31.4103C17.461 30.7876 18.3948 30.663 19.2042 31.0988L19.9515 31.4724C21.0725 32.0951 22.4425 31.5971 22.8783 30.414L23.1894 29.6667C23.5009 28.8572 24.3726 28.2967 25.2446 28.3589L26.054 28.4214C27.2993 28.4835 28.3578 27.4251 28.2331 26.1798L28.171 25.3703C28.1088 24.4983 28.6068 23.6267 29.4788 23.3152L30.2257 23.004C31.4089 22.506 31.845 21.1358 31.222 20.0773L30.6619 19.4543ZM16.091 27.1757C10.3 27.1757 5.56749 22.4432 5.56749 16.6522C5.56749 10.8612 10.3 6.12871 16.091 6.12871C21.882 6.12871 26.6142 10.8612 26.6142 16.6522C26.6142 22.5054 21.8817 27.1757 16.091 27.1757Z" fill="#048AE2"/>
</svg>
