<svg width="48" height="62" viewBox="0 0 48 62" fill="none" xmlns="http://www.w3.org/2000/svg">
<g id="Isolation_Mode" clip-path="url(#clip0_1170_378)">
<path id="Vector" d="M9.86328 26.1219C9.86328 34.551 16.6462 41.3844 25.0129 41.3844C33.3797 41.3844 40.1626 34.551 40.1626 26.1219C40.1626 17.6928 33.3797 10.8594 25.0129 10.8594C16.6462 10.8594 9.86328 17.6928 9.86328 26.1219ZM26.5903 16.0149V17.8237C28.6214 18.0412 30.2317 19.6636 30.4344 21.7032C30.452 21.863 30.3991 22.0183 30.289 22.1404C30.1744 22.2691 30.0114 22.3401 29.8418 22.3401H27.8459C27.5728 22.3401 27.3326 22.1515 27.2754 21.8918C27.1608 21.3525 26.6784 20.9597 26.1298 20.9597H24.3807C23.418 20.9597 22.5919 21.6632 22.5016 22.5576C22.4487 23.0681 22.6073 23.5585 22.9488 23.9403C23.2836 24.3153 23.7639 24.5306 24.2639 24.5306H25.7619C27.1476 24.5306 28.4782 25.1254 29.4122 26.1641C30.3573 27.2138 30.8023 28.5743 30.6657 29.9925C30.4608 32.1253 28.7888 33.9096 26.5903 34.3535V36.2289C26.5903 36.5573 26.3259 36.8259 25.9999 36.8259H24.026C23.7 36.8259 23.4356 36.5573 23.4356 36.2289V34.4201C21.4067 34.2026 19.7942 32.5802 19.5915 30.5406C19.5761 30.3809 19.6267 30.2255 19.7369 30.1034C19.8492 29.9769 20.0145 29.9037 20.1841 29.9037H22.1822C22.4553 29.9037 22.6954 30.0923 22.7505 30.352C22.8651 30.8913 23.3475 31.2819 23.896 31.2819H25.643C26.6079 31.2819 27.4318 30.5806 27.5221 29.684C27.575 29.1735 27.4164 28.683 27.0749 28.2991C26.7379 27.924 26.2576 27.7087 25.7597 27.7087H24.4732C21.8495 27.7087 19.6025 25.7468 19.358 23.239C19.1068 20.6401 20.8934 18.2853 23.4334 17.8526V16.0105C23.4334 15.682 23.6978 15.4135 24.0238 15.4135H25.9977C26.3237 15.4135 26.588 15.682 26.588 16.0105L26.5903 16.0149Z" fill="#013D6E"/>
<path id="Vector_2" d="M12.5731 9.74065C12.811 9.74065 13.0511 9.66963 13.2604 9.51872C16.9239 6.88434 21.3871 5.57048 25.8833 5.76356L24.5285 6.95092C24.035 7.3837 23.9843 8.13606 24.4117 8.63319C24.6452 8.90396 24.9735 9.04377 25.3039 9.04377C25.5793 9.04377 25.8546 8.94834 26.0793 8.75304L29.6151 5.65703C30.1085 5.22426 30.1592 4.4719 29.7318 3.97476L26.6587 0.41047C26.2291 -0.0866665 25.4845 -0.139931 24.9911 0.292844C24.4976 0.725619 24.447 1.47798 24.8743 1.97512L26.0948 3.38885C21.0258 3.13806 16.0053 4.61615 11.8858 7.58122C11.3548 7.96517 11.2315 8.70643 11.6104 9.24352C11.8417 9.56976 12.2052 9.74287 12.5731 9.74287V9.74065Z" fill="#069AEE"/>
<path id="Vector_3" d="M47.2024 13.1873C46.5856 12.9698 45.9137 13.3049 45.7 13.9263L45.0942 15.6974C42.7723 11.1632 38.9964 7.51016 34.3857 5.39733C33.7931 5.12435 33.0903 5.39067 32.8194 5.98768C32.5484 6.5869 32.8128 7.29266 33.4054 7.56564C37.5029 9.44544 40.8645 12.6835 42.9463 16.7027L41.2479 16.1124C40.6332 15.8949 39.9569 16.2278 39.7455 16.8514C39.5318 17.4729 39.86 18.152 40.479 18.365L44.907 19.9031C45.0325 19.9474 45.1625 19.9674 45.2925 19.9674C45.4709 19.9674 45.6471 19.9275 45.8102 19.8454C46.0921 19.7078 46.308 19.4614 46.4094 19.1618L47.9338 14.6987C48.1453 14.0772 47.8192 13.3981 47.2002 13.1851L47.2024 13.1873Z" fill="#069AEE"/>
<path id="Vector_4" d="M47.5149 23.9382C47.451 23.2835 46.8584 22.7753 46.2239 22.8685C45.5741 22.9306 45.0982 23.5143 45.1599 24.169C45.5939 28.681 44.4902 33.2329 42.0758 37.0613L41.7321 35.2858C41.6066 34.64 40.9831 34.2161 40.3465 34.3448C39.7054 34.4713 39.2869 35.0949 39.4102 35.743L40.3046 40.3748C40.4148 40.9429 40.9104 41.338 41.4634 41.338C41.5383 41.338 41.6132 41.3313 41.6903 41.3158L46.2878 40.4169C46.9289 40.2904 47.3474 39.6668 47.2241 39.021C47.0985 38.3751 46.4751 37.9401 45.8384 38.0777L44.0122 38.4351C46.7504 34.1428 48.0017 29.0205 47.5149 23.9426V23.9382Z" fill="#069AEE"/>
<path id="Vector_5" d="M2.82117 39.0543C2.94894 39.0987 3.07892 39.1187 3.20669 39.1187C3.69795 39.1187 4.15616 38.808 4.32358 38.3153L4.92939 36.5398C6.13881 38.9211 7.74696 41.065 9.69437 42.8605C10.3883 42.3678 11.1439 41.9705 11.9656 41.702C9.96092 40.0086 8.31752 37.9025 7.09269 35.5455L8.77574 36.1292C9.38816 36.3423 10.0667 36.0138 10.2781 35.3902C10.4918 34.7687 10.1636 34.0896 9.54457 33.8765L5.11664 32.3385C4.82145 32.2387 4.49541 32.2542 4.21343 32.394C3.93146 32.5316 3.71557 32.778 3.61423 33.0776L2.08979 37.5407C1.87831 38.1621 2.20435 38.8413 2.82338 39.0543H2.82117Z" fill="#069AEE"/>
<path id="Vector_6" d="M2.50923 28.3033C2.56871 28.9181 3.0842 29.3797 3.6856 29.3797C3.72305 29.3797 3.7627 29.3797 3.80015 29.373C4.45002 29.3087 4.92586 28.7272 4.86418 28.0725C4.4302 23.5605 5.53387 19.0064 7.9483 15.1803L8.29196 16.958C8.40211 17.5261 8.89777 17.9212 9.45071 17.9212C9.52561 17.9212 9.60051 17.9145 9.67761 17.899C10.3187 17.7725 10.7372 17.1488 10.6139 16.5008L9.71947 11.869C9.5939 11.2231 8.97487 10.797 8.33382 10.928L3.73627 11.8268C3.09521 11.9533 2.67665 12.5769 2.80002 13.2228C2.92338 13.8686 3.54241 14.2992 4.18567 14.166L6.01191 13.8087C3.27365 18.1031 2.02238 23.2254 2.50923 28.3011V28.3033Z" fill="#069AEE"/>
<path id="Vector_7" d="M36.8458 43.2489L30.0167 45.5748C30.0321 45.7479 30.0321 45.9277 30.0277 46.1074C29.9682 48.0871 28.5562 49.7672 26.6418 50.2266L26.362 50.2954C23.7868 50.9146 21.1631 51.3052 18.5195 51.465L16.4069 51.5915C16.0721 51.6114 15.7482 51.5005 15.4971 51.2763C15.246 51.0522 15.0962 50.7415 15.0763 50.4041C15.0565 50.0645 15.1689 49.7405 15.3891 49.4875C15.6116 49.2345 15.9201 49.0836 16.2549 49.0636L18.4865 48.9282C20.8877 48.7818 23.2735 48.4289 25.6174 47.8696L26.0624 47.7631C26.8973 47.5656 27.4899 46.8265 27.512 45.9654C27.5252 45.4549 27.3379 44.9733 26.9855 44.6071C26.6242 44.2387 26.1549 44.0346 25.6527 44.0257L14.5498 43.8947C13.336 43.8792 12.131 44.2809 11.1617 45.0199L0.268123 53.9595C-0.0733334 54.2369 -0.0909571 54.7563 0.22847 55.0581L7.3528 61.8005C7.61936 62.0535 8.0291 62.0668 8.31108 61.8316L11.274 59.3748C11.6706 59.0463 12.1795 58.8843 12.6927 58.922L21.0926 59.5434C22.7029 59.6633 24.2979 59.155 25.5469 58.1253L38.9519 47.0729C39.4387 46.6712 39.7251 46.103 39.7559 45.4705C39.789 44.8357 39.5621 44.241 39.1193 43.7904C38.5399 43.1956 37.6345 42.9826 36.848 43.2489H36.8458Z" fill="#013D6E"/>
</g>
<defs>
<clipPath id="clip0_1170_378">
<rect width="48" height="62" fill="white"/>
</clipPath>
</defs>
</svg>
