<svg width="90" height="90" viewBox="0 0 90 90" fill="none" xmlns="http://www.w3.org/2000/svg">
<rect width="90" height="90" rx="45" fill="#EDEDED"/>
<g clip-path="url(#clip0_1638_19467)">
<path d="M45 4C22.368 4 4 22.368 4 45C4 67.632 22.368 86 45 86C67.632 86 86 67.632 86 45C86 22.368 67.632 4 45 4ZM45 16.3C51.806 16.3 57.3 21.794 57.3 28.6C57.3 35.406 51.806 40.9 45 40.9C38.194 40.9 32.7 35.406 32.7 28.6C32.7 21.794 38.194 16.3 45 16.3ZM45 74.52C34.75 74.52 25.689 69.272 20.4 61.318C20.523 53.159 36.8 48.69 45 48.69C53.159 48.69 69.477 53.159 69.6 61.318C64.311 69.272 55.25 74.52 45 74.52Z" fill="#D5D7DB"/>
</g>
<defs>
<clipPath id="clip0_1638_19467">
<rect width="82" height="82" fill="white" transform="translate(4 4)"/>
</clipPath>
</defs>
</svg>
