<svg width="16" height="16" viewBox="0 0 16 16" fill="none" xmlns="http://www.w3.org/2000/svg">
<path d="M1.46582 4.0062H15.0658M5.39862 3.9998V3.6334C5.39862 2.88189 5.69716 2.16115 6.22856 1.62975C6.75997 1.09834 7.4807 0.799805 8.23222 0.799805C8.98374 0.799805 9.70448 1.09834 10.2359 1.62975C10.7673 2.16115 11.0658 2.88189 11.0658 3.6334V3.9998M6.64822 7.1998V11.9998M9.88982 7.1998V11.9998M11.8658 15.1998H4.66582C4.24147 15.1998 3.83451 15.0312 3.53445 14.7312C3.23439 14.4311 3.06582 14.0242 3.06582 13.5998V3.9998H13.4658V13.5998C13.4658 14.0242 13.2972 14.4311 12.9972 14.7312C12.6971 15.0312 12.2902 15.1998 11.8658 15.1998Z" stroke="#1A1A1A" stroke-width="1.28" stroke-linecap="round" stroke-linejoin="round"/>
</svg>
