<svg width="15" height="18" viewBox="0 0 15 18" fill="none" xmlns="http://www.w3.org/2000/svg">
<path id="Vector" d="M13.4935 14.1667H4.83979C4.41882 14.1667 4.0625 14.0208 3.77083 13.7292C3.47917 13.4375 3.33333 13.0812 3.33333 12.6602V1.50646C3.33333 1.08549 3.47917 0.729167 3.77083 0.4375C4.0625 0.145833 4.41882 0 4.83979 0H10.625L15 4.375V12.6602C15 13.0812 14.8542 13.4375 14.5625 13.7292C14.2708 14.0208 13.9145 14.1667 13.4935 14.1667ZM10 5V1.25H4.83979C4.77563 1.25 4.71688 1.27674 4.66354 1.33021C4.61007 1.38354 4.58333 1.44229 4.58333 1.50646V12.6602C4.58333 12.7244 4.61007 12.7831 4.66354 12.8365C4.71688 12.8899 4.77563 12.9167 4.83979 12.9167H13.4935C13.5577 12.9167 13.6165 12.8899 13.6698 12.8365C13.7233 12.7831 13.75 12.7244 13.75 12.6602V5H10ZM1.50646 17.5C1.08549 17.5 0.729167 17.3542 0.4375 17.0625C0.145833 16.7708 0 16.4145 0 15.9935V5H1.25V15.9935C1.25 16.0577 1.27674 16.1165 1.33021 16.1698C1.38354 16.2233 1.44229 16.25 1.50646 16.25H10V17.5H1.50646Z" fill="#292929"/>
</svg>
