<svg width="16" height="19" viewBox="0 0 16 19" fill="none" xmlns="http://www.w3.org/2000/svg">
<path id="Icon" d="M9.33333 1.72461V5.16673C9.33333 5.63344 9.33333 5.86679 9.42416 6.04505C9.50405 6.20185 9.63154 6.32934 9.78834 6.40923C9.9666 6.50006 10.2 6.50006 10.6667 6.50006H14.1088M11 10.6667H4.33333M11 14H4.33333M6 7.33333H4.33333M9.33333 1.5H5C3.59987 1.5 2.8998 1.5 2.36502 1.77248C1.89462 2.01217 1.51217 2.39462 1.27248 2.86502C1 3.3998 1 4.09987 1 5.5V14.1667C1 15.5668 1 16.2669 1.27248 16.8016C1.51217 17.272 1.89462 17.6545 2.36502 17.8942C2.8998 18.1667 3.59987 18.1667 5 18.1667H10.3333C11.7335 18.1667 12.4335 18.1667 12.9683 17.8942C13.4387 17.6545 13.8212 17.272 14.0608 16.8016C14.3333 16.2669 14.3333 15.5668 14.3333 14.1667V6.5L9.33333 1.5Z" stroke="#292929" stroke-width="1.5" stroke-linecap="round" stroke-linejoin="round"/>
</svg>
