<svg width="21" height="26" viewBox="0 0 21 26" fill="none" xmlns="http://www.w3.org/2000/svg">
<path id="Vector" d="M6.40625 20.2705H14.5938C14.8594 20.2705 15.0821 20.1801 15.2619 19.9993C15.4415 19.8186 15.5312 19.5947 15.5312 19.3274C15.5312 19.0603 15.4415 18.8382 15.2619 18.6611C15.0821 18.484 14.8594 18.3955 14.5938 18.3955H6.40625C6.14062 18.3955 5.91802 18.4859 5.73844 18.6668C5.55865 18.8474 5.46875 19.0713 5.46875 19.3386C5.46875 19.6057 5.55865 19.8278 5.73844 20.0049C5.91802 20.182 6.14062 20.2705 6.40625 20.2705ZM6.40625 14.958H14.5938C14.8594 14.958 15.0821 14.8676 15.2619 14.6868C15.4415 14.5061 15.5312 14.2822 15.5312 14.0149C15.5312 13.7478 15.4415 13.5257 15.2619 13.3486C15.0821 13.1715 14.8594 13.083 14.5938 13.083H6.40625C6.14062 13.083 5.91802 13.1734 5.73844 13.3543C5.55865 13.5349 5.46875 13.7588 5.46875 14.0261C5.46875 14.2932 5.55865 14.5153 5.73844 14.6924C5.91802 14.8695 6.14062 14.958 6.40625 14.958ZM2.375 25.583C1.875 25.583 1.4375 25.3955 1.0625 25.0205C0.6875 24.6455 0.5 24.208 0.5 23.708V2.45801C0.5 1.95801 0.6875 1.52051 1.0625 1.14551C1.4375 0.770508 1.875 0.583008 2.375 0.583008H12.875C13.1342 0.583008 13.3812 0.635091 13.6162 0.739258C13.8512 0.843424 14.0521 0.978841 14.2188 1.14551L19.9375 6.86426C20.1042 7.03092 20.2396 7.23176 20.3438 7.46676C20.4479 7.70176 20.5 7.94884 20.5 8.20801V23.708C20.5 24.208 20.3125 24.6455 19.9375 25.0205C19.5625 25.3955 19.125 25.583 18.625 25.583H2.375ZM12.7188 7.33301V2.45801H2.375V23.708H18.625V8.27051H13.6562C13.3906 8.27051 13.168 8.18061 12.9884 8.00082C12.8086 7.82124 12.7188 7.59863 12.7188 7.33301Z" fill="#016CCD"/>
</svg>
