<svg width="46" height="65" viewBox="0 0 46 65" fill="none" xmlns="http://www.w3.org/2000/svg">
<g id="Isolation_Mode" clip-path="url(#clip0_1170_386)">
<path id="Vector" d="M18.8191 30.6713C18.7548 29.5207 18.2985 28.4094 17.5298 27.5394L10.5118 19.5965C10.195 19.2377 9.75197 19.0223 9.25797 18.9854C8.77282 18.9549 8.30319 19.1137 7.93767 19.4312C7.32182 19.9684 7.15346 20.8471 7.52784 21.5714L7.725 21.952C8.79276 24.0073 10.0532 25.9908 11.471 27.8482L12.6916 29.4511C12.8866 29.7056 12.9663 30.0188 12.922 30.3342C12.8777 30.6495 12.7071 30.9279 12.4479 31.1193C12.1888 31.3107 11.8675 31.389 11.5463 31.3433C11.2273 31.2998 10.9438 31.1324 10.7511 30.8779L9.52823 29.2771C8.03071 27.3154 6.69712 25.2144 5.5629 23.0329L5.36574 22.6545C4.4885 20.9689 4.88281 18.9136 6.32274 17.6543C6.4335 17.5586 6.54648 17.4673 6.66167 17.3868L4.10526 11.0403C3.81063 10.3096 3.08845 9.78541 2.29317 9.72669C1.69062 9.67884 1.11243 9.87893 0.669378 10.2856C0.228541 10.6945 -0.0107082 11.247 0.000368107 11.8407L0.281707 28.2441C0.30829 29.7839 0.928565 31.2346 2.02512 32.3286L8.33863 38.6424H19.0206L18.8213 30.6713H18.8191Z" fill="#013D6E"/>
<path id="Vector_2" d="M45.3278 10.2856C44.8848 9.87893 44.3088 9.67884 43.704 9.72669C42.9088 9.78324 42.1866 10.3096 41.8919 11.0403L39.3355 17.3868C39.4507 17.4673 39.5637 17.5586 39.6745 17.6543C41.1144 18.9114 41.5065 20.9667 40.6315 22.6545L40.4343 23.0329C39.3023 25.2144 37.9687 27.3132 36.469 29.2771L35.2462 30.8779C35.0534 31.1324 34.7677 31.2998 34.4509 31.3433C34.1297 31.389 33.8107 31.3085 33.5493 31.1193C33.2879 30.9279 33.1217 30.6495 33.0752 30.3342C33.0287 30.0188 33.1106 29.7056 33.3034 29.4511L34.5262 27.8482C35.944 25.9908 37.2022 24.0073 38.2722 21.952L38.4694 21.5714C38.8437 20.8493 38.6754 19.9706 38.0595 19.4312C37.6962 19.1137 37.2266 18.9549 36.7392 18.9854C36.2452 19.0223 35.8022 19.2377 35.4854 19.5965L28.4674 27.5394C27.6987 28.4094 27.2424 29.5207 27.1782 30.6713L26.9766 38.6424H37.6586L43.9721 32.3286C45.0686 31.2346 45.6889 29.7839 45.7155 28.2441L45.9968 11.8407C46.0079 11.247 45.7709 10.6945 45.3278 10.2856Z" fill="#013D6E"/>
<path id="Vector_3" d="M26.979 45.7803C26.979 46.3349 27.4376 46.7829 28.0024 46.7829H31.0728V50.2476C29.5886 50.6891 28.4964 52.0289 28.4964 53.6274V54.9911C28.4964 55.8306 28.8088 56.594 29.3072 57.203L26.8018 59.2279C26.1771 58.1643 25.0185 57.4401 23.6827 57.4401H22.2937C20.9623 57.4401 19.8082 58.16 19.1813 59.217L16.6913 57.203C17.1897 56.594 17.5021 55.8306 17.5021 54.9911V53.6274C17.5021 52.0267 16.4122 50.6869 14.9257 50.2476V46.7829H17.9961C18.561 46.7829 19.0195 46.3349 19.0195 45.7803V40.9062H8.47266V45.7803C8.47266 46.3349 8.93122 46.7829 9.49611 46.7829H12.3804V50.2476C10.8962 50.6891 9.80403 52.0289 9.80403 53.6274V54.9911C9.80403 56.9464 11.4256 58.5406 13.4193 58.5406H13.889C14.0263 58.5406 14.157 58.5145 14.2922 58.4993L18.7493 62.1031C19.0638 63.7474 20.5304 64.9958 22.2959 64.9958H23.6849C25.4438 64.9958 26.9081 63.7561 27.2293 62.1205L31.7108 58.4993C31.8437 58.5145 31.9744 58.5406 32.114 58.5406H32.5836C34.5751 58.5406 36.1967 56.9485 36.1967 54.9911V53.6274C36.1967 52.0267 35.1068 50.6869 33.6204 50.2476V46.7829H36.5046C37.0695 46.7829 37.5281 46.3349 37.5281 45.7803V40.9062H26.9812V45.7803H26.979ZM12.3472 54.9933V53.6296C12.3472 53.0511 12.8279 52.5813 13.4171 52.5813H13.8868C14.476 52.5813 14.9545 53.0511 14.9545 53.6296V54.9933C14.9545 55.5718 14.476 56.0438 13.8868 56.0438H13.4171C12.8279 56.0438 12.3472 55.5718 12.3472 54.9933ZM24.7526 61.4528C24.7526 62.0314 24.2719 62.5011 23.6827 62.5011H22.2937C21.7044 62.5011 21.2259 62.0314 21.2259 61.4528V60.9917C21.2259 60.4132 21.7044 59.9413 22.2937 59.9413H23.6827C24.2719 59.9413 24.7526 60.4132 24.7526 60.9917V61.4528ZM33.6492 54.9933C33.6492 55.5718 33.1707 56.0438 32.5814 56.0438H32.1118C31.5225 56.0438 31.0418 55.5718 31.0418 54.9933V53.6296C31.0418 53.0511 31.5225 52.5813 32.1118 52.5813H32.5814C33.1707 52.5813 33.6492 53.0511 33.6492 53.6296V54.9933Z" fill="#013D6E"/>
<path id="Vector_4" d="M16.4399 19.4374H29.5631C31.4328 19.4374 32.9503 17.9475 32.9503 16.1119V3.32765C32.9503 1.48983 31.4328 0 29.5631 0H16.4399C14.568 0 13.0527 1.48983 13.0527 3.32765V16.1141C13.0527 17.9497 14.5702 19.4395 16.4399 19.4395V19.4374ZM22.9993 4.80007C24.5034 4.80007 25.7263 6.00064 25.7263 7.47741C25.7263 8.51486 25.1149 9.40875 24.231 9.85244L25.2987 13.8195C25.3519 14.0153 25.3098 14.2219 25.1835 14.3828C25.0573 14.5438 24.8645 14.6373 24.6585 14.6373H21.3445C21.1385 14.6373 20.9457 14.5438 20.8195 14.3828C20.6932 14.2219 20.6511 14.0174 20.7043 13.8195L21.772 9.85244C20.8881 9.40875 20.2767 8.51703 20.2767 7.47741C20.2767 6.00064 21.4995 4.80007 23.0037 4.80007H22.9993Z" fill="#069AEE"/>
</g>
<defs>
<clipPath id="clip0_1170_386">
<rect width="46" height="65" fill="white"/>
</clipPath>
</defs>
</svg>
