<svg width="16" height="16" viewBox="0 0 16 16" fill="none" xmlns="http://www.w3.org/2000/svg">
<g id="sparkles" clip-path="url(#clip0_1205_292)">
<g id="Vector">
<path d="M6.49994 16.0009C6.34193 16.0017 6.18743 15.9543 6.0571 15.8649C5.92676 15.7756 5.8268 15.6486 5.77057 15.5009L4.52557 12.2634C4.50035 12.1982 4.46178 12.1389 4.41232 12.0894C4.36286 12.04 4.30362 12.0014 4.23838 11.9762L0.999941 10.7303C0.852423 10.6736 0.725541 10.5736 0.63604 10.4434C0.546538 10.3132 0.498626 10.1589 0.498626 10.0009C0.498626 9.84288 0.546538 9.68859 0.63604 9.55837C0.725541 9.42815 0.852423 9.32813 0.999941 9.27152L4.23744 8.02652C4.30268 8.0013 4.36193 7.96273 4.41138 7.91327C4.46084 7.86381 4.49941 7.80457 4.52463 7.73933L5.77057 4.50089C5.82718 4.35337 5.9272 4.22649 6.05742 4.13699C6.18764 4.04749 6.34193 3.99958 6.49994 3.99958C6.65795 3.99958 6.81225 4.04749 6.94246 4.13699C7.07268 4.22649 7.1727 4.35337 7.22932 4.50089L8.47432 7.73839C8.49953 7.80363 8.5381 7.86288 8.58756 7.91233C8.63702 7.96179 8.69627 8.00036 8.7615 8.02558L11.9803 9.26402C12.1338 9.32092 12.266 9.42375 12.359 9.55851C12.452 9.69327 12.5012 9.85342 12.4999 10.0171C12.4976 10.1724 12.4486 10.3234 12.3595 10.4505C12.2703 10.5776 12.1451 10.6751 11.9999 10.7303L8.76244 11.9753C8.6972 12.0005 8.63795 12.0391 8.5885 12.0885C8.53904 12.138 8.50047 12.1972 8.47525 12.2625L7.22932 15.5009C7.17308 15.6486 7.07312 15.7756 6.94279 15.8649C6.81245 15.9543 6.65796 16.0017 6.49994 16.0009Z" fill="white"/>
<path d="M2.74994 5.50089C2.6573 5.50089 2.56684 5.47282 2.49047 5.42038C2.4141 5.36794 2.35541 5.2936 2.32213 5.20714L1.79525 3.83714C1.78383 3.80718 1.76621 3.77997 1.74354 3.75729C1.72086 3.73462 1.69365 3.717 1.66369 3.70558L0.293691 3.1787C0.207247 3.14541 0.132915 3.08672 0.0804885 3.01035C0.0280618 2.93398 0 2.84352 0 2.75089C0 2.65826 0.0280618 2.5678 0.0804885 2.49143C0.132915 2.41506 0.207247 2.35637 0.293691 2.32308L1.66369 1.7962C1.69362 1.78473 1.72081 1.76709 1.74347 1.74442C1.76614 1.72176 1.78378 1.69457 1.79525 1.66464L2.31744 0.306828C2.34689 0.226891 2.39757 0.156491 2.46402 0.103193C2.53048 0.0498954 2.6102 0.0157158 2.69463 0.00432764C2.79599 -0.00799417 2.89856 0.0138741 2.98608 0.0664649C3.0736 0.119056 3.14105 0.199359 3.17775 0.29464L3.70463 1.66464C3.7161 1.69457 3.73374 1.72176 3.75641 1.74442C3.77908 1.76709 3.80626 1.78473 3.83619 1.7962L5.20619 2.32308C5.29263 2.35637 5.36697 2.41506 5.41939 2.49143C5.47182 2.5678 5.49988 2.65826 5.49988 2.75089C5.49988 2.84352 5.47182 2.93398 5.41939 3.01035C5.36697 3.08672 5.29263 3.14541 5.20619 3.1787L3.83619 3.70558C3.80623 3.717 3.77902 3.73462 3.75635 3.75729C3.73367 3.77997 3.71605 3.80718 3.70463 3.83714L3.17775 5.20714C3.14447 5.2936 3.08578 5.36794 3.00941 5.42038C2.93304 5.47282 2.84258 5.50089 2.74994 5.50089Z" fill="white"/>
<path d="M12.4999 8.00089C12.3989 8.00086 12.3002 7.9702 12.2169 7.91297C12.1336 7.85573 12.0696 7.7746 12.0334 7.68027L11.3196 5.82495C11.3071 5.79226 11.2878 5.76257 11.263 5.73781C11.2383 5.71304 11.2086 5.69376 11.1759 5.6812L9.32057 4.96745C9.22631 4.93113 9.14526 4.86712 9.0881 4.78383C9.03094 4.70055 9.00034 4.6019 9.00034 4.50089C9.00034 4.39988 9.03094 4.30123 9.0881 4.21795C9.14526 4.13466 9.22631 4.07065 9.32057 4.03433L11.1759 3.32058C11.2086 3.30802 11.2383 3.28874 11.263 3.26397C11.2878 3.23921 11.3071 3.20952 11.3196 3.17683L12.0281 1.33464C12.0604 1.24753 12.1158 1.17081 12.1882 1.11264C12.2607 1.05448 12.3476 1.01705 12.4396 1.00433C12.5502 0.990939 12.6621 1.01488 12.7576 1.07234C12.8531 1.1298 12.9266 1.2175 12.9665 1.32152L13.6803 3.17683C13.6928 3.20952 13.7121 3.23921 13.7369 3.26397C13.7616 3.28874 13.7913 3.30802 13.824 3.32058L15.6793 4.03433C15.7736 4.07065 15.8546 4.13466 15.9118 4.21795C15.9689 4.30123 15.9995 4.39988 15.9995 4.50089C15.9995 4.6019 15.9689 4.70055 15.9118 4.78383C15.8546 4.86712 15.7736 4.93113 15.6793 4.96745L13.824 5.6812C13.7913 5.69376 13.7616 5.71304 13.7369 5.73781C13.7121 5.76257 13.6928 5.79226 13.6803 5.82495L12.9665 7.68027C12.9302 7.7746 12.8663 7.85573 12.783 7.91297C12.6997 7.9702 12.601 8.00086 12.4999 8.00089Z" fill="white"/>
</g>
</g>
<defs>
<clipPath id="clip0_1205_292">
<rect width="16" height="16" fill="white"/>
</clipPath>
</defs>
</svg>
